<?xml version="1.0" encoding="utf-8" standalone="no"?>
<!DOCTYPE svg PUBLIC "-//W3C//DTD SVG 1.1//EN"
  "http://www.w3.org/Graphics/SVG/1.1/DTD/svg11.dtd">
<svg xmlns:xlink="http://www.w3.org/1999/xlink" width="720pt" height="432pt" viewBox="0 0 720 432" xmlns="http://www.w3.org/2000/svg" version="1.1">
 <metadata>
  <rdf:RDF xmlns:dc="http://purl.org/dc/elements/1.1/" xmlns:cc="http://creativecommons.org/ns#" xmlns:rdf="http://www.w3.org/1999/02/22-rdf-syntax-ns#">
   <cc:Work>
    <dc:type rdf:resource="http://purl.org/dc/dcmitype/StillImage"/>
    <dc:date>2026-02-05T10:54:35.986629</dc:date>
    <dc:format>image/svg+xml</dc:format>
    <dc:creator>
     <cc:Agent>
      <dc:title>Matplotlib v3.10.0, https://matplotlib.org/</dc:title>
     </cc:Agent>
    </dc:creator>
   </cc:Work>
  </rdf:RDF>
 </metadata>
 <defs>
  <style type="text/css">*{stroke-linejoin: round; stroke-linecap: butt}</style>
 </defs>
 <g id="figure_1">
  <g id="patch_1">
   <path d="M 0 432 
L 720 432 
L 720 0 
L 0 0 
z
" style="fill: #ffffff"/>
  </g>
  <g id="axes_1">
   <g id="patch_2">
    <path d="M 37.7 379.1232 
L 688.15 379.1232 
L 688.15 26.0928 
L 37.7 26.0928 
z
" style="fill: #ffffff"/>
   </g>
   <g id="matplotlib.axis_1">
    <g id="xtick_1">
     <g id="line2d_1">
      <defs>
       <path id="mbbd7074af1" d="M 0 0 
L 0 3.5 
" style="stroke: #000000; stroke-width: 0.8"/>
      </defs>
      <g>
       <use xlink:href="#mbbd7074af1" x="94.144008" y="379.1232" style="stroke: #000000; stroke-width: 0.8"/>
      </g>
     </g>
     <g id="text_1">
      <!-- 2020 -->
      <g style="fill: #263238" transform="translate(80.070258 402.2157) scale(0.12 -0.12)">
       <defs>
        <path id="MicrosoftYaHei-32" d="M 2666 3572 
Q 2666 3963 2419 4186 
Q 2172 4409 1747 4409 
Q 1447 4409 1140 4256 
Q 834 4103 569 3819 
L 569 4413 
Q 806 4659 1107 4790 
Q 1409 4922 1816 4922 
Q 2472 4922 2872 4570 
Q 3272 4219 3272 3619 
Q 3272 3084 3026 2693 
Q 2781 2303 2188 1894 
Q 1581 1475 1376 1294 
Q 1172 1113 1090 947 
Q 1009 781 1009 544 
L 3416 544 
L 3416 0 
L 372 0 
L 372 241 
Q 372 659 486 951 
Q 600 1244 862 1520 
Q 1125 1797 1681 2184 
Q 2250 2584 2458 2886 
Q 2666 3188 2666 3572 
z
" transform="scale(0.015625)"/>
        <path id="MicrosoftYaHei-30" d="M 284 2325 
Q 284 3606 709 4264 
Q 1134 4922 1941 4922 
Q 3478 4922 3478 2441 
Q 3478 1216 3045 567 
Q 2613 -81 1831 -81 
Q 1094 -81 689 534 
Q 284 1150 284 2325 
z
M 909 2353 
Q 909 425 1888 425 
Q 2850 425 2850 2384 
Q 2850 4413 1906 4413 
Q 909 4413 909 2353 
z
" transform="scale(0.015625)"/>
       </defs>
       <use xlink:href="#MicrosoftYaHei-32"/>
       <use xlink:href="#MicrosoftYaHei-30" transform="translate(58.642578 0)"/>
       <use xlink:href="#MicrosoftYaHei-32" transform="translate(117.285156 0)"/>
       <use xlink:href="#MicrosoftYaHei-30" transform="translate(175.927734 0)"/>
      </g>
     </g>
    </g>
    <g id="xtick_2">
     <g id="line2d_2">
      <g>
       <use xlink:href="#mbbd7074af1" x="201.656405" y="379.1232" style="stroke: #000000; stroke-width: 0.8"/>
      </g>
     </g>
     <g id="text_2">
      <!-- 2021 -->
      <g style="fill: #263238" transform="translate(187.582655 402.2157) scale(0.12 -0.12)">
       <defs>
        <path id="MicrosoftYaHei-31" d="M 1781 0 
L 1781 4141 
Q 1638 3997 1295 3819 
Q 953 3641 663 3569 
L 663 4169 
Q 1047 4275 1484 4508 
Q 1922 4741 2156 4947 
L 2388 4947 
L 2388 0 
L 1781 0 
z
" transform="scale(0.015625)"/>
       </defs>
       <use xlink:href="#MicrosoftYaHei-32"/>
       <use xlink:href="#MicrosoftYaHei-30" transform="translate(58.642578 0)"/>
       <use xlink:href="#MicrosoftYaHei-32" transform="translate(117.285156 0)"/>
       <use xlink:href="#MicrosoftYaHei-31" transform="translate(175.927734 0)"/>
      </g>
     </g>
    </g>
    <g id="xtick_3">
     <g id="line2d_3">
      <g>
       <use xlink:href="#mbbd7074af1" x="309.168802" y="379.1232" style="stroke: #000000; stroke-width: 0.8"/>
      </g>
     </g>
     <g id="text_3">
      <!-- 2022 -->
      <g style="fill: #263238" transform="translate(295.095052 402.2157) scale(0.12 -0.12)">
       <use xlink:href="#MicrosoftYaHei-32"/>
       <use xlink:href="#MicrosoftYaHei-30" transform="translate(58.642578 0)"/>
       <use xlink:href="#MicrosoftYaHei-32" transform="translate(117.285156 0)"/>
       <use xlink:href="#MicrosoftYaHei-32" transform="translate(175.927734 0)"/>
      </g>
     </g>
    </g>
    <g id="xtick_4">
     <g id="line2d_4">
      <g>
       <use xlink:href="#mbbd7074af1" x="416.681198" y="379.1232" style="stroke: #000000; stroke-width: 0.8"/>
      </g>
     </g>
     <g id="text_4">
      <!-- 2023 -->
      <g style="fill: #263238" transform="translate(402.607448 402.2157) scale(0.12 -0.12)">
       <defs>
        <path id="MicrosoftYaHei-33" d="M 447 809 
Q 944 425 1569 425 
Q 2069 425 2361 670 
Q 2653 916 2653 1328 
Q 2653 2247 1338 2247 
L 934 2247 
L 934 2753 
L 1319 2753 
Q 2484 2753 2484 3616 
Q 2484 4413 1594 4413 
Q 1084 4413 634 4069 
L 634 4647 
Q 1109 4922 1744 4922 
Q 2363 4922 2738 4598 
Q 3113 4275 3113 3759 
Q 3113 2809 2144 2538 
L 2144 2525 
Q 2669 2469 2973 2155 
Q 3278 1841 3278 1372 
Q 3278 719 2808 319 
Q 2338 -81 1556 -81 
Q 869 -81 447 175 
L 447 809 
z
" transform="scale(0.015625)"/>
       </defs>
       <use xlink:href="#MicrosoftYaHei-32"/>
       <use xlink:href="#MicrosoftYaHei-30" transform="translate(58.642578 0)"/>
       <use xlink:href="#MicrosoftYaHei-32" transform="translate(117.285156 0)"/>
       <use xlink:href="#MicrosoftYaHei-33" transform="translate(175.927734 0)"/>
      </g>
     </g>
    </g>
    <g id="xtick_5">
     <g id="line2d_5">
      <g>
       <use xlink:href="#mbbd7074af1" x="524.193595" y="379.1232" style="stroke: #000000; stroke-width: 0.8"/>
      </g>
     </g>
     <g id="text_5">
      <!-- 2024 -->
      <g style="fill: #263238" transform="translate(510.119845 402.2157) scale(0.12 -0.12)">
       <defs>
        <path id="MicrosoftYaHei-34" d="M 2906 4841 
L 2906 1644 
L 3631 1644 
L 3631 1138 
L 2906 1138 
L 2906 0 
L 2313 0 
L 2313 1138 
L 53 1138 
L 53 1616 
Q 656 2294 1265 3178 
Q 1875 4063 2272 4841 
L 2906 4841 
z
M 741 1644 
L 2313 1644 
L 2313 3950 
Q 1988 3366 1616 2817 
Q 1244 2269 741 1644 
z
" transform="scale(0.015625)"/>
       </defs>
       <use xlink:href="#MicrosoftYaHei-32"/>
       <use xlink:href="#MicrosoftYaHei-30" transform="translate(58.642578 0)"/>
       <use xlink:href="#MicrosoftYaHei-32" transform="translate(117.285156 0)"/>
       <use xlink:href="#MicrosoftYaHei-34" transform="translate(175.927734 0)"/>
      </g>
     </g>
    </g>
    <g id="xtick_6">
     <g id="line2d_6">
      <g>
       <use xlink:href="#mbbd7074af1" x="631.705992" y="379.1232" style="stroke: #000000; stroke-width: 0.8"/>
      </g>
     </g>
     <g id="text_6">
      <!-- 2025 -->
      <g style="fill: #263238" transform="translate(617.632242 402.2157) scale(0.12 -0.12)">
       <defs>
        <path id="MicrosoftYaHei-35" d="M 3294 1494 
Q 3294 784 2823 350 
Q 2353 -84 1559 -84 
Q 878 -84 544 119 
L 544 744 
Q 1034 425 1544 425 
Q 2050 425 2361 704 
Q 2672 984 2672 1447 
Q 2672 1909 2348 2167 
Q 2025 2425 1434 2425 
Q 978 2425 613 2384 
L 791 4841 
L 3053 4841 
L 3053 4303 
L 1306 4303 
L 1206 2931 
L 1647 2950 
Q 2416 2950 2855 2567 
Q 3294 2184 3294 1494 
z
" transform="scale(0.015625)"/>
       </defs>
       <use xlink:href="#MicrosoftYaHei-32"/>
       <use xlink:href="#MicrosoftYaHei-30" transform="translate(58.642578 0)"/>
       <use xlink:href="#MicrosoftYaHei-32" transform="translate(117.285156 0)"/>
       <use xlink:href="#MicrosoftYaHei-35" transform="translate(175.927734 0)"/>
      </g>
     </g>
    </g>
   </g>
   <g id="matplotlib.axis_2">
    <g id="ytick_1">
     <g id="line2d_7">
      <path d="M 37.7 379.1232 
L 688.15 379.1232 
" clip-path="url(#p3ef601109e)" style="fill: none; stroke-dasharray: 2.96,1.28; stroke-dashoffset: 0; stroke: #cfd8dc; stroke-opacity: 0.4; stroke-width: 0.8"/>
     </g>
     <g id="line2d_8"/>
     <g id="text_7">
      <!-- 0 -->
      <g style="fill: #90a4ae" transform="translate(28.335937 383.120075) scale(0.1 -0.1)">
       <use xlink:href="#MicrosoftYaHei-30"/>
      </g>
     </g>
    </g>
    <g id="ytick_2">
     <g id="line2d_9">
      <path d="M 37.7 304.801011 
L 688.15 304.801011 
" clip-path="url(#p3ef601109e)" style="fill: none; stroke-dasharray: 2.96,1.28; stroke-dashoffset: 0; stroke: #cfd8dc; stroke-opacity: 0.4; stroke-width: 0.8"/>
     </g>
     <g id="line2d_10"/>
     <g id="text_8">
      <!-- 400 -->
      <g style="fill: #90a4ae" transform="translate(16.607812 308.797886) scale(0.1 -0.1)">
       <use xlink:href="#MicrosoftYaHei-34"/>
       <use xlink:href="#MicrosoftYaHei-30" transform="translate(58.642578 0)"/>
       <use xlink:href="#MicrosoftYaHei-30" transform="translate(117.285156 0)"/>
      </g>
     </g>
    </g>
    <g id="ytick_3">
     <g id="line2d_11">
      <path d="M 37.7 230.478821 
L 688.15 230.478821 
" clip-path="url(#p3ef601109e)" style="fill: none; stroke-dasharray: 2.96,1.28; stroke-dashoffset: 0; stroke: #cfd8dc; stroke-opacity: 0.4; stroke-width: 0.8"/>
     </g>
     <g id="line2d_12"/>
     <g id="text_9">
      <!-- 800 -->
      <g style="fill: #90a4ae" transform="translate(16.607812 234.475696) scale(0.1 -0.1)">
       <defs>
        <path id="MicrosoftYaHei-38" d="M 306 1350 
Q 306 1769 556 2122 
Q 806 2475 1200 2625 
Q 884 2803 700 3081 
Q 516 3359 516 3684 
Q 516 4028 692 4312 
Q 869 4597 1183 4759 
Q 1497 4922 1875 4922 
Q 2256 4922 2572 4761 
Q 2888 4600 3063 4315 
Q 3238 4031 3238 3684 
Q 3238 3366 3058 3086 
Q 2878 2806 2559 2625 
Q 2953 2472 3200 2119 
Q 3447 1766 3447 1350 
Q 3447 938 3250 611 
Q 3053 284 2690 103 
Q 2328 -78 1875 -78 
Q 1425 -78 1065 103 
Q 706 284 506 612 
Q 306 941 306 1350 
z
M 906 1378 
Q 906 947 1172 687 
Q 1438 428 1878 428 
Q 2309 428 2582 692 
Q 2856 956 2856 1378 
Q 2856 1778 2579 2051 
Q 2303 2325 1878 2325 
Q 1456 2325 1181 2058 
Q 906 1791 906 1378 
z
M 1081 3634 
Q 1081 3309 1312 3076 
Q 1544 2844 1878 2844 
Q 2206 2844 2445 3078 
Q 2684 3313 2684 3634 
Q 2684 3963 2454 4191 
Q 2225 4419 1878 4419 
Q 1534 4419 1307 4195 
Q 1081 3972 1081 3634 
z
" transform="scale(0.015625)"/>
       </defs>
       <use xlink:href="#MicrosoftYaHei-38"/>
       <use xlink:href="#MicrosoftYaHei-30" transform="translate(58.642578 0)"/>
       <use xlink:href="#MicrosoftYaHei-30" transform="translate(117.285156 0)"/>
      </g>
     </g>
    </g>
    <g id="ytick_4">
     <g id="line2d_13">
      <path d="M 37.7 156.156632 
L 688.15 156.156632 
" clip-path="url(#p3ef601109e)" style="fill: none; stroke-dasharray: 2.96,1.28; stroke-dashoffset: 0; stroke: #cfd8dc; stroke-opacity: 0.4; stroke-width: 0.8"/>
     </g>
     <g id="line2d_14"/>
     <g id="text_10">
      <!-- 1200 -->
      <g style="fill: #90a4ae" transform="translate(10.74375 160.153507) scale(0.1 -0.1)">
       <use xlink:href="#MicrosoftYaHei-31"/>
       <use xlink:href="#MicrosoftYaHei-32" transform="translate(58.642578 0)"/>
       <use xlink:href="#MicrosoftYaHei-30" transform="translate(117.285156 0)"/>
       <use xlink:href="#MicrosoftYaHei-30" transform="translate(175.927734 0)"/>
      </g>
     </g>
    </g>
    <g id="ytick_5">
     <g id="line2d_15">
      <path d="M 37.7 81.834442 
L 688.15 81.834442 
" clip-path="url(#p3ef601109e)" style="fill: none; stroke-dasharray: 2.96,1.28; stroke-dashoffset: 0; stroke: #cfd8dc; stroke-opacity: 0.4; stroke-width: 0.8"/>
     </g>
     <g id="line2d_16"/>
     <g id="text_11">
      <!-- 1600 -->
      <g style="fill: #90a4ae" transform="translate(10.74375 85.831317) scale(0.1 -0.1)">
       <defs>
        <path id="MicrosoftYaHei-36" d="M 3181 4219 
Q 2803 4413 2391 4413 
Q 1763 4413 1381 3866 
Q 1000 3319 994 2372 
L 1009 2372 
Q 1353 3038 2106 3038 
Q 2734 3038 3109 2628 
Q 3484 2219 3484 1541 
Q 3484 831 3051 375 
Q 2619 -81 1947 -81 
Q 1209 -81 789 495 
Q 369 1072 369 2131 
Q 369 3413 920 4167 
Q 1472 4922 2372 4922 
Q 2888 4922 3181 4781 
L 3181 4219 
z
M 1031 1584 
Q 1031 1106 1286 765 
Q 1541 425 1963 425 
Q 2363 425 2613 719 
Q 2863 1013 2863 1475 
Q 2863 1975 2627 2253 
Q 2391 2531 1956 2531 
Q 1544 2531 1287 2250 
Q 1031 1969 1031 1584 
z
" transform="scale(0.015625)"/>
       </defs>
       <use xlink:href="#MicrosoftYaHei-31"/>
       <use xlink:href="#MicrosoftYaHei-36" transform="translate(58.642578 0)"/>
       <use xlink:href="#MicrosoftYaHei-30" transform="translate(117.285156 0)"/>
       <use xlink:href="#MicrosoftYaHei-30" transform="translate(175.927734 0)"/>
      </g>
     </g>
    </g>
   </g>
   <g id="patch_3">
    <path d="M 67.265909 379.1232 
L 121.022107 379.1232 
L 121.022107 365.187789 
L 67.265909 365.187789 
z
" clip-path="url(#p3ef601109e)" style="fill: #2962ff; opacity: 0.9"/>
   </g>
   <g id="patch_4">
    <path d="M 174.778306 379.1232 
L 228.534504 379.1232 
L 228.534504 350.28619 
L 174.778306 350.28619 
z
" clip-path="url(#p3ef601109e)" style="fill: #2962ff; opacity: 0.9"/>
   </g>
   <g id="patch_5">
    <path d="M 282.290702 379.1232 
L 336.046901 379.1232 
L 336.046901 330.832357 
L 282.290702 330.832357 
z
" clip-path="url(#p3ef601109e)" style="fill: #2962ff; opacity: 0.9"/>
   </g>
   <g id="patch_6">
    <path d="M 389.803099 379.1232 
L 443.559298 379.1232 
L 443.559298 301.698059 
L 389.803099 301.698059 
z
" clip-path="url(#p3ef601109e)" style="fill: #2962ff; opacity: 0.9"/>
   </g>
   <g id="patch_7">
    <path d="M 497.315496 379.1232 
L 551.071694 379.1232 
L 551.071694 244.35849 
L 497.315496 244.35849 
z
" clip-path="url(#p3ef601109e)" style="fill: #2962ff; opacity: 0.9"/>
   </g>
   <g id="patch_8">
    <path d="M 604.827893 379.1232 
L 658.584091 379.1232 
L 658.584091 83.692497 
L 604.827893 83.692497 
z
" clip-path="url(#p3ef601109e)" style="fill: #2962ff; opacity: 0.9"/>
   </g>
   <g id="patch_9">
    <path d="M 37.7 379.1232 
L 688.15 379.1232 
" style="fill: none; stroke: #e0e0e0; stroke-width: 1.5; stroke-linejoin: miter; stroke-linecap: square"/>
   </g>
   <g id="text_12">
    <!-- 75 -->
    <g style="fill: #2962ff" transform="translate(87.470883 357.2455) scale(0.12 -0.12)">
     <defs>
      <path id="Arial-BoldMT-37" d="M 272 3703 
L 272 4519 
L 3275 4519 
L 3275 3881 
Q 2903 3516 2518 2831 
Q 2134 2147 1932 1376 
Q 1731 606 1734 0 
L 888 0 
Q 909 950 1279 1937 
Q 1650 2925 2269 3703 
L 272 3703 
z
" transform="scale(0.015625)"/>
      <path id="Arial-BoldMT-35" d="M 284 1178 
L 1159 1269 
Q 1197 972 1381 798 
Q 1566 625 1806 625 
Q 2081 625 2272 848 
Q 2463 1072 2463 1522 
Q 2463 1944 2273 2155 
Q 2084 2366 1781 2366 
Q 1403 2366 1103 2031 
L 391 2134 
L 841 4519 
L 3163 4519 
L 3163 3697 
L 1506 3697 
L 1369 2919 
Q 1663 3066 1969 3066 
Q 2553 3066 2959 2641 
Q 3366 2216 3366 1538 
Q 3366 972 3038 528 
Q 2591 -78 1797 -78 
Q 1163 -78 763 262 
Q 363 603 284 1178 
z
" transform="scale(0.015625)"/>
     </defs>
     <use xlink:href="#Arial-BoldMT-37"/>
     <use xlink:href="#Arial-BoldMT-35" transform="translate(55.615234 0)"/>
    </g>
   </g>
   <g id="text_13">
    <!-- 155 -->
    <g style="fill: #2962ff" transform="translate(191.646717 342.343901) scale(0.12 -0.12)">
     <defs>
      <path id="Arial-BoldMT-31" d="M 2519 0 
L 1641 0 
L 1641 3309 
Q 1159 2859 506 2644 
L 506 3441 
Q 850 3553 1253 3867 
Q 1656 4181 1806 4600 
L 2519 4600 
L 2519 0 
z
" transform="scale(0.015625)"/>
     </defs>
     <use xlink:href="#Arial-BoldMT-31"/>
     <use xlink:href="#Arial-BoldMT-35" transform="translate(55.615234 0)"/>
     <use xlink:href="#Arial-BoldMT-35" transform="translate(111.230469 0)"/>
    </g>
   </g>
   <g id="text_14">
    <!-- 259 -->
    <g style="fill: #2962ff" transform="translate(299.159114 322.890068) scale(0.12 -0.12)">
     <defs>
      <path id="Arial-BoldMT-32" d="M 3238 816 
L 3238 0 
L 159 0 
Q 209 463 459 877 
Q 709 1291 1447 1975 
Q 2041 2528 2175 2725 
Q 2356 2997 2356 3263 
Q 2356 3556 2198 3714 
Q 2041 3872 1763 3872 
Q 1488 3872 1325 3706 
Q 1163 3541 1138 3156 
L 263 3244 
Q 341 3969 753 4284 
Q 1166 4600 1784 4600 
Q 2463 4600 2850 4234 
Q 3238 3869 3238 3325 
Q 3238 3016 3127 2736 
Q 3016 2456 2775 2150 
Q 2616 1947 2200 1565 
Q 1784 1184 1673 1059 
Q 1563 934 1494 816 
L 3238 816 
z
" transform="scale(0.015625)"/>
      <path id="Arial-BoldMT-39" d="M 291 1059 
L 1141 1153 
Q 1172 894 1303 769 
Q 1434 644 1650 644 
Q 1922 644 2112 894 
Q 2303 1144 2356 1931 
Q 2025 1547 1528 1547 
Q 988 1547 595 1964 
Q 203 2381 203 3050 
Q 203 3747 617 4173 
Q 1031 4600 1672 4600 
Q 2369 4600 2816 4061 
Q 3263 3522 3263 2288 
Q 3263 1031 2797 475 
Q 2331 -81 1584 -81 
Q 1047 -81 715 205 
Q 384 491 291 1059 
z
M 2278 2978 
Q 2278 3403 2083 3637 
Q 1888 3872 1631 3872 
Q 1388 3872 1227 3680 
Q 1066 3488 1066 3050 
Q 1066 2606 1241 2398 
Q 1416 2191 1678 2191 
Q 1931 2191 2104 2391 
Q 2278 2591 2278 2978 
z
" transform="scale(0.015625)"/>
     </defs>
     <use xlink:href="#Arial-BoldMT-32"/>
     <use xlink:href="#Arial-BoldMT-35" transform="translate(55.615234 0)"/>
     <use xlink:href="#Arial-BoldMT-39" transform="translate(111.230469 0)"/>
    </g>
   </g>
   <g id="text_15">
    <!-- 416 -->
    <g style="fill: #2962ff" transform="translate(406.671511 293.75577) scale(0.12 -0.12)">
     <defs>
      <path id="Arial-BoldMT-34" d="M 1994 0 
L 1994 922 
L 119 922 
L 119 1691 
L 2106 4600 
L 2844 4600 
L 2844 1694 
L 3413 1694 
L 3413 922 
L 2844 922 
L 2844 0 
L 1994 0 
z
M 1994 1694 
L 1994 3259 
L 941 1694 
L 1994 1694 
z
" transform="scale(0.015625)"/>
      <path id="Arial-BoldMT-36" d="M 3247 3459 
L 2397 3366 
Q 2366 3628 2234 3753 
Q 2103 3878 1894 3878 
Q 1616 3878 1423 3628 
Q 1231 3378 1181 2588 
Q 1509 2975 1997 2975 
Q 2547 2975 2939 2556 
Q 3331 2138 3331 1475 
Q 3331 772 2918 347 
Q 2506 -78 1859 -78 
Q 1166 -78 719 461 
Q 272 1000 272 2228 
Q 272 3488 737 4044 
Q 1203 4600 1947 4600 
Q 2469 4600 2811 4308 
Q 3153 4016 3247 3459 
z
M 1256 1544 
Q 1256 1116 1453 883 
Q 1650 650 1903 650 
Q 2147 650 2309 840 
Q 2472 1031 2472 1466 
Q 2472 1913 2297 2120 
Q 2122 2328 1859 2328 
Q 1606 2328 1431 2129 
Q 1256 1931 1256 1544 
z
" transform="scale(0.015625)"/>
     </defs>
     <use xlink:href="#Arial-BoldMT-34"/>
     <use xlink:href="#Arial-BoldMT-31" transform="translate(55.615234 0)"/>
     <use xlink:href="#Arial-BoldMT-36" transform="translate(111.230469 0)"/>
    </g>
   </g>
   <g id="text_16">
    <!-- 725 -->
    <g style="fill: #2962ff" transform="translate(514.183908 236.416201) scale(0.12 -0.12)">
     <use xlink:href="#Arial-BoldMT-37"/>
     <use xlink:href="#Arial-BoldMT-32" transform="translate(55.615234 0)"/>
     <use xlink:href="#Arial-BoldMT-35" transform="translate(111.230469 0)"/>
    </g>
   </g>
   <g id="text_17">
    <!-- 1590 -->
    <g style="fill: #2962ff" transform="translate(618.359742 75.750208) scale(0.12 -0.12)">
     <defs>
      <path id="Arial-BoldMT-30" d="M 1756 4600 
Q 2422 4600 2797 4125 
Q 3244 3563 3244 2259 
Q 3244 959 2794 391 
Q 2422 -78 1756 -78 
Q 1088 -78 678 436 
Q 269 950 269 2269 
Q 269 3563 719 4131 
Q 1091 4600 1756 4600 
z
M 1756 3872 
Q 1597 3872 1472 3770 
Q 1347 3669 1278 3406 
Q 1188 3066 1188 2259 
Q 1188 1453 1269 1151 
Q 1350 850 1473 750 
Q 1597 650 1756 650 
Q 1916 650 2041 751 
Q 2166 853 2234 1116 
Q 2325 1453 2325 2259 
Q 2325 3066 2244 3367 
Q 2163 3669 2039 3770 
Q 1916 3872 1756 3872 
z
" transform="scale(0.015625)"/>
     </defs>
     <use xlink:href="#Arial-BoldMT-31"/>
     <use xlink:href="#Arial-BoldMT-35" transform="translate(55.615234 0)"/>
     <use xlink:href="#Arial-BoldMT-39" transform="translate(111.230469 0)"/>
     <use xlink:href="#Arial-BoldMT-30" transform="translate(166.845703 0)"/>
    </g>
   </g>
   <g id="text_18">
    <!-- 规模 (EFLOPS) -->
    <g style="fill: #90a4ae" transform="translate(37.7 19.032192) scale(0.1 -0.1)">
     <defs>
      <path id="MicrosoftYaHei-Bold-89c4" d="M 88 2766 
L 894 2766 
L 894 3516 
L 188 3516 
L 188 4291 
L 894 4291 
L 894 5284 
L 1694 5284 
L 1694 4291 
L 2400 4291 
L 2400 3516 
L 1694 3516 
L 1694 2766 
L 2488 2766 
L 2488 1984 
L 1675 1984 
Q 1666 1816 1647 1656 
Q 2091 1247 2650 666 
Q 2306 341 2088 91 
Q 1869 369 1506 788 
Q 1278 -194 769 -878 
Q 369 -447 75 -178 
Q 747 550 866 1984 
L 88 1984 
L 88 2766 
z
M 2650 1128 
L 2650 5066 
L 5913 5066 
L 5913 1197 
L 5100 1197 
L 5100 4259 
L 3463 4259 
L 3463 1128 
L 2650 1128 
z
M 5525 978 
Q 6000 747 6306 628 
Q 6184 -291 6031 -522 
Q 5878 -753 5469 -753 
L 4906 -753 
Q 4188 -753 4188 -78 
L 4188 644 
Q 3728 -297 2613 -884 
Q 2394 -572 2044 -172 
Q 3225 394 3540 1169 
Q 3856 1944 3856 3872 
L 4688 3872 
Q 4675 2513 4506 1641 
L 4931 1641 
L 4931 222 
Q 4931 -28 5150 -28 
L 5219 -28 
Q 5369 -28 5417 112 
Q 5466 253 5525 978 
z
" transform="scale(0.015625)"/>
      <path id="MicrosoftYaHei-Bold-6a21" d="M 6250 534 
L 4825 534 
Q 5419 84 6325 -53 
Q 6131 -403 5913 -859 
Q 4769 -522 4169 334 
Q 3694 -503 2406 -897 
Q 2206 -509 1925 -159 
Q 3013 66 3419 534 
L 2088 534 
L 2088 1141 
L 3719 1141 
Q 3756 1284 3769 1459 
L 2425 1459 
L 2425 2134 
L 1944 1659 
Q 1800 1878 1638 2109 
L 1638 -841 
L 863 -841 
L 863 1803 
Q 619 1141 275 547 
Q 213 978 75 1691 
Q 525 2453 788 3328 
L 138 3328 
L 138 4066 
L 863 4066 
L 863 5291 
L 1638 5291 
L 1638 4066 
L 2219 4066 
L 2219 3328 
L 1638 3328 
L 1638 2972 
Q 2081 2559 2425 2209 
L 2425 3703 
L 6025 3703 
L 6025 1459 
L 4556 1459 
Q 4544 1291 4519 1141 
L 6250 1141 
L 6250 534 
z
M 5250 2009 
L 5250 2353 
L 3200 2353 
L 3200 2009 
L 5250 2009 
z
M 5250 3147 
L 3200 3147 
L 3200 2816 
L 5250 2816 
L 5250 3147 
z
M 5413 3853 
L 4675 3853 
L 4675 4203 
L 3719 4203 
L 3719 3853 
L 2981 3853 
L 2981 4203 
L 2175 4203 
L 2175 4822 
L 2981 4822 
L 2981 5291 
L 3719 5291 
L 3719 4822 
L 4675 4822 
L 4675 5291 
L 5413 5291 
L 5413 4822 
L 6275 4822 
L 6275 4203 
L 5413 4203 
L 5413 3853 
z
" transform="scale(0.015625)"/>
      <path id="MicrosoftYaHei-Bold-20" transform="scale(0.015625)"/>
      <path id="MicrosoftYaHei-Bold-28" d="M 1606 -1100 
Q 525 97 525 1853 
Q 525 3550 1606 4841 
L 2431 4841 
Q 1406 3497 1406 1853 
Q 1406 216 2438 -1100 
L 1606 -1100 
z
" transform="scale(0.015625)"/>
      <path id="MicrosoftYaHei-Bold-45" d="M 3425 0 
L 559 0 
L 559 4841 
L 3313 4841 
L 3313 3997 
L 1591 3997 
L 1591 2856 
L 3191 2856 
L 3191 2016 
L 1591 2016 
L 1591 844 
L 3425 844 
L 3425 0 
z
" transform="scale(0.015625)"/>
      <path id="MicrosoftYaHei-Bold-46" d="M 3319 3997 
L 1591 3997 
L 1591 2753 
L 3181 2753 
L 3181 1909 
L 1591 1909 
L 1591 0 
L 559 0 
L 559 4841 
L 3319 4841 
L 3319 3997 
z
" transform="scale(0.015625)"/>
      <path id="MicrosoftYaHei-Bold-4c" d="M 3400 0 
L 559 0 
L 559 4841 
L 1591 4841 
L 1591 844 
L 3400 844 
L 3400 0 
z
" transform="scale(0.015625)"/>
      <path id="MicrosoftYaHei-Bold-4f" d="M 256 2356 
Q 256 3494 920 4208 
Q 1584 4922 2675 4922 
Q 3713 4922 4345 4231 
Q 4978 3541 4978 2456 
Q 4978 1325 4320 620 
Q 3663 -84 2597 -84 
Q 1556 -84 906 598 
Q 256 1281 256 2356 
z
M 1341 2413 
Q 1341 1706 1681 1257 
Q 2022 809 2616 809 
Q 3222 809 3559 1239 
Q 3897 1669 3897 2394 
Q 3897 3150 3569 3589 
Q 3241 4028 2644 4028 
Q 2038 4028 1689 3578 
Q 1341 3128 1341 2413 
z
" transform="scale(0.015625)"/>
      <path id="MicrosoftYaHei-Bold-50" d="M 1591 1688 
L 1591 0 
L 559 0 
L 559 4841 
L 2225 4841 
Q 4031 4841 4031 3309 
Q 4031 2566 3486 2117 
Q 2941 1669 2122 1688 
L 1591 1688 
z
M 1591 4041 
L 1591 2478 
L 2038 2478 
Q 2947 2478 2947 3269 
Q 2947 4041 2047 4041 
L 1591 4041 
z
" transform="scale(0.015625)"/>
      <path id="MicrosoftYaHei-Bold-53" d="M 338 1219 
Q 922 734 1666 734 
Q 2088 734 2300 879 
Q 2513 1025 2513 1253 
Q 2513 1450 2344 1625 
Q 2175 1800 1453 2100 
Q 319 2581 319 3500 
Q 319 4175 833 4548 
Q 1347 4922 2194 4922 
Q 2903 4922 3384 4738 
L 3384 3769 
Q 2897 4100 2244 4100 
Q 1863 4100 1634 3961 
Q 1406 3822 1406 3588 
Q 1406 3400 1562 3242 
Q 1719 3084 2334 2816 
Q 3056 2506 3326 2162 
Q 3597 1819 3597 1344 
Q 3597 647 3103 281 
Q 2609 -84 1700 -84 
Q 869 -84 338 184 
L 338 1219 
z
" transform="scale(0.015625)"/>
      <path id="MicrosoftYaHei-Bold-29" d="M 59 -1100 
Q 1097 216 1097 1853 
Q 1097 3484 59 4841 
L 888 4841 
Q 1978 3544 1978 1853 
Q 1978 113 881 -1100 
L 59 -1100 
z
" transform="scale(0.015625)"/>
     </defs>
     <use xlink:href="#MicrosoftYaHei-Bold-89c4"/>
     <use xlink:href="#MicrosoftYaHei-Bold-6a21" transform="translate(100 0)"/>
     <use xlink:href="#MicrosoftYaHei-Bold-20" transform="translate(200 0)"/>
     <use xlink:href="#MicrosoftYaHei-Bold-28" transform="translate(229.785156 0)"/>
     <use xlink:href="#MicrosoftYaHei-Bold-45" transform="translate(268.75 0)"/>
     <use xlink:href="#MicrosoftYaHei-Bold-46" transform="translate(325.927734 0)"/>
     <use xlink:href="#MicrosoftYaHei-Bold-4c" transform="translate(381.738281 0)"/>
     <use xlink:href="#MicrosoftYaHei-Bold-4f" transform="translate(433.675781 0)"/>
     <use xlink:href="#MicrosoftYaHei-Bold-50" transform="translate(515.511719 0)"/>
     <use xlink:href="#MicrosoftYaHei-Bold-53" transform="translate(581.234375 0)"/>
     <use xlink:href="#MicrosoftYaHei-Bold-29" transform="translate(641.390625 0)"/>
    </g>
   </g>
  </g>
  <g id="axes_2">
   <g id="matplotlib.axis_3">
    <g id="ytick_6">
     <g id="line2d_17"/>
     <g id="text_19">
      <!-- 0 -->
      <g style="fill: #ff6d00" transform="translate(691.65 383.120075) scale(0.1 -0.1)">
       <use xlink:href="#MicrosoftYaHei-30"/>
      </g>
     </g>
    </g>
    <g id="ytick_7">
     <g id="line2d_18"/>
     <g id="text_20">
      <!-- 40 -->
      <g style="fill: #ff6d00" transform="translate(691.65 304.668875) scale(0.1 -0.1)">
       <use xlink:href="#MicrosoftYaHei-34"/>
       <use xlink:href="#MicrosoftYaHei-30" transform="translate(58.642578 0)"/>
      </g>
     </g>
    </g>
    <g id="ytick_8">
     <g id="line2d_19"/>
     <g id="text_21">
      <!-- 80 -->
      <g style="fill: #ff6d00" transform="translate(691.65 226.217675) scale(0.1 -0.1)">
       <use xlink:href="#MicrosoftYaHei-38"/>
       <use xlink:href="#MicrosoftYaHei-30" transform="translate(58.642578 0)"/>
      </g>
     </g>
    </g>
    <g id="ytick_9">
     <g id="line2d_20"/>
     <g id="text_22">
      <!-- 120 -->
      <g style="fill: #ff6d00" transform="translate(691.65 147.766475) scale(0.1 -0.1)">
       <use xlink:href="#MicrosoftYaHei-31"/>
       <use xlink:href="#MicrosoftYaHei-32" transform="translate(58.642578 0)"/>
       <use xlink:href="#MicrosoftYaHei-30" transform="translate(117.285156 0)"/>
      </g>
     </g>
    </g>
    <g id="ytick_10">
     <g id="line2d_21"/>
     <g id="text_23">
      <!-- 160 -->
      <g style="fill: #ff6d00" transform="translate(691.65 69.315275) scale(0.1 -0.1)">
       <use xlink:href="#MicrosoftYaHei-31"/>
       <use xlink:href="#MicrosoftYaHei-36" transform="translate(58.642578 0)"/>
       <use xlink:href="#MicrosoftYaHei-30" transform="translate(117.285156 0)"/>
      </g>
     </g>
    </g>
   </g>
   <g id="patch_10">
    <path d="M 37.7 379.1232 
L 688.15 379.1232 
" style="fill: none; stroke: #e0e0e0; stroke-width: 1.5; stroke-linejoin: miter; stroke-linecap: square"/>
   </g>
   <g id="line2d_22">
    <path d="M 201.656405 169.396992 
L 309.168802 246.812623 
L 416.681198 260.797419 
L 524.193595 233.874578 
L 631.705992 145.300118 
" clip-path="url(#p3ef601109e)" style="fill: none; stroke: #ff6d00; stroke-width: 3; stroke-linecap: square"/>
    <defs>
     <path id="m499048f122" d="M 0 4.5 
C 1.193414 4.5 2.338109 4.025852 3.181981 3.181981 
C 4.025852 2.338109 4.5 1.193414 4.5 0 
C 4.5 -1.193414 4.025852 -2.338109 3.181981 -3.181981 
C 2.338109 -4.025852 1.193414 -4.5 0 -4.5 
C -1.193414 -4.5 -2.338109 -4.025852 -3.181981 -3.181981 
C -4.025852 -2.338109 -4.5 -1.193414 -4.5 0 
C -4.5 1.193414 -4.025852 2.338109 -3.181981 3.181981 
C -2.338109 4.025852 -1.193414 4.5 0 4.5 
z
" style="stroke: #ff6d00; stroke-width: 2.5"/>
    </defs>
    <g clip-path="url(#p3ef601109e)">
     <use xlink:href="#m499048f122" x="201.656405" y="169.396992" style="fill: #ffffff; stroke: #ff6d00; stroke-width: 2.5"/>
     <use xlink:href="#m499048f122" x="309.168802" y="246.812623" style="fill: #ffffff; stroke: #ff6d00; stroke-width: 2.5"/>
     <use xlink:href="#m499048f122" x="416.681198" y="260.797419" style="fill: #ffffff; stroke: #ff6d00; stroke-width: 2.5"/>
     <use xlink:href="#m499048f122" x="524.193595" y="233.874578" style="fill: #ffffff; stroke: #ff6d00; stroke-width: 2.5"/>
     <use xlink:href="#m499048f122" x="631.705992" y="145.300118" style="fill: #ffffff; stroke: #ff6d00; stroke-width: 2.5"/>
    </g>
   </g>
   <g id="text_24">
    <!-- 106% -->
    <g style="fill: #ff6d00" transform="translate(187.590155 151.535971) scale(0.11 -0.11)">
     <defs>
      <path id="Arial-BoldMT-25" d="M 278 3450 
Q 278 4066 548 4362 
Q 819 4659 1281 4659 
Q 1759 4659 2029 4364 
Q 2300 4069 2300 3450 
Q 2300 2834 2029 2537 
Q 1759 2241 1297 2241 
Q 819 2241 548 2536 
Q 278 2831 278 3450 
z
M 963 3456 
Q 963 3009 1066 2856 
Q 1144 2744 1281 2744 
Q 1422 2744 1500 2856 
Q 1600 3009 1600 3456 
Q 1600 3903 1500 4053 
Q 1422 4169 1281 4169 
Q 1144 4169 1066 4056 
Q 963 3903 963 3456 
z
M 1950 -175 
L 1300 -175 
L 3741 4659 
L 4372 4659 
L 1950 -175 
z
M 3369 1028 
Q 3369 1644 3639 1941 
Q 3909 2238 4378 2238 
Q 4850 2238 5120 1941 
Q 5391 1644 5391 1028 
Q 5391 409 5120 112 
Q 4850 -184 4388 -184 
Q 3909 -184 3639 112 
Q 3369 409 3369 1028 
z
M 4053 1031 
Q 4053 584 4156 434 
Q 4234 319 4372 319 
Q 4513 319 4588 431 
Q 4691 584 4691 1031 
Q 4691 1478 4591 1631 
Q 4513 1744 4372 1744 
Q 4231 1744 4156 1631 
Q 4053 1478 4053 1031 
z
" transform="scale(0.015625)"/>
     </defs>
     <use xlink:href="#Arial-BoldMT-31"/>
     <use xlink:href="#Arial-BoldMT-30" transform="translate(55.615234 0)"/>
     <use xlink:href="#Arial-BoldMT-36" transform="translate(111.230469 0)"/>
     <use xlink:href="#Arial-BoldMT-25" transform="translate(166.845703 0)"/>
    </g>
   </g>
   <g id="text_25">
    <!-- 67% -->
    <g style="fill: #ff6d00" transform="translate(298.161067 228.951601) scale(0.11 -0.11)">
     <use xlink:href="#Arial-BoldMT-36"/>
     <use xlink:href="#Arial-BoldMT-37" transform="translate(55.615234 0)"/>
     <use xlink:href="#Arial-BoldMT-25" transform="translate(111.230469 0)"/>
    </g>
   </g>
   <g id="text_26">
    <!-- 60% -->
    <g style="fill: #ff6d00" transform="translate(405.673464 242.936398) scale(0.11 -0.11)">
     <use xlink:href="#Arial-BoldMT-36"/>
     <use xlink:href="#Arial-BoldMT-30" transform="translate(55.615234 0)"/>
     <use xlink:href="#Arial-BoldMT-25" transform="translate(111.230469 0)"/>
    </g>
   </g>
   <g id="text_27">
    <!-- 74% -->
    <g style="fill: #ff6d00" transform="translate(513.185861 216.013557) scale(0.11 -0.11)">
     <use xlink:href="#Arial-BoldMT-37"/>
     <use xlink:href="#Arial-BoldMT-34" transform="translate(55.615234 0)"/>
     <use xlink:href="#Arial-BoldMT-25" transform="translate(111.230469 0)"/>
    </g>
   </g>
   <g id="text_28">
    <!-- 119% -->
    <g style="fill: #ff6d00" transform="translate(617.942242 127.439096) scale(0.11 -0.11)">
     <use xlink:href="#Arial-BoldMT-31"/>
     <use xlink:href="#Arial-BoldMT-31" transform="translate(50.115234 0)"/>
     <use xlink:href="#Arial-BoldMT-39" transform="translate(105.730469 0)"/>
     <use xlink:href="#Arial-BoldMT-25" transform="translate(161.345703 0)"/>
    </g>
   </g>
   <g id="text_29">
    <!-- 增长率 (%) -->
    <g style="fill: #ff6d00" transform="translate(638.067187 19.032192) scale(0.1 -0.1)">
     <defs>
      <path id="MicrosoftYaHei-Bold-589e" d="M 3325 5341 
Q 3553 4994 3763 4653 
L 4397 4653 
L 4794 5347 
L 5575 5091 
L 5241 4653 
L 6069 4653 
L 6069 2241 
L 2056 2241 
L 2056 4653 
L 2900 4653 
Q 2766 4856 2613 5078 
L 3325 5341 
z
M 5369 2891 
L 5369 4016 
L 4400 4016 
L 4400 2891 
L 5369 2891 
z
M 4875 3934 
L 5313 3703 
Q 5100 3284 4894 2947 
Q 4663 3091 4456 3191 
Q 4706 3591 4875 3934 
z
M 2756 2891 
L 3725 2891 
L 3725 4016 
L 2756 4016 
L 2756 2891 
z
M 3238 3928 
Q 3425 3609 3644 3191 
Q 3369 3053 3181 2941 
Q 2988 3359 2788 3691 
L 3238 3928 
z
M 263 -372 
L 100 572 
L 650 725 
L 650 2859 
L 200 2859 
L 200 3716 
L 650 3716 
L 650 5266 
L 1463 5266 
L 1463 3716 
L 1850 3716 
L 1850 2859 
L 1463 2859 
L 1463 966 
Q 1734 1047 2006 1134 
Q 1994 913 1994 694 
Q 1994 472 2006 253 
Q 1238 -9 263 -372 
z
M 2331 -847 
L 2331 1959 
L 5781 1959 
L 5781 -847 
L 5000 -847 
L 5000 -597 
L 3125 -597 
L 3125 -847 
L 2331 -847 
z
M 5000 1341 
L 3125 1341 
L 3125 966 
L 5000 966 
L 5000 1341 
z
M 3125 16 
L 5000 16 
L 5000 391 
L 3125 391 
L 3125 16 
z
" transform="scale(0.015625)"/>
      <path id="MicrosoftYaHei-Bold-957f" d="M 175 2816 
L 1031 2816 
L 1031 5322 
L 1900 5322 
L 1900 2816 
L 6194 2816 
L 6194 2009 
L 3825 2009 
Q 4563 728 6313 216 
Q 6031 -153 5681 -647 
Q 3713 172 2969 2009 
L 1900 2009 
L 1900 266 
L 3513 797 
Q 3494 359 3506 -22 
Q 1653 -588 1269 -903 
L 794 -103 
Q 1031 134 1031 628 
L 1031 2009 
L 175 2009 
L 175 2816 
z
M 5006 5272 
L 5663 4491 
Q 4338 3747 2863 3091 
L 2350 3766 
Q 4013 4547 5006 5272 
z
" transform="scale(0.015625)"/>
      <path id="MicrosoftYaHei-Bold-7387" d="M 213 4766 
L 2719 4766 
L 2613 5303 
L 3588 5341 
Q 3631 5119 3684 4766 
L 6200 4766 
L 6200 4028 
L 3447 4028 
L 2775 3391 
L 3391 3403 
Q 3672 3675 3969 3991 
L 4606 3622 
Q 3894 2928 2919 2122 
L 3684 2172 
Q 3588 2322 3500 2447 
L 4069 2772 
Q 4506 2203 4888 1603 
L 4263 1253 
L 4063 1581 
Q 2722 1488 1938 1397 
L 1681 2053 
Q 2163 2328 2722 2797 
Q 2322 2766 2013 2728 
L 1719 3309 
Q 2050 3463 2519 4028 
L 213 4028 
L 213 4766 
z
M 5944 3484 
L 5119 2803 
Q 5609 2513 6188 2141 
L 5725 1472 
Q 5125 1972 4488 2416 
L 4800 2844 
L 4500 3216 
Q 5044 3616 5438 3966 
L 5944 3484 
z
M 375 3472 
L 856 3959 
Q 1225 3672 1650 3272 
L 1144 2759 
Q 713 3191 375 3472 
z
M 1569 2941 
L 1950 2372 
L 544 1372 
L 175 2122 
Q 700 2397 1569 2941 
z
M 88 1066 
L 2763 1066 
L 2763 1341 
L 3638 1341 
L 3638 1066 
L 6288 1066 
L 6288 328 
L 3638 328 
L 3638 -872 
L 2763 -872 
L 2763 328 
L 88 328 
L 88 1066 
z
" transform="scale(0.015625)"/>
      <path id="MicrosoftYaHei-Bold-25" d="M 297 3597 
Q 297 4191 626 4548 
Q 956 4906 1519 4906 
Q 2056 4906 2354 4581 
Q 2653 4256 2653 3684 
Q 2653 3097 2322 2744 
Q 1991 2391 1438 2391 
Q 919 2391 608 2722 
Q 297 3053 297 3597 
z
M 984 3631 
Q 984 2959 1478 2959 
Q 1981 2959 1981 3659 
Q 1981 4338 1500 4338 
Q 984 4338 984 3631 
z
M 4938 4841 
L 1791 -3 
L 1006 -3 
L 4147 4841 
L 4938 4841 
z
M 3297 1141 
Q 3297 1741 3631 2095 
Q 3966 2450 4522 2450 
Q 5059 2450 5357 2131 
Q 5656 1813 5656 1234 
Q 5656 641 5322 286 
Q 4988 -69 4438 -69 
Q 3922 -69 3609 264 
Q 3297 597 3297 1141 
z
M 3981 1175 
Q 3981 500 4478 500 
Q 4978 500 4978 1200 
Q 4978 1528 4845 1704 
Q 4713 1881 4491 1881 
Q 3981 1881 3981 1175 
z
" transform="scale(0.015625)"/>
     </defs>
     <use xlink:href="#MicrosoftYaHei-Bold-589e"/>
     <use xlink:href="#MicrosoftYaHei-Bold-957f" transform="translate(100 0)"/>
     <use xlink:href="#MicrosoftYaHei-Bold-7387" transform="translate(200 0)"/>
     <use xlink:href="#MicrosoftYaHei-Bold-20" transform="translate(300 0)"/>
     <use xlink:href="#MicrosoftYaHei-Bold-28" transform="translate(329.785156 0)"/>
     <use xlink:href="#MicrosoftYaHei-Bold-25" transform="translate(368.75 0)"/>
     <use xlink:href="#MicrosoftYaHei-Bold-29" transform="translate(461.865234 0)"/>
    </g>
   </g>
   <g id="text_30">
    <!-- 数据来源：IDC, 工信部 (2024) -->
    <g style="fill: #b0bec5" transform="translate(566.011562 421.486848) scale(0.09 -0.09)">
     <defs>
      <path id="MicrosoftYaHei-6570" d="M 4175 5303 
L 4675 5228 
Q 4544 4622 4369 4097 
L 6281 4097 
L 6281 3672 
L 5888 3672 
Q 5731 1834 5088 753 
Q 5594 66 6375 -372 
Q 6175 -647 6038 -866 
Q 5275 -372 4769 309 
Q 4194 -403 3400 -928 
Q 3263 -747 3044 -534 
Q 3919 41 4463 772 
Q 3956 1647 3794 2791 
Q 3663 2559 3519 2359 
Q 3394 2541 3206 2759 
Q 3931 3803 4175 5303 
z
M 150 1697 
L 1100 1697 
Q 1238 1934 1369 2184 
L 1819 2041 
Q 1719 1866 1619 1697 
L 3150 1697 
L 3150 1291 
Q 2913 678 2431 216 
Q 2775 53 3131 -109 
L 2856 -541 
Q 2469 -322 2050 -103 
Q 1344 -609 269 -903 
Q 169 -703 56 -466 
Q 969 -259 1600 128 
Q 1063 403 475 691 
Q 675 978 863 1284 
L 150 1284 
L 150 1697 
z
M 219 3847 
L 1656 3847 
L 1656 5247 
L 2119 5247 
L 2119 3847 
L 3319 3847 
L 3319 3434 
L 2119 3434 
L 2119 3053 
L 2306 3266 
Q 2888 2841 3281 2516 
L 2981 2166 
Q 2638 2491 2119 2897 
L 2119 2184 
L 1656 2184 
L 1656 3059 
Q 1088 2466 331 2016 
Q 213 2197 63 2397 
Q 850 2822 1506 3434 
L 219 3434 
L 219 3847 
z
M 5388 3672 
L 4219 3672 
Q 4188 3591 4150 3516 
Q 4263 2191 4775 1247 
Q 5275 2159 5388 3672 
z
M 1088 834 
Q 1531 634 2000 416 
Q 2431 784 2675 1284 
L 1375 1284 
Q 1231 1053 1088 834 
z
M 3038 5091 
L 3425 4834 
Q 3081 4384 2738 4003 
Q 2594 4128 2400 4266 
Q 2725 4647 3038 5091 
z
M 381 4816 
L 738 5059 
Q 1019 4716 1319 4322 
L 931 4047 
Q 656 4453 381 4816 
z
" transform="scale(0.015625)"/>
      <path id="MicrosoftYaHei-636e" d="M 2900 1334 
L 4188 1334 
L 4188 2128 
L 2731 2128 
Q 2663 206 1844 -841 
Q 1694 -647 1506 -447 
Q 2288 516 2288 2509 
L 2288 4947 
L 5975 4947 
L 5975 3134 
L 5525 3134 
L 5525 3328 
L 2738 3328 
L 2738 2553 
L 4188 2553 
L 4188 3209 
L 4638 3209 
L 4638 2553 
L 6288 2553 
L 6288 2128 
L 4638 2128 
L 4638 1334 
L 5938 1334 
L 5938 -778 
L 5488 -778 
L 5488 -416 
L 3350 -416 
L 3350 -778 
L 2900 -778 
L 2900 1334 
z
M 100 1966 
Q 544 2088 963 2213 
L 963 3641 
L 175 3641 
L 175 4091 
L 963 4091 
L 963 5284 
L 1425 5284 
L 1425 4091 
L 2106 4091 
L 2106 3641 
L 1425 3641 
L 1425 2356 
Q 1722 2450 2006 2547 
Q 2013 2266 2044 2059 
Q 1722 1956 1425 1856 
L 1425 -34 
Q 1425 -741 806 -753 
Q 613 -759 231 -747 
Q 206 -497 156 -228 
Q 500 -266 681 -266 
Q 963 -266 963 53 
L 963 1703 
Q 534 1559 163 1428 
L 100 1966 
z
M 5525 4534 
L 2738 4534 
L 2738 3741 
L 5525 3741 
L 5525 4534 
z
M 5488 922 
L 3350 922 
L 3350 -9 
L 5488 -9 
L 5488 922 
z
" transform="scale(0.015625)"/>
      <path id="MicrosoftYaHei-6765" d="M 6325 141 
Q 6119 -122 5975 -334 
Q 4344 403 3438 1550 
L 3438 -841 
L 2963 -841 
L 2963 1584 
Q 2050 516 413 -409 
Q 281 -222 75 22 
Q 1706 841 2806 1922 
L 181 1922 
L 181 2359 
L 2963 2359 
L 2963 4003 
L 550 4003 
L 550 4441 
L 2963 4441 
L 2963 5341 
L 3438 5341 
L 3438 4441 
L 5900 4441 
L 5900 4003 
L 3438 4003 
L 3438 2359 
L 6225 2359 
L 6225 1922 
L 3566 1922 
Q 4594 778 6325 141 
z
M 4056 2766 
Q 4631 3378 4950 3828 
L 5381 3497 
Q 4913 2941 4419 2453 
L 4056 2766 
z
M 1075 3509 
L 1438 3803 
Q 1900 3347 2313 2828 
L 1900 2484 
Q 1581 2922 1075 3509 
z
" transform="scale(0.015625)"/>
      <path id="MicrosoftYaHei-6e90" d="M 2931 3741 
L 3744 3741 
Q 3878 4094 4006 4478 
L 2425 4478 
L 2425 2678 
Q 2425 222 1463 -841 
Q 1313 -647 1100 -453 
Q 1963 509 1963 2672 
L 1963 4903 
L 6300 4903 
L 6300 4478 
L 4547 4478 
Q 4375 4103 4194 3741 
L 5844 3741 
L 5844 1178 
L 5394 1178 
L 5394 1341 
L 4588 1341 
L 4588 -128 
Q 4588 -797 3938 -797 
Q 3725 -797 3394 -791 
Q 3363 -603 3306 -359 
Q 3619 -384 3850 -384 
Q 4138 -384 4138 -84 
L 4138 1341 
L 3381 1341 
L 3381 1178 
L 2931 1178 
L 2931 3741 
z
M 831 1878 
Q 1056 1734 1275 1666 
Q 1019 603 700 -766 
L 219 -603 
Q 581 678 831 1878 
z
M 3381 1753 
L 5394 1753 
L 5394 2347 
L 3381 2347 
L 3381 1753 
z
M 5394 3328 
L 3381 3328 
L 3381 2747 
L 5394 2747 
L 5394 3328 
z
M 6288 -241 
L 5894 -541 
Q 5450 128 4931 759 
L 5294 1016 
Q 5863 353 6288 -241 
z
M 2363 -297 
Q 2894 272 3306 984 
L 3706 741 
Q 3231 -16 2731 -584 
L 2363 -297 
z
M 400 3622 
Q 888 3272 1500 2784 
Q 1281 2522 1144 2378 
Q 544 2909 88 3266 
L 400 3622 
z
M 669 5228 
Q 1163 4859 1688 4384 
Q 1469 4172 1313 4003 
Q 769 4541 350 4884 
L 669 5228 
z
" transform="scale(0.015625)"/>
      <path id="MicrosoftYaHei-ff1a" d="M 1606 3531 
Q 1772 3531 1890 3415 
Q 2009 3300 2009 3138 
Q 2009 2975 1893 2858 
Q 1778 2741 1606 2741 
Q 1434 2741 1318 2858 
Q 1203 2975 1203 3138 
Q 1203 3300 1322 3415 
Q 1441 3531 1606 3531 
z
M 1606 716 
Q 1772 716 1890 600 
Q 2009 484 2009 319 
Q 2009 150 1890 36 
Q 1772 -78 1606 -78 
Q 1441 -78 1322 36 
Q 1203 150 1203 319 
Q 1203 484 1322 600 
Q 1441 716 1606 716 
z
" transform="scale(0.015625)"/>
      <path id="MicrosoftYaHei-49" d="M 1250 4841 
L 1250 0 
L 625 0 
L 625 4841 
L 1250 4841 
z
" transform="scale(0.015625)"/>
      <path id="MicrosoftYaHei-44" d="M 625 0 
L 625 4841 
L 2006 4841 
Q 3106 4841 3836 4200 
Q 4566 3559 4566 2481 
Q 4566 1356 3836 678 
Q 3106 0 1956 0 
L 625 0 
z
M 1250 4284 
L 1250 553 
L 1953 553 
Q 2875 553 3392 1056 
Q 3909 1559 3909 2466 
Q 3909 3372 3378 3828 
Q 2847 4284 1981 4284 
L 1250 4284 
z
" transform="scale(0.015625)"/>
      <path id="MicrosoftYaHei-43" d="M 3938 200 
Q 3403 -81 2597 -81 
Q 1556 -81 934 580 
Q 313 1241 313 2328 
Q 313 3497 1013 4209 
Q 1713 4922 2791 4922 
Q 3484 4922 3938 4725 
L 3938 4072 
Q 3419 4359 2797 4359 
Q 1988 4359 1478 3820 
Q 969 3281 969 2366 
Q 969 1497 1444 986 
Q 1919 475 2688 475 
Q 3406 475 3938 800 
L 3938 200 
z
" transform="scale(0.015625)"/>
      <path id="MicrosoftYaHei-2c" d="M 1109 778 
L 575 -888 
L 131 -888 
L 519 778 
L 1109 778 
z
" transform="scale(0.015625)"/>
      <path id="MicrosoftYaHei-20" transform="scale(0.015625)"/>
      <path id="MicrosoftYaHei-5de5" d="M 181 97 
L 2919 97 
L 2919 4266 
L 538 4266 
L 538 4766 
L 5863 4766 
L 5863 4266 
L 3469 4266 
L 3469 97 
L 6213 97 
L 6213 -391 
L 181 -391 
L 181 97 
z
" transform="scale(0.015625)"/>
      <path id="MicrosoftYaHei-4fe1" d="M 2300 1434 
L 5856 1434 
L 5856 -853 
L 5375 -853 
L 5375 -478 
L 2781 -478 
L 2781 -853 
L 2300 -853 
L 2300 1434 
z
M 81 2303 
Q 1000 3666 1463 5316 
L 1950 5178 
Q 1678 4338 1356 3628 
L 1356 -853 
L 894 -853 
L 894 2713 
Q 606 2209 288 1791 
Q 188 2053 81 2303 
z
M 5375 1009 
L 2781 1009 
L 2781 -53 
L 5375 -53 
L 5375 1009 
z
M 1888 4472 
L 3928 4472 
Q 3741 4794 3538 5109 
L 3956 5328 
Q 4181 4991 4400 4616 
L 4128 4472 
L 6288 4472 
L 6288 4034 
L 1888 4034 
L 1888 4472 
z
M 2231 3453 
L 5919 3453 
L 5919 3028 
L 2231 3028 
L 2231 3453 
z
M 2231 2447 
L 5919 2447 
L 5919 2022 
L 2231 2022 
L 2231 2447 
z
" transform="scale(0.015625)"/>
      <path id="MicrosoftYaHei-90e8" d="M 6288 1247 
Q 6288 172 5444 84 
Q 5125 47 4594 109 
Q 4563 334 4513 659 
Q 4969 584 5294 584 
Q 5844 584 5794 1341 
Q 5769 2009 4838 2709 
Q 5244 3516 5663 4503 
L 4388 4503 
L 4388 -828 
L 3913 -828 
L 3913 4966 
L 6163 4966 
L 6163 4453 
Q 5919 3822 5406 2816 
Q 6288 2128 6288 1247 
z
M 575 1753 
L 3275 1753 
L 3275 -791 
L 2813 -791 
L 2813 -328 
L 1038 -328 
L 1038 -797 
L 575 -797 
L 575 1753 
z
M 2813 1334 
L 1038 1334 
L 1038 103 
L 2813 103 
L 2813 1334 
z
M 125 2822 
L 2125 2822 
Q 2497 3466 2731 3997 
L 3194 3759 
Q 2922 3284 2616 2822 
L 3706 2822 
L 3706 2403 
L 125 2403 
L 125 2822 
z
M 263 4472 
L 1825 4472 
Q 1703 4753 1456 5159 
L 1888 5359 
Q 2169 4891 2288 4616 
L 1981 4472 
L 3594 4472 
L 3594 4053 
L 263 4053 
L 263 4472 
z
M 681 3728 
L 1063 3959 
Q 1375 3516 1631 3072 
L 1206 2828 
Q 1013 3222 681 3728 
z
" transform="scale(0.015625)"/>
      <path id="MicrosoftYaHei-28" d="M 1531 -1100 
Q 478 100 478 1847 
Q 478 3594 1531 4841 
L 2072 4841 
Q 1016 3544 1016 1853 
Q 1016 166 2066 -1100 
L 1531 -1100 
z
" transform="scale(0.015625)"/>
      <path id="MicrosoftYaHei-29" d="M 78 -1100 
Q 1131 163 1131 1853 
Q 1131 3547 72 4841 
L 616 4841 
Q 1672 3603 1672 1847 
Q 1672 91 616 -1100 
L 78 -1100 
z
" transform="scale(0.015625)"/>
     </defs>
     <use xlink:href="#MicrosoftYaHei-6570"/>
     <use xlink:href="#MicrosoftYaHei-636e" transform="translate(100 0)"/>
     <use xlink:href="#MicrosoftYaHei-6765" transform="translate(200 0)"/>
     <use xlink:href="#MicrosoftYaHei-6e90" transform="translate(300 0)"/>
     <use xlink:href="#MicrosoftYaHei-ff1a" transform="translate(400 0)"/>
     <use xlink:href="#MicrosoftYaHei-49" transform="translate(500 0)"/>
     <use xlink:href="#MicrosoftYaHei-44" transform="translate(529.394531 0)"/>
     <use xlink:href="#MicrosoftYaHei-43" transform="translate(605.566406 0)"/>
     <use xlink:href="#MicrosoftYaHei-2c" transform="translate(672.460938 0)"/>
     <use xlink:href="#MicrosoftYaHei-20" transform="translate(696.533203 0)"/>
     <use xlink:href="#MicrosoftYaHei-5de5" transform="translate(726.123047 0)"/>
     <use xlink:href="#MicrosoftYaHei-4fe1" transform="translate(826.123047 0)"/>
     <use xlink:href="#MicrosoftYaHei-90e8" transform="translate(926.123047 0)"/>
     <use xlink:href="#MicrosoftYaHei-20" transform="translate(1026.123047 0)"/>
     <use xlink:href="#MicrosoftYaHei-28" transform="translate(1055.712891 0)"/>
     <use xlink:href="#MicrosoftYaHei-32" transform="translate(1089.111328 0)"/>
     <use xlink:href="#MicrosoftYaHei-30" transform="translate(1147.753906 0)"/>
     <use xlink:href="#MicrosoftYaHei-32" transform="translate(1206.396484 0)"/>
     <use xlink:href="#MicrosoftYaHei-34" transform="translate(1265.039062 0)"/>
     <use xlink:href="#MicrosoftYaHei-29" transform="translate(1323.681641 0)"/>
    </g>
   </g>
   <g id="legend_1">
    <g id="patch_11">
     <path d="M 46.7 50.147158 
L 66.7 50.147158 
L 66.7 43.147158 
L 46.7 43.147158 
z
" style="fill: #2962ff; opacity: 0.9"/>
    </g>
    <g id="text_31">
     <!-- 智能算力规模 -->
     <g transform="translate(74.7 50.147158) scale(0.1 -0.1)">
      <defs>
       <path id="MicrosoftYaHei-667a" d="M 1131 1984 
L 5319 1984 
L 5319 -853 
L 4856 -853 
L 4856 -572 
L 1594 -572 
L 1594 -853 
L 1131 -853 
L 1131 1984 
z
M 3544 4797 
L 5931 4797 
L 5931 2241 
L 5469 2241 
L 5469 2616 
L 4006 2616 
L 4006 2241 
L 3544 2241 
L 3544 4797 
z
M 200 3666 
L 1588 3666 
Q 1638 3947 1650 4328 
L 1031 4328 
Q 788 3984 456 3684 
Q 338 3859 163 4059 
Q 825 4609 1069 5353 
L 1525 5253 
Q 1425 4978 1288 4728 
L 3156 4728 
L 3156 4328 
L 2119 4328 
Q 2100 3959 2063 3666 
L 3344 3666 
L 3344 3266 
L 1981 3266 
Q 1963 3203 1944 3147 
Q 2569 2841 3300 2397 
L 3013 2028 
Q 2375 2472 1769 2784 
Q 1344 2122 350 1709 
Q 231 1903 63 2128 
Q 1181 2541 1481 3266 
L 200 3266 
L 200 3666 
z
M 4856 1584 
L 1594 1584 
L 1594 897 
L 4856 897 
L 4856 1584 
z
M 1594 -172 
L 4856 -172 
L 4856 509 
L 1594 509 
L 1594 -172 
z
M 5469 4397 
L 4006 4397 
L 4006 3016 
L 5469 3016 
L 5469 4397 
z
" transform="scale(0.015625)"/>
       <path id="MicrosoftYaHei-80fd" d="M 950 -759 
L 463 -759 
L 463 2928 
L 3000 2928 
L 3000 -28 
Q 3000 -703 2375 -703 
Q 2100 -709 1669 -709 
Q 1638 -516 1575 -234 
Q 1969 -266 2206 -266 
Q 2513 -266 2513 53 
L 2513 572 
L 950 572 
L 950 -759 
z
M 3606 2253 
L 4094 2253 
L 4094 1222 
Q 4981 1553 5950 2091 
L 6231 1659 
Q 5209 1122 4094 706 
L 4094 166 
Q 4094 -228 4400 -228 
L 5319 -228 
Q 5638 -228 5688 78 
Q 5731 353 5763 897 
Q 6000 803 6250 722 
Q 6200 172 6144 -109 
Q 6063 -659 5363 -659 
L 4319 -659 
Q 3606 -659 3606 72 
L 3606 2253 
z
M 3619 5303 
L 4106 5303 
L 4106 4231 
Q 4966 4572 5813 5053 
L 6094 4622 
Q 5119 4128 4106 3719 
L 4106 3359 
Q 4106 2941 4438 2941 
L 5231 2941 
Q 5625 2941 5675 3266 
Q 5719 3534 5750 4047 
Q 5988 3953 6238 3866 
Q 6188 3366 6131 3053 
Q 6038 2509 5288 2509 
L 4375 2509 
Q 3619 2509 3619 3259 
L 3619 5303 
z
M 2463 4772 
Q 3031 4034 3450 3353 
Q 3213 3191 3019 3066 
Q 2897 3281 2759 3506 
Q 1231 3394 313 3303 
L 113 3828 
Q 388 3978 719 4391 
Q 1063 4841 1394 5397 
L 1888 5216 
Q 1369 4466 794 3797 
Q 1731 3856 2497 3919 
Q 2300 4216 2075 4528 
L 2463 4772 
z
M 950 947 
L 2513 947 
L 2513 1553 
L 950 1553 
L 950 947 
z
M 2513 2528 
L 950 2528 
L 950 1928 
L 2513 1928 
L 2513 2528 
z
" transform="scale(0.015625)"/>
       <path id="MicrosoftYaHei-7b97" d="M 969 3728 
L 2006 3728 
Q 1775 4016 1544 4266 
L 1769 4428 
L 1244 4428 
Q 875 3963 400 3566 
Q 263 3722 88 3884 
Q 856 4484 1300 5347 
L 1831 5347 
Q 1684 5059 1506 4791 
L 3325 4791 
L 3325 4428 
L 1919 4428 
Q 2144 4200 2369 3953 
L 2072 3728 
L 4953 3728 
Q 4716 4003 4425 4266 
L 4641 4428 
L 4019 4428 
Q 3772 4050 3506 3753 
Q 3344 3897 3125 4047 
Q 3656 4603 4000 5347 
L 4538 5347 
Q 4394 5053 4244 4791 
L 6225 4791 
L 6225 4428 
L 4800 4428 
Q 5069 4206 5294 3972 
L 4991 3728 
L 5475 3728 
L 5475 916 
L 5038 916 
L 5038 1122 
L 1406 1122 
L 1406 916 
L 969 916 
L 969 3728 
z
M 150 609 
L 1850 609 
Q 1875 788 1875 1003 
L 2331 1003 
Q 2331 794 2309 609 
L 4356 609 
L 4356 997 
L 4819 997 
L 4819 609 
L 6300 609 
L 6300 222 
L 4819 222 
L 4819 -828 
L 4356 -828 
L 4356 222 
L 2244 222 
Q 2019 -619 763 -884 
Q 644 -691 488 -472 
Q 1525 -297 1756 222 
L 150 222 
L 150 609 
z
M 5038 3378 
L 1406 3378 
L 1406 2959 
L 5038 2959 
L 5038 3378 
z
M 1406 1472 
L 5038 1472 
L 5038 1891 
L 1406 1891 
L 1406 1472 
z
M 1406 2216 
L 5038 2216 
L 5038 2634 
L 1406 2634 
L 1406 2216 
z
" transform="scale(0.015625)"/>
       <path id="MicrosoftYaHei-529b" d="M 400 3916 
L 2425 3916 
Q 2444 4603 2450 5316 
L 2994 5316 
Q 2981 4653 2963 3916 
L 5831 3916 
Q 5756 1472 5688 459 
Q 5606 -616 4538 -628 
Q 4025 -628 3300 -603 
Q 3275 -359 3206 -9 
L 3225 -9 
Q 4038 -84 4488 -78 
Q 5094 -66 5156 591 
Q 5231 1709 5269 3403 
L 2950 3403 
Q 2894 1775 2431 953 
Q 1938 41 506 -803 
Q 331 -578 131 -328 
Q 1488 434 1913 1209 
Q 2353 1913 2406 3403 
L 400 3403 
L 400 3916 
z
" transform="scale(0.015625)"/>
       <path id="MicrosoftYaHei-89c4" d="M 4006 4047 
L 4469 4047 
L 4469 3116 
Q 4469 2272 4344 1653 
L 4756 1653 
L 4756 109 
Q 4756 -253 5100 -253 
L 5406 -253 
Q 5719 -253 5756 66 
Q 5800 428 5819 903 
Q 6113 778 6313 709 
Q 6269 266 6219 -84 
Q 6119 -691 5494 -691 
L 4975 -691 
Q 4300 -691 4300 34 
L 4300 1459 
Q 4019 234 2581 -878 
Q 2331 -597 2200 -478 
Q 3313 334 3669 1109 
Q 4006 1778 4006 3122 
L 4006 4047 
z
M 138 2559 
L 1100 2559 
Q 1113 2859 1113 3678 
L 219 3678 
L 219 4103 
L 1113 4103 
L 1113 5266 
L 1581 5266 
L 1581 4103 
L 2481 4103 
L 2481 3678 
L 1581 3678 
Q 1581 3216 1569 2559 
L 2581 2559 
L 2581 2134 
L 1544 2134 
Q 1538 1934 1513 1728 
Q 2106 1178 2788 491 
L 2400 128 
Q 1938 709 1431 1241 
Q 1144 59 394 -822 
Q 281 -653 94 -384 
Q 1038 791 1075 2134 
L 138 2134 
L 138 2559 
z
M 2763 5003 
L 5794 5003 
L 5794 1259 
L 5331 1259 
L 5331 4559 
L 3225 4559 
L 3225 1172 
L 2763 1172 
L 2763 5003 
z
" transform="scale(0.015625)"/>
       <path id="MicrosoftYaHei-6a21" d="M 2050 984 
L 3859 984 
Q 3900 1213 3913 1547 
L 2950 1547 
L 2950 1372 
L 2500 1372 
L 2500 3634 
L 5844 3634 
L 5844 1372 
L 5394 1372 
L 5394 1547 
L 4344 1547 
Q 4325 1203 4288 984 
L 6250 984 
L 6250 584 
L 4525 584 
Q 5203 -175 6319 -341 
Q 6144 -572 6013 -809 
Q 4803 -456 4128 466 
Q 3681 -431 2075 -847 
Q 1969 -628 1831 -416 
Q 3303 -106 3713 584 
L 2050 584 
L 2050 984 
z
M 63 1409 
Q 603 2316 922 3509 
L 138 3509 
L 138 3922 
L 1006 3922 
L 1006 5309 
L 1444 5309 
L 1444 3922 
L 2256 3922 
L 2256 3509 
L 1444 3509 
L 1444 2684 
L 1688 2884 
Q 2044 2503 2350 2116 
L 2006 1828 
Q 1719 2244 1444 2563 
L 1444 -822 
L 1006 -822 
L 1006 2581 
Q 672 1438 275 859 
Q 188 1128 63 1409 
z
M 4713 5303 
L 5150 5303 
L 5150 4703 
L 6225 4703 
L 6225 4303 
L 5150 4303 
L 5150 3797 
L 4713 3797 
L 4713 4303 
L 3600 4303 
L 3600 3797 
L 3163 3797 
L 3163 4303 
L 2175 4303 
L 2175 4703 
L 3163 4703 
L 3163 5309 
L 3600 5309 
L 3600 4703 
L 4713 4703 
L 4713 5303 
z
M 5394 3247 
L 2950 3247 
L 2950 2778 
L 5394 2778 
L 5394 3247 
z
M 2950 1934 
L 5394 1934 
L 5394 2403 
L 2950 2403 
L 2950 1934 
z
" transform="scale(0.015625)"/>
      </defs>
      <use xlink:href="#MicrosoftYaHei-667a"/>
      <use xlink:href="#MicrosoftYaHei-80fd" transform="translate(100 0)"/>
      <use xlink:href="#MicrosoftYaHei-7b97" transform="translate(200 0)"/>
      <use xlink:href="#MicrosoftYaHei-529b" transform="translate(300 0)"/>
      <use xlink:href="#MicrosoftYaHei-89c4" transform="translate(400 0)"/>
      <use xlink:href="#MicrosoftYaHei-6a21" transform="translate(500 0)"/>
     </g>
    </g>
    <g id="line2d_23">
     <path d="M 46.7 62.126846 
L 56.7 62.126846 
L 66.7 62.126846 
" style="fill: none; stroke: #ff6d00; stroke-width: 3; stroke-linecap: square"/>
     <defs>
      <path id="meb74fa9466" d="M 0 3 
C 0.795609 3 1.55874 2.683901 2.12132 2.12132 
C 2.683901 1.55874 3 0.795609 3 0 
C 3 -0.795609 2.683901 -1.55874 2.12132 -2.12132 
C 1.55874 -2.683901 0.795609 -3 0 -3 
C -0.795609 -3 -1.55874 -2.683901 -2.12132 -2.12132 
C -2.683901 -1.55874 -3 -0.795609 -3 0 
C -3 0.795609 -2.683901 1.55874 -2.12132 2.12132 
C -1.55874 2.683901 -0.795609 3 0 3 
z
" style="stroke: #ff6d00; stroke-width: 2.5"/>
     </defs>
     <g>
      <use xlink:href="#meb74fa9466" x="56.7" y="62.126846" style="fill: #ffffff; stroke: #ff6d00; stroke-width: 2.5"/>
     </g>
    </g>
    <g id="text_32">
     <!-- 同比增长率 -->
     <g transform="translate(74.7 65.626846) scale(0.1 -0.1)">
      <defs>
       <path id="MicrosoftYaHei-540c" d="M 1013 -772 
L 531 -772 
L 531 4959 
L 5856 4959 
L 5856 -47 
Q 5856 -741 5125 -741 
Q 4669 -741 4088 -716 
Q 4056 -497 4000 -216 
Q 4619 -272 5025 -272 
Q 5375 -272 5375 78 
L 5375 4497 
L 1013 4497 
L 1013 -772 
z
M 1875 2566 
L 4506 2566 
L 4506 597 
L 2338 597 
L 2338 272 
L 1875 272 
L 1875 2566 
z
M 4044 2116 
L 2338 2116 
L 2338 1047 
L 4044 1047 
L 4044 2116 
z
M 1363 3734 
L 5025 3734 
L 5025 3284 
L 1363 3284 
L 1363 3734 
z
" transform="scale(0.015625)"/>
       <path id="MicrosoftYaHei-6bd4" d="M 3225 5316 
L 3744 5316 
L 3744 2672 
Q 4959 3550 5744 4509 
L 6188 4178 
Q 5175 3063 3744 2056 
L 3744 247 
Q 3744 -166 4106 -166 
L 5175 -166 
Q 5588 -166 5650 203 
Q 5725 678 5763 1247 
Q 6025 1147 6300 1066 
Q 6244 484 6150 22 
Q 6019 -622 5319 -622 
L 3944 -622 
Q 3225 -622 3225 159 
L 3225 5316 
z
M 1063 5153 
L 1063 3278 
L 2825 3278 
L 2825 2809 
L 1063 2809 
L 1063 153 
Q 1713 428 2763 928 
Q 2763 634 2788 366 
Q 1869 -3 1231 -328 
Q 956 -472 725 -672 
L 344 -184 
Q 544 -34 544 272 
L 544 5153 
L 1063 5153 
z
" transform="scale(0.015625)"/>
       <path id="MicrosoftYaHei-589e" d="M 2188 4459 
L 3259 4459 
Q 3041 4781 2775 5116 
L 3131 5366 
Q 3456 4991 3694 4666 
L 3403 4459 
L 4453 4459 
Q 4759 4888 5050 5372 
L 5500 5116 
Q 5234 4772 4978 4459 
L 6038 4459 
L 6038 2122 
L 5600 2122 
L 5600 2309 
L 2625 2309 
L 2625 2122 
L 2188 2122 
L 2188 4459 
z
M 2438 1797 
L 5788 1797 
L 5788 -847 
L 5338 -847 
L 5338 -547 
L 2888 -547 
L 2888 -847 
L 2438 -847 
L 2438 1797 
z
M 81 428 
Q 466 538 894 672 
L 894 3253 
L 144 3253 
L 144 3697 
L 894 3697 
L 894 5259 
L 1356 5259 
L 1356 3697 
L 2000 3697 
L 2000 3253 
L 1356 3253 
L 1356 819 
Q 1709 931 2094 1059 
Q 2106 759 2125 553 
Q 1306 316 250 -53 
L 81 428 
z
M 5600 4084 
L 4325 4084 
L 4325 2684 
L 5600 2684 
L 5600 4084 
z
M 2625 2684 
L 3894 2684 
L 3894 4084 
L 2625 4084 
L 2625 2684 
z
M 5338 1409 
L 2888 1409 
L 2888 809 
L 5338 809 
L 5338 1409 
z
M 2888 -159 
L 5338 -159 
L 5338 434 
L 2888 434 
L 2888 -159 
z
M 5350 3609 
Q 5006 3066 4856 2884 
L 4519 3084 
Q 4744 3391 4981 3828 
L 5350 3609 
z
M 2863 3597 
L 3181 3803 
Q 3463 3441 3669 3122 
L 3319 2897 
Q 3119 3228 2863 3597 
z
" transform="scale(0.015625)"/>
       <path id="MicrosoftYaHei-957f" d="M 169 2766 
L 1269 2766 
L 1269 5316 
L 1781 5316 
L 1781 2766 
L 6194 2766 
L 6194 2278 
L 3456 2278 
Q 4238 566 6325 -78 
Q 6113 -359 5944 -591 
Q 3697 266 2925 2278 
L 1781 2278 
L 1781 16 
Q 2494 303 3294 678 
Q 3294 384 3319 116 
Q 2575 -191 1894 -528 
Q 1644 -666 1431 -834 
L 1056 -353 
Q 1269 -184 1269 103 
L 1269 2278 
L 169 2278 
L 169 2766 
z
M 2156 3528 
Q 3706 4047 5138 5109 
L 5463 4703 
Q 4000 3634 2400 3066 
Q 2300 3278 2156 3528 
z
" transform="scale(0.015625)"/>
       <path id="MicrosoftYaHei-7387" d="M 2525 2009 
Q 2622 2016 3928 2081 
Q 3772 2300 3625 2491 
L 3963 2703 
Q 4413 2203 4794 1653 
L 4394 1403 
Q 4284 1569 4178 1725 
Q 2991 1659 2213 1597 
Q 2075 1584 1881 1541 
L 1725 1966 
Q 1913 2028 2006 2084 
Q 2534 2441 3050 2913 
Q 2597 2894 2275 2866 
Q 2144 2847 1988 2809 
L 1800 3191 
Q 1956 3247 2088 3366 
Q 2509 3722 2875 4228 
L 231 4228 
L 231 4666 
L 3031 4666 
Q 2878 4944 2744 5153 
L 3194 5372 
Q 3438 5000 3616 4666 
L 6175 4666 
L 6175 4228 
L 3053 4228 
L 3350 4072 
Q 2844 3553 2494 3247 
Q 2850 3256 3425 3269 
Q 3675 3519 3925 3797 
L 4356 3547 
Q 3363 2603 2525 2009 
z
M 144 991 
L 2994 991 
L 2994 1541 
L 3488 1541 
L 3488 991 
L 6275 991 
L 6275 553 
L 3488 553 
L 3488 -853 
L 2994 -853 
L 2994 553 
L 144 553 
L 144 991 
z
M 1719 2672 
L 1944 2303 
Q 1200 1866 425 1409 
L 163 1828 
Q 813 2134 1719 2672 
z
M 4856 2678 
Q 5750 2172 6250 1816 
L 5975 1409 
Q 5331 1909 4600 2341 
L 4856 2678 
z
M 5994 3591 
Q 5519 3178 4963 2809 
L 4644 3141 
Q 5244 3534 5638 3928 
L 5994 3591 
z
M 363 3634 
L 681 3941 
Q 1200 3528 1588 3159 
L 1238 2816 
Q 875 3197 363 3634 
z
" transform="scale(0.015625)"/>
      </defs>
      <use xlink:href="#MicrosoftYaHei-540c"/>
      <use xlink:href="#MicrosoftYaHei-6bd4" transform="translate(100 0)"/>
      <use xlink:href="#MicrosoftYaHei-589e" transform="translate(200 0)"/>
      <use xlink:href="#MicrosoftYaHei-957f" transform="translate(300 0)"/>
      <use xlink:href="#MicrosoftYaHei-7387" transform="translate(400 0)"/>
     </g>
    </g>
   </g>
  </g>
 </g>
 <defs>
  <clipPath id="p3ef601109e">
   <rect x="37.7" y="26.0928" width="650.45" height="353.0304"/>
  </clipPath>
 </defs>
</svg>
