<?xml version="1.0" encoding="utf-8" ?>
<svg baseProfile="tiny" height="500" version="1.2" width="1200" xmlns="http://www.w3.org/2000/svg" xmlns:ev="http://www.w3.org/2001/xml-events" xmlns:xlink="http://www.w3.org/1999/xlink"><defs /><rect fill="#fff" height="500" width="1200" x="0" y="0" /><rect fill="#1F4E78" height="60" width="1100" x="50" y="20" /><text fill="#fff" font-family="Microsoft YaHei, SimHei, sans-serif" font-size="28" font-weight="bold" text-anchor="middle" x="600" y="58">算力产业链</text><text fill="#000" font-family="Microsoft YaHei, SimHei, sans-serif" font-size="18" font-weight="bold" text-anchor="middle" x="175" y="105">上游：
算力基础软硬件</text><line stroke="#1F4E78" stroke-width="3" x1="50" x2="300" y1="130" y2="130" /><path d="M 50 130 L 60 125 L 60 135 Z" fill="#1F4E78" /><path d="M 300 130 L 290 125 L 290 135 Z" fill="#1F4E78" /><text fill="#000" font-family="Microsoft YaHei, SimHei, sans-serif" font-size="18" font-weight="bold" text-anchor="middle" x="600" y="105">中游：
算力网络与平台</text><line stroke="#1F4E78" stroke-width="3" x1="300" x2="900" y1="130" y2="130" /><path d="M 900 130 L 890 125 L 890 135 Z" fill="#1F4E78" /><text fill="#000" font-family="Microsoft YaHei, SimHei, sans-serif" font-size="18" font-weight="bold" text-anchor="middle" x="1025" y="105">下游：
算力使用者</text><line stroke="#1F4E78" stroke-width="3" x1="900" x2="1150" y1="130" y2="130" /><path d="M 1150 130 L 1140 125 L 1140 135 Z" fill="#1F4E78" /><line stroke="#D9D9D9" stroke-dasharray="5,5" stroke-width="1" x1="300" x2="300" y1="20" y2="450" /><line stroke="#D9D9D9" stroke-dasharray="5,5" stroke-width="1" x1="900" x2="900" y1="20" y2="450" /><rect fill="#2F5597" height="40" width="120" x="50" y="160" /><text fill="#fff" font-family="Microsoft YaHei, SimHei, sans-serif" font-size="16" font-weight="bold" text-anchor="middle" x="110.0" y="186">芯片</text><rect fill="#2F5597" height="40" width="120" x="50" y="212" /><text fill="#fff" font-family="Microsoft YaHei, SimHei, sans-serif" font-size="16" font-weight="bold" text-anchor="middle" x="110.0" y="238">服务器</text><rect fill="#2F5597" height="40" width="120" x="50" y="264" /><text fill="#fff" font-family="Microsoft YaHei, SimHei, sans-serif" font-size="16" font-weight="bold" text-anchor="middle" x="110.0" y="290">交换机</text><rect fill="#2F5597" height="40" width="120" x="50" y="316" /><text fill="#fff" font-family="Microsoft YaHei, SimHei, sans-serif" font-size="16" font-weight="bold" text-anchor="middle" x="110.0" y="342">光模块</text><rect fill="#2F5597" height="40" width="120" x="50" y="368" /><text fill="#fff" font-family="Microsoft YaHei, SimHei, sans-serif" font-size="16" font-weight="bold" text-anchor="middle" x="110.0" y="394">.......</text><rect fill="#7F7F7F" height="70" rx="10" width="70" x="200" y="230" /><text fill="#fff" font-family="Microsoft YaHei, SimHei, sans-serif" font-size="14" text-anchor="middle" x="235" y="258">加工</text><text fill="#fff" font-family="Microsoft YaHei, SimHei, sans-serif" font-size="14" text-anchor="middle" x="235" y="282">生产</text><line stroke="#2F5597" stroke-dasharray="3,3" stroke-width="1" x1="170" x2="200" y1="180" y2="240" /><line stroke="#2F5597" stroke-dasharray="3,3" stroke-width="1" x1="170" x2="200" y1="370" y2="290" /><polygon fill="#2F5597" points="300,230 420,230 440,265.0 420,300 300,300 320,265.0" stroke="#fff" stroke-width="2" /><text fill="#fff" font-family="Microsoft YaHei, SimHei, sans-serif" font-size="14" text-anchor="middle" x="370.0" y="260.0">数据中心：</text><text fill="#fff" font-family="Microsoft YaHei, SimHei, sans-serif" font-size="14" text-anchor="middle" x="370.0" y="280.0">自用的分布式算力</text><polygon fill="#7F7F7F" points="425,230 545,230 565,265.0 545,300 425,300 445,265.0" stroke="#fff" stroke-width="2" /><text fill="#fff" font-family="Microsoft YaHei, SimHei, sans-serif" font-size="14" text-anchor="middle" x="495.0" y="260.0">网络/</text><text fill="#fff" font-family="Microsoft YaHei, SimHei, sans-serif" font-size="14" text-anchor="middle" x="495.0" y="280.0">算力工程公司</text><polygon fill="#1F4E78" points="550,230 670,230 690,265.0 670,300 550,300 570,265.0" stroke="#fff" stroke-width="2" /><text fill="#fff" font-family="Microsoft YaHei, SimHei, sans-serif" font-size="14" text-anchor="middle" x="620.0" y="260.0">一体化算力网</text><text fill="#fff" font-family="Microsoft YaHei, SimHei, sans-serif" font-size="14" text-anchor="middle" x="620.0" y="280.0">络调度平台</text><polygon fill="#7F7F7F" points="675,230 795,230 815,265.0 795,300 675,300 695,265.0" stroke="#fff" stroke-width="2" /><text fill="#fff" font-family="Microsoft YaHei, SimHei, sans-serif" font-size="14" text-anchor="middle" x="745.0" y="260.0">区域/全国性</text><text fill="#fff" font-family="Microsoft YaHei, SimHei, sans-serif" font-size="14" text-anchor="middle" x="745.0" y="280.0">算力交易市场</text><polygon fill="#1F4E78" points="800,230 920,230 940,265.0 920,300 800,300 820,265.0" stroke="#fff" stroke-width="2" /><text fill="#fff" font-family="Microsoft YaHei, SimHei, sans-serif" font-size="14" text-anchor="middle" x="870.0" y="260.0">算力服</text><text fill="#fff" font-family="Microsoft YaHei, SimHei, sans-serif" font-size="14" text-anchor="middle" x="870.0" y="280.0">务企业</text><polygon fill="#7F7F7F" points="925,230 1045,230 1065,265.0 1045,300 925,300 945,265.0" stroke="#fff" stroke-width="2" /><text fill="#fff" font-family="Microsoft YaHei, SimHei, sans-serif" font-size="14" text-anchor="middle" x="995.0" y="260.0">终端</text><text fill="#fff" font-family="Microsoft YaHei, SimHei, sans-serif" font-size="14" text-anchor="middle" x="995.0" y="280.0">用户</text><rect fill="#E2F0D9" height="40" rx="5" width="350" x="50" y="400" /><text fill="#000" font-family="Microsoft YaHei, SimHei, sans-serif" font-size="16" font-weight="bold" text-anchor="middle" x="225" y="425">算力生产</text><rect fill="#E2F0D9" height="40" rx="5" width="250" x="450" y="370" /><text fill="#000" font-family="Microsoft YaHei, SimHei, sans-serif" font-size="16" font-weight="bold" text-anchor="middle" x="575" y="395">算力调度</text><rect fill="#E2F0D9" height="40" rx="5" width="250" x="750" y="340" /><text fill="#000" font-family="Microsoft YaHei, SimHei, sans-serif" font-size="16" font-weight="bold" text-anchor="middle" x="875" y="365">算力交易</text><rect fill="#E2F0D9" height="40" rx="5" width="130" x="1020" y="310" /><text fill="#000" font-family="Microsoft YaHei, SimHei, sans-serif" font-size="16" font-weight="bold" text-anchor="middle" x="1085" y="335">算力使用</text><path d="M 350 440 Q 420 460 480 420" fill="none" stroke="#548235" stroke-width="3" /><path d="M 480 420 L 472 428 L 468 418 Z" fill="#548235" /><path d="M 680 410 Q 720 430 780 390" fill="none" stroke="#548235" stroke-width="3" /><path d="M 780 390 L 772 398 L 768 388 Z" fill="#548235" /><path d="M 980 380 Q 1020 400 1050 360" fill="none" stroke="#548235" stroke-width="3" /><path d="M 1050 360 L 1042 368 L 1038 358 Z" fill="#548235" /></svg>