<?xml version="1.0" encoding="utf-8" ?>
<svg baseProfile="tiny" height="2350" version="1.2" width="2100" xmlns="http://www.w3.org/2000/svg" xmlns:ev="http://www.w3.org/2001/xml-events" xmlns:xlink="http://www.w3.org/1999/xlink"><defs /><rect fill="#f8f9fa" height="2350" width="2100" x="0" y="0" /><rect fill="#2c3e50" height="60" rx="10" stroke="#fff" stroke-width="2" width="300" x="900.0" y="1145.0" /><text fill="#fff" font-family="Microsoft YaHei, SimHei, sans-serif" font-size="18" font-weight="bold" text-anchor="middle" x="1050.0" y="1183.0">数据中心基础设施全景 (Data Center Infrastructure)</text><path d="M 900.0 1175.0 C 850.0 1175.0 870.0 507.5 820.0 507.5" fill="none" stroke="#bdc3c7" stroke-width="2" /><path d="M 600.0 507.5 C 560.0 507.5 560.0 205.0 520.0 205.0" fill="none" stroke="#bdc3c7" stroke-width="1.5" /><path d="M 80.0 205.0 C 40.0 205.0 40.0 122.5 0.0 122.5" fill="none" stroke="#bdc3c7" stroke-width="1.5" /><rect fill="#fff" height="40" rx="5" stroke="#bdc3c7" stroke-width="1" width="220" x="-440.0" y="102.5" /><text fill="#333" font-family="Microsoft YaHei, SimHei, sans-serif" font-size="13" x="-430.0" y="127.5">机架式服务器（1U/2U/4U）</text><path d="M 80.0 205.0 C 40.0 205.0 40.0 177.5 0.0 177.5" fill="none" stroke="#bdc3c7" stroke-width="1.5" /><rect fill="#fff" height="40" rx="5" stroke="#bdc3c7" stroke-width="1" width="220" x="-440.0" y="157.5" /><text fill="#333" font-family="Microsoft YaHei, SimHei, sans-serif" font-size="13" x="-430.0" y="182.5">GPU服务器（AI训练/推理）</text><path d="M 80.0 205.0 C 40.0 205.0 40.0 232.5 0.0 232.5" fill="none" stroke="#bdc3c7" stroke-width="1.5" /><rect fill="#fff" height="40" rx="5" stroke="#bdc3c7" stroke-width="1" width="220" x="-440.0" y="212.5" /><text fill="#333" font-family="Microsoft YaHei, SimHei, sans-serif" font-size="13" x="-430.0" y="237.5">边缘服务器</text><path d="M 80.0 205.0 C 40.0 205.0 40.0 287.5 0.0 287.5" fill="none" stroke="#bdc3c7" stroke-width="1.5" /><rect fill="#fff" height="40" rx="5" stroke="#bdc3c7" stroke-width="1" width="220" x="-440.0" y="267.5" /><text fill="#333" font-family="Microsoft YaHei, SimHei, sans-serif" font-size="13" x="-430.0" y="292.5">高密度服务器（刀片式）</text><rect fill="#3498db" height="40" rx="5" stroke="#3498db" stroke-width="1" width="220" x="80.0" y="185.0" /><text fill="#fff" font-family="Microsoft YaHei, SimHei, sans-serif" font-size="13" x="90.0" y="210.0">1.1 服务器整机</text><path d="M 600.0 507.5 C 560.0 507.5 560.0 617.5 520.0 617.5" fill="none" stroke="#bdc3c7" stroke-width="1.5" /><path d="M 80.0 617.5 C 40.0 617.5 40.0 342.5 0.0 342.5" fill="none" stroke="#bdc3c7" stroke-width="1.5" /><rect fill="#fff" height="40" rx="5" stroke="#bdc3c7" stroke-width="1" width="220" x="-440.0" y="322.5" /><text fill="#333" font-family="Microsoft YaHei, SimHei, sans-serif" font-size="13" x="-430.0" y="347.5">CPU（x86/ARM）</text><path d="M 80.0 617.5 C 40.0 617.5 40.0 397.5 0.0 397.5" fill="none" stroke="#bdc3c7" stroke-width="1.5" /><rect fill="#fff" height="40" rx="5" stroke="#bdc3c7" stroke-width="1" width="220" x="-440.0" y="377.5" /><text fill="#333" font-family="Microsoft YaHei, SimHei, sans-serif" font-size="13" x="-430.0" y="402.5">GPU/AI加速卡（NVIDIA/昇腾）</text><path d="M 80.0 617.5 C 40.0 617.5 40.0 452.5 0.0 452.5" fill="none" stroke="#bdc3c7" stroke-width="1.5" /><rect fill="#fff" height="40" rx="5" stroke="#bdc3c7" stroke-width="1" width="220" x="-440.0" y="432.5" /><text fill="#333" font-family="Microsoft YaHei, SimHei, sans-serif" font-size="13" x="-430.0" y="457.5">主板（Motherboard）</text><path d="M 80.0 617.5 C 40.0 617.5 40.0 507.5 0.0 507.5" fill="none" stroke="#bdc3c7" stroke-width="1.5" /><rect fill="#fff" height="40" rx="5" stroke="#bdc3c7" stroke-width="1" width="220" x="-440.0" y="487.5" /><text fill="#333" font-family="Microsoft YaHei, SimHei, sans-serif" font-size="13" x="-430.0" y="512.5">内存（DDR4/DDR5）</text><path d="M 80.0 617.5 C 40.0 617.5 40.0 562.5 0.0 562.5" fill="none" stroke="#bdc3c7" stroke-width="1.5" /><rect fill="#fff" height="40" rx="5" stroke="#bdc3c7" stroke-width="1" width="220" x="-440.0" y="542.5" /><text fill="#333" font-family="Microsoft YaHei, SimHei, sans-serif" font-size="13" x="-430.0" y="567.5">存储（SSD/HDD/NVMe）</text><path d="M 80.0 617.5 C 40.0 617.5 40.0 617.5 0.0 617.5" fill="none" stroke="#bdc3c7" stroke-width="1.5" /><rect fill="#fff" height="40" rx="5" stroke="#bdc3c7" stroke-width="1" width="220" x="-440.0" y="597.5" /><text fill="#333" font-family="Microsoft YaHei, SimHei, sans-serif" font-size="13" x="-430.0" y="622.5">RAID卡</text><path d="M 80.0 617.5 C 40.0 617.5 40.0 672.5 0.0 672.5" fill="none" stroke="#bdc3c7" stroke-width="1.5" /><rect fill="#fff" height="40" rx="5" stroke="#bdc3c7" stroke-width="1" width="220" x="-440.0" y="652.5" /><text fill="#333" font-family="Microsoft YaHei, SimHei, sans-serif" font-size="13" x="-430.0" y="677.5">网卡（NIC：10G/25G/100G）</text><path d="M 80.0 617.5 C 40.0 617.5 40.0 727.5 0.0 727.5" fill="none" stroke="#bdc3c7" stroke-width="1.5" /><rect fill="#fff" height="40" rx="5" stroke="#bdc3c7" stroke-width="1" width="220" x="-440.0" y="707.5" /><text fill="#333" font-family="Microsoft YaHei, SimHei, sans-serif" font-size="13" x="-430.0" y="732.5">BMC管理芯片</text><path d="M 80.0 617.5 C 40.0 617.5 40.0 782.5 0.0 782.5" fill="none" stroke="#bdc3c7" stroke-width="1.5" /><rect fill="#fff" height="40" rx="5" stroke="#bdc3c7" stroke-width="1" width="220" x="-440.0" y="762.5" /><text fill="#333" font-family="Microsoft YaHei, SimHei, sans-serif" font-size="13" x="-430.0" y="787.5">电源模块（PSU）</text><path d="M 80.0 617.5 C 40.0 617.5 40.0 837.5 0.0 837.5" fill="none" stroke="#bdc3c7" stroke-width="1.5" /><rect fill="#fff" height="40" rx="5" stroke="#bdc3c7" stroke-width="1" width="220" x="-440.0" y="817.5" /><text fill="#333" font-family="Microsoft YaHei, SimHei, sans-serif" font-size="13" x="-430.0" y="842.5">风扇模块</text><path d="M 80.0 617.5 C 40.0 617.5 40.0 892.5 0.0 892.5" fill="none" stroke="#bdc3c7" stroke-width="1.5" /><rect fill="#fff" height="40" rx="5" stroke="#bdc3c7" stroke-width="1" width="220" x="-440.0" y="872.5" /><text fill="#333" font-family="Microsoft YaHei, SimHei, sans-serif" font-size="13" x="-430.0" y="897.5">散热片/导热组件</text><rect fill="#3498db" height="40" rx="5" stroke="#3498db" stroke-width="1" width="220" x="80.0" y="597.5" /><text fill="#fff" font-family="Microsoft YaHei, SimHei, sans-serif" font-size="13" x="90.0" y="622.5">1.2 服务器核心部件</text><rect fill="#2980b9" height="40" rx="5" stroke="#2980b9" stroke-width="1" width="220" x="600.0" y="487.5" /><text fill="#fff" font-family="Microsoft YaHei, SimHei, sans-serif" font-size="13" x="610.0" y="512.5">一、计算设备 (Compute)</text><path d="M 900.0 1175.0 C 850.0 1175.0 870.0 1250.0 820.0 1250.0" fill="none" stroke="#bdc3c7" stroke-width="2" /><path d="M 600.0 1250.0 C 560.0 1250.0 560.0 1057.5 520.0 1057.5" fill="none" stroke="#bdc3c7" stroke-width="1.5" /><path d="M 80.0 1057.5 C 40.0 1057.5 40.0 947.5 0.0 947.5" fill="none" stroke="#bdc3c7" stroke-width="1.5" /><rect fill="#fff" height="40" rx="5" stroke="#bdc3c7" stroke-width="1" width="220" x="-440.0" y="927.5" /><text fill="#333" font-family="Microsoft YaHei, SimHei, sans-serif" font-size="13" x="-430.0" y="952.5">SAN存储阵列</text><path d="M 80.0 1057.5 C 40.0 1057.5 40.0 1002.5 0.0 1002.5" fill="none" stroke="#bdc3c7" stroke-width="1.5" /><rect fill="#fff" height="40" rx="5" stroke="#bdc3c7" stroke-width="1" width="220" x="-440.0" y="982.5" /><text fill="#333" font-family="Microsoft YaHei, SimHei, sans-serif" font-size="13" x="-430.0" y="1007.5">NAS存储阵列</text><path d="M 80.0 1057.5 C 40.0 1057.5 40.0 1057.5 0.0 1057.5" fill="none" stroke="#bdc3c7" stroke-width="1.5" /><rect fill="#fff" height="40" rx="5" stroke="#bdc3c7" stroke-width="1" width="220" x="-440.0" y="1037.5" /><text fill="#333" font-family="Microsoft YaHei, SimHei, sans-serif" font-size="13" x="-430.0" y="1062.5">分布式存储节点</text><path d="M 80.0 1057.5 C 40.0 1057.5 40.0 1112.5 0.0 1112.5" fill="none" stroke="#bdc3c7" stroke-width="1.5" /><rect fill="#fff" height="40" rx="5" stroke="#bdc3c7" stroke-width="1" width="220" x="-440.0" y="1092.5" /><text fill="#333" font-family="Microsoft YaHei, SimHei, sans-serif" font-size="13" x="-430.0" y="1117.5">对象存储节点</text><path d="M 80.0 1057.5 C 40.0 1057.5 40.0 1167.5 0.0 1167.5" fill="none" stroke="#bdc3c7" stroke-width="1.5" /><rect fill="#fff" height="40" rx="5" stroke="#bdc3c7" stroke-width="1" width="220" x="-440.0" y="1147.5" /><text fill="#333" font-family="Microsoft YaHei, SimHei, sans-serif" font-size="13" x="-430.0" y="1172.5">JBOD/JBOS</text><rect fill="#3498db" height="40" rx="5" stroke="#3498db" stroke-width="1" width="220" x="80.0" y="1037.5" /><text fill="#fff" font-family="Microsoft YaHei, SimHei, sans-serif" font-size="13" x="90.0" y="1062.5">2.1 存储系统</text><path d="M 600.0 1250.0 C 560.0 1250.0 560.0 1387.5 520.0 1387.5" fill="none" stroke="#bdc3c7" stroke-width="1.5" /><path d="M 80.0 1387.5 C 40.0 1387.5 40.0 1222.5 0.0 1222.5" fill="none" stroke="#bdc3c7" stroke-width="1.5" /><rect fill="#fff" height="40" rx="5" stroke="#bdc3c7" stroke-width="1" width="220" x="-440.0" y="1202.5" /><text fill="#333" font-family="Microsoft YaHei, SimHei, sans-serif" font-size="13" x="-430.0" y="1227.5">SSD/HDD</text><path d="M 80.0 1387.5 C 40.0 1387.5 40.0 1277.5 0.0 1277.5" fill="none" stroke="#bdc3c7" stroke-width="1.5" /><rect fill="#fff" height="40" rx="5" stroke="#bdc3c7" stroke-width="1" width="220" x="-440.0" y="1257.5" /><text fill="#333" font-family="Microsoft YaHei, SimHei, sans-serif" font-size="13" x="-430.0" y="1282.5">NVMe盘组</text><path d="M 80.0 1387.5 C 40.0 1387.5 40.0 1332.5 0.0 1332.5" fill="none" stroke="#bdc3c7" stroke-width="1.5" /><rect fill="#fff" height="40" rx="5" stroke="#bdc3c7" stroke-width="1" width="220" x="-440.0" y="1312.5" /><text fill="#333" font-family="Microsoft YaHei, SimHei, sans-serif" font-size="13" x="-430.0" y="1337.5">RAID控制器</text><path d="M 80.0 1387.5 C 40.0 1387.5 40.0 1387.5 0.0 1387.5" fill="none" stroke="#bdc3c7" stroke-width="1.5" /><rect fill="#fff" height="40" rx="5" stroke="#bdc3c7" stroke-width="1" width="220" x="-440.0" y="1367.5" /><text fill="#333" font-family="Microsoft YaHei, SimHei, sans-serif" font-size="13" x="-430.0" y="1392.5">缓存模块（Cache）</text><path d="M 80.0 1387.5 C 40.0 1387.5 40.0 1442.5 0.0 1442.5" fill="none" stroke="#bdc3c7" stroke-width="1.5" /><rect fill="#fff" height="40" rx="5" stroke="#bdc3c7" stroke-width="1" width="220" x="-440.0" y="1422.5" /><text fill="#333" font-family="Microsoft YaHei, SimHei, sans-serif" font-size="13" x="-430.0" y="1447.5">存储背板（Backplane）</text><path d="M 80.0 1387.5 C 40.0 1387.5 40.0 1497.5 0.0 1497.5" fill="none" stroke="#bdc3c7" stroke-width="1.5" /><rect fill="#fff" height="40" rx="5" stroke="#bdc3c7" stroke-width="1" width="220" x="-440.0" y="1477.5" /><text fill="#333" font-family="Microsoft YaHei, SimHei, sans-serif" font-size="13" x="-430.0" y="1502.5">电源模块</text><path d="M 80.0 1387.5 C 40.0 1387.5 40.0 1552.5 0.0 1552.5" fill="none" stroke="#bdc3c7" stroke-width="1.5" /><rect fill="#fff" height="40" rx="5" stroke="#bdc3c7" stroke-width="1" width="220" x="-440.0" y="1532.5" /><text fill="#333" font-family="Microsoft YaHei, SimHei, sans-serif" font-size="13" x="-430.0" y="1557.5">散热风扇</text><rect fill="#3498db" height="40" rx="5" stroke="#3498db" stroke-width="1" width="220" x="80.0" y="1367.5" /><text fill="#fff" font-family="Microsoft YaHei, SimHei, sans-serif" font-size="13" x="90.0" y="1392.5">2.2 存储部件</text><rect fill="#2980b9" height="40" rx="5" stroke="#2980b9" stroke-width="1" width="220" x="600.0" y="1230.0" /><text fill="#fff" font-family="Microsoft YaHei, SimHei, sans-serif" font-size="13" x="610.0" y="1255.0">二、存储设备 (Storage)</text><path d="M 900.0 1175.0 C 850.0 1175.0 870.0 1937.5 820.0 1937.5" fill="none" stroke="#bdc3c7" stroke-width="2" /><path d="M 600.0 1937.5 C 560.0 1937.5 560.0 1827.5 520.0 1827.5" fill="none" stroke="#bdc3c7" stroke-width="1.5" /><path d="M 80.0 1827.5 C 40.0 1827.5 40.0 1607.5 0.0 1607.5" fill="none" stroke="#bdc3c7" stroke-width="1.5" /><rect fill="#fff" height="40" rx="5" stroke="#bdc3c7" stroke-width="1" width="220" x="-440.0" y="1587.5" /><text fill="#333" font-family="Microsoft YaHei, SimHei, sans-serif" font-size="13" x="-430.0" y="1612.5">标准机柜（42U/48U）</text><path d="M 80.0 1827.5 C 40.0 1827.5 40.0 1662.5 0.0 1662.5" fill="none" stroke="#bdc3c7" stroke-width="1.5" /><rect fill="#fff" height="40" rx="5" stroke="#bdc3c7" stroke-width="1" width="220" x="-440.0" y="1642.5" /><text fill="#333" font-family="Microsoft YaHei, SimHei, sans-serif" font-size="13" x="-430.0" y="1667.5">前门（玻璃/穿孔）</text><path d="M 80.0 1827.5 C 40.0 1827.5 40.0 1717.5 0.0 1717.5" fill="none" stroke="#bdc3c7" stroke-width="1.5" /><rect fill="#fff" height="40" rx="5" stroke="#bdc3c7" stroke-width="1" width="220" x="-440.0" y="1697.5" /><text fill="#333" font-family="Microsoft YaHei, SimHei, sans-serif" font-size="13" x="-430.0" y="1722.5">后门（穿孔）</text><path d="M 80.0 1827.5 C 40.0 1827.5 40.0 1772.5 0.0 1772.5" fill="none" stroke="#bdc3c7" stroke-width="1.5" /><rect fill="#fff" height="40" rx="5" stroke="#bdc3c7" stroke-width="1" width="220" x="-440.0" y="1752.5" /><text fill="#333" font-family="Microsoft YaHei, SimHei, sans-serif" font-size="13" x="-430.0" y="1777.5">侧板</text><path d="M 80.0 1827.5 C 40.0 1827.5 40.0 1827.5 0.0 1827.5" fill="none" stroke="#bdc3c7" stroke-width="1.5" /><rect fill="#fff" height="40" rx="5" stroke="#bdc3c7" stroke-width="1" width="220" x="-440.0" y="1807.5" /><text fill="#333" font-family="Microsoft YaHei, SimHei, sans-serif" font-size="13" x="-430.0" y="1832.5">立柱导轨（Rails）</text><path d="M 80.0 1827.5 C 40.0 1827.5 40.0 1882.5 0.0 1882.5" fill="none" stroke="#bdc3c7" stroke-width="1.5" /><rect fill="#fff" height="40" rx="5" stroke="#bdc3c7" stroke-width="1" width="220" x="-440.0" y="1862.5" /><text fill="#333" font-family="Microsoft YaHei, SimHei, sans-serif" font-size="13" x="-430.0" y="1887.5">U位标识条</text><path d="M 80.0 1827.5 C 40.0 1827.5 40.0 1937.5 0.0 1937.5" fill="none" stroke="#bdc3c7" stroke-width="1.5" /><rect fill="#fff" height="40" rx="5" stroke="#bdc3c7" stroke-width="1" width="220" x="-440.0" y="1917.5" /><text fill="#333" font-family="Microsoft YaHei, SimHei, sans-serif" font-size="13" x="-430.0" y="1942.5">滑轨（Rail Kit）</text><path d="M 80.0 1827.5 C 40.0 1827.5 40.0 1992.5 0.0 1992.5" fill="none" stroke="#bdc3c7" stroke-width="1.5" /><rect fill="#fff" height="40" rx="5" stroke="#bdc3c7" stroke-width="1" width="220" x="-440.0" y="1972.5" /><text fill="#333" font-family="Microsoft YaHei, SimHei, sans-serif" font-size="13" x="-430.0" y="1997.5">托盘（Shelf）</text><path d="M 80.0 1827.5 C 40.0 1827.5 40.0 2047.5 0.0 2047.5" fill="none" stroke="#bdc3c7" stroke-width="1.5" /><rect fill="#fff" height="40" rx="5" stroke="#bdc3c7" stroke-width="1" width="220" x="-440.0" y="2027.5" /><text fill="#333" font-family="Microsoft YaHei, SimHei, sans-serif" font-size="13" x="-430.0" y="2052.5">螺丝/笼式螺母</text><rect fill="#3498db" height="40" rx="5" stroke="#3498db" stroke-width="1" width="220" x="80.0" y="1807.5" /><text fill="#fff" font-family="Microsoft YaHei, SimHei, sans-serif" font-size="13" x="90.0" y="1832.5">4.1 机柜结构</text><path d="M 600.0 1937.5 C 560.0 1937.5 560.0 2185.0 520.0 2185.0" fill="none" stroke="#bdc3c7" stroke-width="1.5" /><path d="M 80.0 2185.0 C 40.0 2185.0 40.0 2102.5 0.0 2102.5" fill="none" stroke="#bdc3c7" stroke-width="1.5" /><rect fill="#fff" height="40" rx="5" stroke="#bdc3c7" stroke-width="1" width="220" x="-440.0" y="2082.5" /><text fill="#333" font-family="Microsoft YaHei, SimHei, sans-serif" font-size="13" x="-430.0" y="2107.5">机柜底座</text><path d="M 80.0 2185.0 C 40.0 2185.0 40.0 2157.5 0.0 2157.5" fill="none" stroke="#bdc3c7" stroke-width="1.5" /><rect fill="#fff" height="40" rx="5" stroke="#bdc3c7" stroke-width="1" width="220" x="-440.0" y="2137.5" /><text fill="#333" font-family="Microsoft YaHei, SimHei, sans-serif" font-size="13" x="-430.0" y="2162.5">脚轮/地脚螺栓</text><path d="M 80.0 2185.0 C 40.0 2185.0 40.0 2212.5 0.0 2212.5" fill="none" stroke="#bdc3c7" stroke-width="1.5" /><rect fill="#fff" height="40" rx="5" stroke="#bdc3c7" stroke-width="1" width="220" x="-440.0" y="2192.5" /><text fill="#333" font-family="Microsoft YaHei, SimHei, sans-serif" font-size="13" x="-430.0" y="2217.5">防震组件</text><path d="M 80.0 2185.0 C 40.0 2185.0 40.0 2267.5 0.0 2267.5" fill="none" stroke="#bdc3c7" stroke-width="1.5" /><rect fill="#fff" height="40" rx="5" stroke="#bdc3c7" stroke-width="1" width="220" x="-440.0" y="2247.5" /><text fill="#333" font-family="Microsoft YaHei, SimHei, sans-serif" font-size="13" x="-430.0" y="2272.5">线缆固定件</text><rect fill="#3498db" height="40" rx="5" stroke="#3498db" stroke-width="1" width="220" x="80.0" y="2165.0" /><text fill="#fff" font-family="Microsoft YaHei, SimHei, sans-serif" font-size="13" x="90.0" y="2190.0">4.2 机柜附件</text><rect fill="#2980b9" height="40" rx="5" stroke="#2980b9" stroke-width="1" width="220" x="600.0" y="1917.5" /><text fill="#fff" font-family="Microsoft YaHei, SimHei, sans-serif" font-size="13" x="610.0" y="1942.5">四、机柜与机架 (Rack)</text><path d="M 1200.0 1175.0 C 1250.0 1175.0 1230.0 452.5 1280.0 452.5" fill="none" stroke="#bdc3c7" stroke-width="2" /><path d="M 1500.0 452.5 C 1540.0 452.5 1540.0 260.0 1580.0 260.0" fill="none" stroke="#bdc3c7" stroke-width="1.5" /><path d="M 1800.0 260.0 C 1840.0 260.0 1840.0 122.5 1880.0 122.5" fill="none" stroke="#bdc3c7" stroke-width="1.5" /><rect fill="#fff" height="40" rx="5" stroke="#bdc3c7" stroke-width="1" width="220" x="1880.0" y="102.5" /><text fill="#333" font-family="Microsoft YaHei, SimHei, sans-serif" font-size="13" x="1890.0" y="127.5">TOR交换机（Top-of-Rack）</text><path d="M 1800.0 260.0 C 1840.0 260.0 1840.0 177.5 1880.0 177.5" fill="none" stroke="#bdc3c7" stroke-width="1.5" /><rect fill="#fff" height="40" rx="5" stroke="#bdc3c7" stroke-width="1" width="220" x="1880.0" y="157.5" /><text fill="#333" font-family="Microsoft YaHei, SimHei, sans-serif" font-size="13" x="1890.0" y="182.5">汇聚交换机</text><path d="M 1800.0 260.0 C 1840.0 260.0 1840.0 232.5 1880.0 232.5" fill="none" stroke="#bdc3c7" stroke-width="1.5" /><rect fill="#fff" height="40" rx="5" stroke="#bdc3c7" stroke-width="1" width="220" x="1880.0" y="212.5" /><text fill="#333" font-family="Microsoft YaHei, SimHei, sans-serif" font-size="13" x="1890.0" y="237.5">核心交换机</text><path d="M 1800.0 260.0 C 1840.0 260.0 1840.0 287.5 1880.0 287.5" fill="none" stroke="#bdc3c7" stroke-width="1.5" /><rect fill="#fff" height="40" rx="5" stroke="#bdc3c7" stroke-width="1" width="220" x="1880.0" y="267.5" /><text fill="#333" font-family="Microsoft YaHei, SimHei, sans-serif" font-size="13" x="1890.0" y="292.5">路由器</text><path d="M 1800.0 260.0 C 1840.0 260.0 1840.0 342.5 1880.0 342.5" fill="none" stroke="#bdc3c7" stroke-width="1.5" /><rect fill="#fff" height="40" rx="5" stroke="#bdc3c7" stroke-width="1" width="220" x="1880.0" y="322.5" /><text fill="#333" font-family="Microsoft YaHei, SimHei, sans-serif" font-size="13" x="1890.0" y="347.5">防火墙</text><path d="M 1800.0 260.0 C 1840.0 260.0 1840.0 397.5 1880.0 397.5" fill="none" stroke="#bdc3c7" stroke-width="1.5" /><rect fill="#fff" height="40" rx="5" stroke="#bdc3c7" stroke-width="1" width="220" x="1880.0" y="377.5" /><text fill="#333" font-family="Microsoft YaHei, SimHei, sans-serif" font-size="13" x="1890.0" y="402.5">负载均衡器</text><rect fill="#3498db" height="40" rx="5" stroke="#3498db" stroke-width="1" width="220" x="1580.0" y="240.0" /><text fill="#fff" font-family="Microsoft YaHei, SimHei, sans-serif" font-size="13" x="1590.0" y="265.0">3.1 网络设备类型</text><path d="M 1500.0 452.5 C 1540.0 452.5 1540.0 617.5 1580.0 617.5" fill="none" stroke="#bdc3c7" stroke-width="1.5" /><path d="M 1800.0 617.5 C 1840.0 617.5 1840.0 452.5 1880.0 452.5" fill="none" stroke="#bdc3c7" stroke-width="1.5" /><rect fill="#fff" height="40" rx="5" stroke="#bdc3c7" stroke-width="1" width="220" x="1880.0" y="432.5" /><text fill="#333" font-family="Microsoft YaHei, SimHei, sans-serif" font-size="13" x="1890.0" y="457.5">光模块（SFP+/QSFP+/OSFP）</text><path d="M 1800.0 617.5 C 1840.0 617.5 1840.0 507.5 1880.0 507.5" fill="none" stroke="#bdc3c7" stroke-width="1.5" /><rect fill="#fff" height="40" rx="5" stroke="#bdc3c7" stroke-width="1" width="220" x="1880.0" y="487.5" /><text fill="#333" font-family="Microsoft YaHei, SimHei, sans-serif" font-size="13" x="1890.0" y="512.5">光纤跳线（LC/SC）</text><path d="M 1800.0 617.5 C 1840.0 617.5 1840.0 562.5 1880.0 562.5" fill="none" stroke="#bdc3c7" stroke-width="1.5" /><rect fill="#fff" height="40" rx="5" stroke="#bdc3c7" stroke-width="1" width="220" x="1880.0" y="542.5" /><text fill="#333" font-family="Microsoft YaHei, SimHei, sans-serif" font-size="13" x="1890.0" y="567.5">铜缆（Cat6/Cat6A）</text><path d="M 1800.0 617.5 C 1840.0 617.5 1840.0 617.5 1880.0 617.5" fill="none" stroke="#bdc3c7" stroke-width="1.5" /><rect fill="#fff" height="40" rx="5" stroke="#bdc3c7" stroke-width="1" width="220" x="1880.0" y="597.5" /><text fill="#333" font-family="Microsoft YaHei, SimHei, sans-serif" font-size="13" x="1890.0" y="622.5">端口面板</text><path d="M 1800.0 617.5 C 1840.0 617.5 1840.0 672.5 1880.0 672.5" fill="none" stroke="#bdc3c7" stroke-width="1.5" /><rect fill="#fff" height="40" rx="5" stroke="#bdc3c7" stroke-width="1" width="220" x="1880.0" y="652.5" /><text fill="#333" font-family="Microsoft YaHei, SimHei, sans-serif" font-size="13" x="1890.0" y="677.5">散热风扇</text><path d="M 1800.0 617.5 C 1840.0 617.5 1840.0 727.5 1880.0 727.5" fill="none" stroke="#bdc3c7" stroke-width="1.5" /><rect fill="#fff" height="40" rx="5" stroke="#bdc3c7" stroke-width="1" width="220" x="1880.0" y="707.5" /><text fill="#333" font-family="Microsoft YaHei, SimHei, sans-serif" font-size="13" x="1890.0" y="732.5">电源模块</text><path d="M 1800.0 617.5 C 1840.0 617.5 1840.0 782.5 1880.0 782.5" fill="none" stroke="#bdc3c7" stroke-width="1.5" /><rect fill="#fff" height="40" rx="5" stroke="#bdc3c7" stroke-width="1" width="220" x="1880.0" y="762.5" /><text fill="#333" font-family="Microsoft YaHei, SimHei, sans-serif" font-size="13" x="1890.0" y="787.5">主控板/交换芯片</text><rect fill="#3498db" height="40" rx="5" stroke="#3498db" stroke-width="1" width="220" x="1580.0" y="597.5" /><text fill="#fff" font-family="Microsoft YaHei, SimHei, sans-serif" font-size="13" x="1590.0" y="622.5">3.2 网络部件</text><rect fill="#2980b9" height="40" rx="5" stroke="#2980b9" stroke-width="1" width="220" x="1280.0" y="432.5" /><text fill="#fff" font-family="Microsoft YaHei, SimHei, sans-serif" font-size="13" x="1290.0" y="457.5">三、网络设备 (Networking)</text><path d="M 1200.0 1175.0 C 1250.0 1175.0 1230.0 1057.5 1280.0 1057.5" fill="none" stroke="#bdc3c7" stroke-width="2" /><path d="M 1500.0 1057.5 C 1540.0 1057.5 1540.0 947.5 1580.0 947.5" fill="none" stroke="#bdc3c7" stroke-width="1.5" /><path d="M 1800.0 947.5 C 1840.0 947.5 1840.0 837.5 1880.0 837.5" fill="none" stroke="#bdc3c7" stroke-width="1.5" /><rect fill="#fff" height="40" rx="5" stroke="#bdc3c7" stroke-width="1" width="220" x="1880.0" y="817.5" /><text fill="#333" font-family="Microsoft YaHei, SimHei, sans-serif" font-size="13" x="1890.0" y="842.5">UPS（不间断电源）</text><path d="M 1800.0 947.5 C 1840.0 947.5 1840.0 892.5 1880.0 892.5" fill="none" stroke="#bdc3c7" stroke-width="1.5" /><rect fill="#fff" height="40" rx="5" stroke="#bdc3c7" stroke-width="1" width="220" x="1880.0" y="872.5" /><text fill="#333" font-family="Microsoft YaHei, SimHei, sans-serif" font-size="13" x="1890.0" y="897.5">PDU（机架电源分配单元）</text><path d="M 1800.0 947.5 C 1840.0 947.5 1840.0 947.5 1880.0 947.5" fill="none" stroke="#bdc3c7" stroke-width="1.5" /><rect fill="#fff" height="40" rx="5" stroke="#bdc3c7" stroke-width="1" width="220" x="1880.0" y="927.5" /><text fill="#333" font-family="Microsoft YaHei, SimHei, sans-serif" font-size="13" x="1890.0" y="952.5">配电柜（PDC）</text><path d="M 1800.0 947.5 C 1840.0 947.5 1840.0 1002.5 1880.0 1002.5" fill="none" stroke="#bdc3c7" stroke-width="1.5" /><rect fill="#fff" height="40" rx="5" stroke="#bdc3c7" stroke-width="1" width="220" x="1880.0" y="982.5" /><text fill="#333" font-family="Microsoft YaHei, SimHei, sans-serif" font-size="13" x="1890.0" y="1007.5">母线槽（Busway）</text><path d="M 1800.0 947.5 C 1840.0 947.5 1840.0 1057.5 1880.0 1057.5" fill="none" stroke="#bdc3c7" stroke-width="1.5" /><rect fill="#fff" height="40" rx="5" stroke="#bdc3c7" stroke-width="1" width="220" x="1880.0" y="1037.5" /><text fill="#333" font-family="Microsoft YaHei, SimHei, sans-serif" font-size="13" x="1890.0" y="1062.5">电池组（锂电/铅酸）</text><rect fill="#3498db" height="40" rx="5" stroke="#3498db" stroke-width="1" width="220" x="1580.0" y="927.5" /><text fill="#fff" font-family="Microsoft YaHei, SimHei, sans-serif" font-size="13" x="1590.0" y="952.5">5.1 供电设备</text><path d="M 1500.0 1057.5 C 1540.0 1057.5 1540.0 1195.0 1580.0 1195.0" fill="none" stroke="#bdc3c7" stroke-width="1.5" /><path d="M 1800.0 1195.0 C 1840.0 1195.0 1840.0 1112.5 1880.0 1112.5" fill="none" stroke="#bdc3c7" stroke-width="1.5" /><rect fill="#fff" height="40" rx="5" stroke="#bdc3c7" stroke-width="1" width="220" x="1880.0" y="1092.5" /><text fill="#333" font-family="Microsoft YaHei, SimHei, sans-serif" font-size="13" x="1890.0" y="1117.5">断路器</text><path d="M 1800.0 1195.0 C 1840.0 1195.0 1840.0 1167.5 1880.0 1167.5" fill="none" stroke="#bdc3c7" stroke-width="1.5" /><rect fill="#fff" height="40" rx="5" stroke="#bdc3c7" stroke-width="1" width="220" x="1880.0" y="1147.5" /><text fill="#333" font-family="Microsoft YaHei, SimHei, sans-serif" font-size="13" x="1890.0" y="1172.5">插座模块</text><path d="M 1800.0 1195.0 C 1840.0 1195.0 1840.0 1222.5 1880.0 1222.5" fill="none" stroke="#bdc3c7" stroke-width="1.5" /><rect fill="#fff" height="40" rx="5" stroke="#bdc3c7" stroke-width="1" width="220" x="1880.0" y="1202.5" /><text fill="#333" font-family="Microsoft YaHei, SimHei, sans-serif" font-size="13" x="1890.0" y="1227.5">电源线（C13/C19）</text><path d="M 1800.0 1195.0 C 1840.0 1195.0 1840.0 1277.5 1880.0 1277.5" fill="none" stroke="#bdc3c7" stroke-width="1.5" /><rect fill="#fff" height="40" rx="5" stroke="#bdc3c7" stroke-width="1" width="220" x="1880.0" y="1257.5" /><text fill="#333" font-family="Microsoft YaHei, SimHei, sans-serif" font-size="13" x="1890.0" y="1282.5">电源监控模块</text><rect fill="#3498db" height="40" rx="5" stroke="#3498db" stroke-width="1" width="220" x="1580.0" y="1175.0" /><text fill="#fff" font-family="Microsoft YaHei, SimHei, sans-serif" font-size="13" x="1590.0" y="1200.0">5.2 电力部件</text><rect fill="#2980b9" height="40" rx="5" stroke="#2980b9" stroke-width="1" width="220" x="1280.0" y="1037.5" /><text fill="#fff" font-family="Microsoft YaHei, SimHei, sans-serif" font-size="13" x="1290.0" y="1062.5">五、供配电系统 (Power)</text><path d="M 1200.0 1175.0 C 1250.0 1175.0 1230.0 1580.0 1280.0 1580.0" fill="none" stroke="#bdc3c7" stroke-width="2" /><path d="M 1500.0 1580.0 C 1540.0 1580.0 1540.0 1442.5 1580.0 1442.5" fill="none" stroke="#bdc3c7" stroke-width="1.5" /><path d="M 1800.0 1442.5 C 1840.0 1442.5 1840.0 1332.5 1880.0 1332.5" fill="none" stroke="#bdc3c7" stroke-width="1.5" /><rect fill="#fff" height="40" rx="5" stroke="#bdc3c7" stroke-width="1" width="220" x="1880.0" y="1312.5" /><text fill="#333" font-family="Microsoft YaHei, SimHei, sans-serif" font-size="13" x="1890.0" y="1337.5">机房空调（CRAC/CRAH）</text><path d="M 1800.0 1442.5 C 1840.0 1442.5 1840.0 1387.5 1880.0 1387.5" fill="none" stroke="#bdc3c7" stroke-width="1.5" /><rect fill="#fff" height="40" rx="5" stroke="#bdc3c7" stroke-width="1" width="220" x="1880.0" y="1367.5" /><text fill="#333" font-family="Microsoft YaHei, SimHei, sans-serif" font-size="13" x="1890.0" y="1392.5">行级空调（In-row Cooling）</text><path d="M 1800.0 1442.5 C 1840.0 1442.5 1840.0 1442.5 1880.0 1442.5" fill="none" stroke="#bdc3c7" stroke-width="1.5" /><rect fill="#fff" height="40" rx="5" stroke="#bdc3c7" stroke-width="1" width="220" x="1880.0" y="1422.5" /><text fill="#333" font-family="Microsoft YaHei, SimHei, sans-serif" font-size="13" x="1890.0" y="1447.5">液冷系统（冷板/浸没式）</text><path d="M 1800.0 1442.5 C 1840.0 1442.5 1840.0 1497.5 1880.0 1497.5" fill="none" stroke="#bdc3c7" stroke-width="1.5" /><rect fill="#fff" height="40" rx="5" stroke="#bdc3c7" stroke-width="1" width="220" x="1880.0" y="1477.5" /><text fill="#333" font-family="Microsoft YaHei, SimHei, sans-serif" font-size="13" x="1890.0" y="1502.5">风道管理（前进后出）</text><path d="M 1800.0 1442.5 C 1840.0 1442.5 1840.0 1552.5 1880.0 1552.5" fill="none" stroke="#bdc3c7" stroke-width="1.5" /><rect fill="#fff" height="40" rx="5" stroke="#bdc3c7" stroke-width="1" width="220" x="1880.0" y="1532.5" /><text fill="#333" font-family="Microsoft YaHei, SimHei, sans-serif" font-size="13" x="1890.0" y="1557.5">冷/热通道封闭系统</text><rect fill="#3498db" height="40" rx="5" stroke="#3498db" stroke-width="1" width="220" x="1580.0" y="1422.5" /><text fill="#fff" font-family="Microsoft YaHei, SimHei, sans-serif" font-size="13" x="1590.0" y="1447.5">6.1 散热系统</text><path d="M 1500.0 1580.0 C 1540.0 1580.0 1540.0 1717.5 1580.0 1717.5" fill="none" stroke="#bdc3c7" stroke-width="1.5" /><path d="M 1800.0 1717.5 C 1840.0 1717.5 1840.0 1607.5 1880.0 1607.5" fill="none" stroke="#bdc3c7" stroke-width="1.5" /><rect fill="#fff" height="40" rx="5" stroke="#bdc3c7" stroke-width="1" width="220" x="1880.0" y="1587.5" /><text fill="#333" font-family="Microsoft YaHei, SimHei, sans-serif" font-size="13" x="1890.0" y="1612.5">风扇模块</text><path d="M 1800.0 1717.5 C 1840.0 1717.5 1840.0 1662.5 1880.0 1662.5" fill="none" stroke="#bdc3c7" stroke-width="1.5" /><rect fill="#fff" height="40" rx="5" stroke="#bdc3c7" stroke-width="1" width="220" x="1880.0" y="1642.5" /><text fill="#333" font-family="Microsoft YaHei, SimHei, sans-serif" font-size="13" x="1890.0" y="1667.5">冷板</text><path d="M 1800.0 1717.5 C 1840.0 1717.5 1840.0 1717.5 1880.0 1717.5" fill="none" stroke="#bdc3c7" stroke-width="1.5" /><rect fill="#fff" height="40" rx="5" stroke="#bdc3c7" stroke-width="1" width="220" x="1880.0" y="1697.5" /><text fill="#333" font-family="Microsoft YaHei, SimHei, sans-serif" font-size="13" x="1890.0" y="1722.5">散热片</text><path d="M 1800.0 1717.5 C 1840.0 1717.5 1840.0 1772.5 1880.0 1772.5" fill="none" stroke="#bdc3c7" stroke-width="1.5" /><rect fill="#fff" height="40" rx="5" stroke="#bdc3c7" stroke-width="1" width="220" x="1880.0" y="1752.5" /><text fill="#333" font-family="Microsoft YaHei, SimHei, sans-serif" font-size="13" x="1890.0" y="1777.5">风道隔板</text><path d="M 1800.0 1717.5 C 1840.0 1717.5 1840.0 1827.5 1880.0 1827.5" fill="none" stroke="#bdc3c7" stroke-width="1.5" /><rect fill="#fff" height="40" rx="5" stroke="#bdc3c7" stroke-width="1" width="220" x="1880.0" y="1807.5" /><text fill="#333" font-family="Microsoft YaHei, SimHei, sans-serif" font-size="13" x="1890.0" y="1832.5">穿孔门</text><rect fill="#3498db" height="40" rx="5" stroke="#3498db" stroke-width="1" width="220" x="1580.0" y="1697.5" /><text fill="#fff" font-family="Microsoft YaHei, SimHei, sans-serif" font-size="13" x="1590.0" y="1722.5">6.2 散热部件</text><rect fill="#2980b9" height="40" rx="5" stroke="#2980b9" stroke-width="1" width="220" x="1280.0" y="1560.0" /><text fill="#fff" font-family="Microsoft YaHei, SimHei, sans-serif" font-size="13" x="1290.0" y="1585.0">六、散热与环境 (Cooling)</text><path d="M 1200.0 1175.0 C 1250.0 1175.0 1230.0 2075.0 1280.0 2075.0" fill="none" stroke="#bdc3c7" stroke-width="2" /><path d="M 1500.0 2075.0 C 1540.0 2075.0 1540.0 1965.0 1580.0 1965.0" fill="none" stroke="#bdc3c7" stroke-width="1.5" /><path d="M 1800.0 1965.0 C 1840.0 1965.0 1840.0 1882.5 1880.0 1882.5" fill="none" stroke="#bdc3c7" stroke-width="1.5" /><rect fill="#fff" height="40" rx="5" stroke="#bdc3c7" stroke-width="1" width="220" x="1880.0" y="1862.5" /><text fill="#333" font-family="Microsoft YaHei, SimHei, sans-serif" font-size="13" x="1890.0" y="1887.5">配线架（Patch Panel）</text><path d="M 1800.0 1965.0 C 1840.0 1965.0 1840.0 1937.5 1880.0 1937.5" fill="none" stroke="#bdc3c7" stroke-width="1.5" /><rect fill="#fff" height="40" rx="5" stroke="#bdc3c7" stroke-width="1" width="220" x="1880.0" y="1917.5" /><text fill="#333" font-family="Microsoft YaHei, SimHei, sans-serif" font-size="13" x="1890.0" y="1942.5">理线器（Cable Manager）</text><path d="M 1800.0 1965.0 C 1840.0 1965.0 1840.0 1992.5 1880.0 1992.5" fill="none" stroke="#bdc3c7" stroke-width="1.5" /><rect fill="#fff" height="40" rx="5" stroke="#bdc3c7" stroke-width="1" width="220" x="1880.0" y="1972.5" /><text fill="#333" font-family="Microsoft YaHei, SimHei, sans-serif" font-size="13" x="1890.0" y="1997.5">光纤配线箱（ODF）</text><path d="M 1800.0 1965.0 C 1840.0 1965.0 1840.0 2047.5 1880.0 2047.5" fill="none" stroke="#bdc3c7" stroke-width="1.5" /><rect fill="#fff" height="40" rx="5" stroke="#bdc3c7" stroke-width="1" width="220" x="1880.0" y="2027.5" /><text fill="#333" font-family="Microsoft YaHei, SimHei, sans-serif" font-size="13" x="1890.0" y="2052.5">机柜侧边布线槽</text><rect fill="#3498db" height="40" rx="5" stroke="#3498db" stroke-width="1" width="220" x="1580.0" y="1945.0" /><text fill="#fff" font-family="Microsoft YaHei, SimHei, sans-serif" font-size="13" x="1590.0" y="1970.0">7.1 布线设备</text><path d="M 1500.0 2075.0 C 1540.0 2075.0 1540.0 2185.0 1580.0 2185.0" fill="none" stroke="#bdc3c7" stroke-width="1.5" /><path d="M 1800.0 2185.0 C 1840.0 2185.0 1840.0 2102.5 1880.0 2102.5" fill="none" stroke="#bdc3c7" stroke-width="1.5" /><rect fill="#fff" height="40" rx="5" stroke="#bdc3c7" stroke-width="1" width="220" x="1880.0" y="2082.5" /><text fill="#333" font-family="Microsoft YaHei, SimHei, sans-serif" font-size="13" x="1890.0" y="2107.5">光纤跳线（LC/SC）</text><path d="M 1800.0 2185.0 C 1840.0 2185.0 1840.0 2157.5 1880.0 2157.5" fill="none" stroke="#bdc3c7" stroke-width="1.5" /><rect fill="#fff" height="40" rx="5" stroke="#bdc3c7" stroke-width="1" width="220" x="1880.0" y="2137.5" /><text fill="#333" font-family="Microsoft YaHei, SimHei, sans-serif" font-size="13" x="1890.0" y="2162.5">铜缆（Cat6/Cat6A）</text><path d="M 1800.0 2185.0 C 1840.0 2185.0 1840.0 2212.5 1880.0 2212.5" fill="none" stroke="#bdc3c7" stroke-width="1.5" /><rect fill="#fff" height="40" rx="5" stroke="#bdc3c7" stroke-width="1" width="220" x="1880.0" y="2192.5" /><text fill="#333" font-family="Microsoft YaHei, SimHei, sans-serif" font-size="13" x="1890.0" y="2217.5">光模块</text><path d="M 1800.0 2185.0 C 1840.0 2185.0 1840.0 2267.5 1880.0 2267.5" fill="none" stroke="#bdc3c7" stroke-width="1.5" /><rect fill="#fff" height="40" rx="5" stroke="#bdc3c7" stroke-width="1" width="220" x="1880.0" y="2247.5" /><text fill="#333" font-family="Microsoft YaHei, SimHei, sans-serif" font-size="13" x="1890.0" y="2272.5">标签系统</text><rect fill="#3498db" height="40" rx="5" stroke="#3498db" stroke-width="1" width="220" x="1580.0" y="2165.0" /><text fill="#fff" font-family="Microsoft YaHei, SimHei, sans-serif" font-size="13" x="1590.0" y="2190.0">7.2 布线部件</text><rect fill="#2980b9" height="40" rx="5" stroke="#2980b9" stroke-width="1" width="220" x="1280.0" y="2055.0" /><text fill="#fff" font-family="Microsoft YaHei, SimHei, sans-serif" font-size="13" x="1290.0" y="2080.0">七、布线系统 (Cabling)</text></svg>