<?xml version="1.0" encoding="utf-8" ?>
<svg baseProfile="tiny" height="5270" version="1.2" width="1480" xmlns="http://www.w3.org/2000/svg" xmlns:ev="http://www.w3.org/2001/xml-events" xmlns:xlink="http://www.w3.org/1999/xlink"><defs /><rect fill="#f8f9fa" height="5270" width="1480" x="0" y="0" /><path d="M 270 2627.5 C 320.0 2627.5 320.0 455.0 370 455.0" fill="none" stroke="#bdc3c7" stroke-width="2" /><path d="M 590 455.0 C 640.0 455.0 640.0 152.5 690 152.5" fill="none" stroke="#bdc3c7" stroke-width="2" /><path d="M 910 152.5 C 960.0 152.5 960.0 70.0 1010 70.0" fill="none" stroke="#bdc3c7" stroke-width="2" /><rect fill="#ffffff" height="40" rx="5" stroke="#bdc3c7" stroke-width="1" width="220" x="1010" y="50.0" /><text fill="#333333" font-family="Microsoft YaHei, SimHei, sans-serif" font-size="14" x="1020" y="75.0">机架式服务器（1U/2U/4U）</text><path d="M 910 152.5 C 960.0 152.5 960.0 125.0 1010 125.0" fill="none" stroke="#bdc3c7" stroke-width="2" /><rect fill="#ffffff" height="40" rx="5" stroke="#bdc3c7" stroke-width="1" width="220" x="1010" y="105.0" /><text fill="#333333" font-family="Microsoft YaHei, SimHei, sans-serif" font-size="14" x="1020" y="130.0">GPU服务器（AI训练/推理）</text><path d="M 910 152.5 C 960.0 152.5 960.0 180.0 1010 180.0" fill="none" stroke="#bdc3c7" stroke-width="2" /><rect fill="#ffffff" height="40" rx="5" stroke="#bdc3c7" stroke-width="1" width="220" x="1010" y="160.0" /><text fill="#333333" font-family="Microsoft YaHei, SimHei, sans-serif" font-size="14" x="1020" y="185.0">边缘服务器</text><path d="M 910 152.5 C 960.0 152.5 960.0 235.0 1010 235.0" fill="none" stroke="#bdc3c7" stroke-width="2" /><rect fill="#ffffff" height="40" rx="5" stroke="#bdc3c7" stroke-width="1" width="220" x="1010" y="215.0" /><text fill="#333333" font-family="Microsoft YaHei, SimHei, sans-serif" font-size="14" x="1020" y="240.0">高密度服务器（刀片式）</text><rect fill="#3498db" height="40" rx="5" stroke="#3498db" stroke-width="1" width="220" x="690" y="132.5" /><text fill="#ffffff" font-family="Microsoft YaHei, SimHei, sans-serif" font-size="14" x="700" y="157.5">1.1 服务器整机</text><path d="M 590 455.0 C 640.0 455.0 640.0 565.0 690 565.0" fill="none" stroke="#bdc3c7" stroke-width="2" /><path d="M 910 565.0 C 960.0 565.0 960.0 290.0 1010 290.0" fill="none" stroke="#bdc3c7" stroke-width="2" /><rect fill="#ffffff" height="40" rx="5" stroke="#bdc3c7" stroke-width="1" width="220" x="1010" y="270.0" /><text fill="#333333" font-family="Microsoft YaHei, SimHei, sans-serif" font-size="14" x="1020" y="295.0">CPU（x86/ARM）</text><path d="M 910 565.0 C 960.0 565.0 960.0 345.0 1010 345.0" fill="none" stroke="#bdc3c7" stroke-width="2" /><rect fill="#ffffff" height="40" rx="5" stroke="#bdc3c7" stroke-width="1" width="220" x="1010" y="325.0" /><text fill="#333333" font-family="Microsoft YaHei, SimHei, sans-serif" font-size="14" x="1020" y="350.0">GPU/AI加速卡（NVIDIA/昇腾）</text><path d="M 910 565.0 C 960.0 565.0 960.0 400.0 1010 400.0" fill="none" stroke="#bdc3c7" stroke-width="2" /><rect fill="#ffffff" height="40" rx="5" stroke="#bdc3c7" stroke-width="1" width="220" x="1010" y="380.0" /><text fill="#333333" font-family="Microsoft YaHei, SimHei, sans-serif" font-size="14" x="1020" y="405.0">主板（Motherboard）</text><path d="M 910 565.0 C 960.0 565.0 960.0 455.0 1010 455.0" fill="none" stroke="#bdc3c7" stroke-width="2" /><rect fill="#ffffff" height="40" rx="5" stroke="#bdc3c7" stroke-width="1" width="220" x="1010" y="435.0" /><text fill="#333333" font-family="Microsoft YaHei, SimHei, sans-serif" font-size="14" x="1020" y="460.0">内存（DDR4/DDR5）</text><path d="M 910 565.0 C 960.0 565.0 960.0 510.0 1010 510.0" fill="none" stroke="#bdc3c7" stroke-width="2" /><rect fill="#ffffff" height="40" rx="5" stroke="#bdc3c7" stroke-width="1" width="220" x="1010" y="490.0" /><text fill="#333333" font-family="Microsoft YaHei, SimHei, sans-serif" font-size="14" x="1020" y="515.0">存储（SSD/HDD/NVMe）</text><path d="M 910 565.0 C 960.0 565.0 960.0 565.0 1010 565.0" fill="none" stroke="#bdc3c7" stroke-width="2" /><rect fill="#ffffff" height="40" rx="5" stroke="#bdc3c7" stroke-width="1" width="220" x="1010" y="545.0" /><text fill="#333333" font-family="Microsoft YaHei, SimHei, sans-serif" font-size="14" x="1020" y="570.0">RAID卡</text><path d="M 910 565.0 C 960.0 565.0 960.0 620.0 1010 620.0" fill="none" stroke="#bdc3c7" stroke-width="2" /><rect fill="#ffffff" height="40" rx="5" stroke="#bdc3c7" stroke-width="1" width="220" x="1010" y="600.0" /><text fill="#333333" font-family="Microsoft YaHei, SimHei, sans-serif" font-size="14" x="1020" y="625.0">网卡（NIC：10G/25G/100G）</text><path d="M 910 565.0 C 960.0 565.0 960.0 675.0 1010 675.0" fill="none" stroke="#bdc3c7" stroke-width="2" /><rect fill="#ffffff" height="40" rx="5" stroke="#bdc3c7" stroke-width="1" width="220" x="1010" y="655.0" /><text fill="#333333" font-family="Microsoft YaHei, SimHei, sans-serif" font-size="14" x="1020" y="680.0">BMC管理芯片</text><path d="M 910 565.0 C 960.0 565.0 960.0 730.0 1010 730.0" fill="none" stroke="#bdc3c7" stroke-width="2" /><rect fill="#ffffff" height="40" rx="5" stroke="#bdc3c7" stroke-width="1" width="220" x="1010" y="710.0" /><text fill="#333333" font-family="Microsoft YaHei, SimHei, sans-serif" font-size="14" x="1020" y="735.0">电源模块（PSU）</text><path d="M 910 565.0 C 960.0 565.0 960.0 785.0 1010 785.0" fill="none" stroke="#bdc3c7" stroke-width="2" /><rect fill="#ffffff" height="40" rx="5" stroke="#bdc3c7" stroke-width="1" width="220" x="1010" y="765.0" /><text fill="#333333" font-family="Microsoft YaHei, SimHei, sans-serif" font-size="14" x="1020" y="790.0">风扇模块</text><path d="M 910 565.0 C 960.0 565.0 960.0 840.0 1010 840.0" fill="none" stroke="#bdc3c7" stroke-width="2" /><rect fill="#ffffff" height="40" rx="5" stroke="#bdc3c7" stroke-width="1" width="220" x="1010" y="820.0" /><text fill="#333333" font-family="Microsoft YaHei, SimHei, sans-serif" font-size="14" x="1020" y="845.0">散热片/导热组件</text><rect fill="#3498db" height="40" rx="5" stroke="#3498db" stroke-width="1" width="220" x="690" y="545.0" /><text fill="#ffffff" font-family="Microsoft YaHei, SimHei, sans-serif" font-size="14" x="700" y="570.0">1.2 服务器核心部件</text><rect fill="#2980b9" height="40" rx="5" stroke="#2980b9" stroke-width="1" width="220" x="370" y="435.0" /><text fill="#ffffff" font-family="Microsoft YaHei, SimHei, sans-serif" font-size="14" x="380" y="460.0">一、计算设备 (Compute)</text><path d="M 270 2627.5 C 320.0 2627.5 320.0 1197.5 370 1197.5" fill="none" stroke="#bdc3c7" stroke-width="2" /><path d="M 590 1197.5 C 640.0 1197.5 640.0 1005.0 690 1005.0" fill="none" stroke="#bdc3c7" stroke-width="2" /><path d="M 910 1005.0 C 960.0 1005.0 960.0 895.0 1010 895.0" fill="none" stroke="#bdc3c7" stroke-width="2" /><rect fill="#ffffff" height="40" rx="5" stroke="#bdc3c7" stroke-width="1" width="220" x="1010" y="875.0" /><text fill="#333333" font-family="Microsoft YaHei, SimHei, sans-serif" font-size="14" x="1020" y="900.0">SAN存储阵列</text><path d="M 910 1005.0 C 960.0 1005.0 960.0 950.0 1010 950.0" fill="none" stroke="#bdc3c7" stroke-width="2" /><rect fill="#ffffff" height="40" rx="5" stroke="#bdc3c7" stroke-width="1" width="220" x="1010" y="930.0" /><text fill="#333333" font-family="Microsoft YaHei, SimHei, sans-serif" font-size="14" x="1020" y="955.0">NAS存储阵列</text><path d="M 910 1005.0 C 960.0 1005.0 960.0 1005.0 1010 1005.0" fill="none" stroke="#bdc3c7" stroke-width="2" /><rect fill="#ffffff" height="40" rx="5" stroke="#bdc3c7" stroke-width="1" width="220" x="1010" y="985.0" /><text fill="#333333" font-family="Microsoft YaHei, SimHei, sans-serif" font-size="14" x="1020" y="1010.0">分布式存储节点</text><path d="M 910 1005.0 C 960.0 1005.0 960.0 1060.0 1010 1060.0" fill="none" stroke="#bdc3c7" stroke-width="2" /><rect fill="#ffffff" height="40" rx="5" stroke="#bdc3c7" stroke-width="1" width="220" x="1010" y="1040.0" /><text fill="#333333" font-family="Microsoft YaHei, SimHei, sans-serif" font-size="14" x="1020" y="1065.0">对象存储节点</text><path d="M 910 1005.0 C 960.0 1005.0 960.0 1115.0 1010 1115.0" fill="none" stroke="#bdc3c7" stroke-width="2" /><rect fill="#ffffff" height="40" rx="5" stroke="#bdc3c7" stroke-width="1" width="220" x="1010" y="1095.0" /><text fill="#333333" font-family="Microsoft YaHei, SimHei, sans-serif" font-size="14" x="1020" y="1120.0">JBOD/JBOS</text><rect fill="#3498db" height="40" rx="5" stroke="#3498db" stroke-width="1" width="220" x="690" y="985.0" /><text fill="#ffffff" font-family="Microsoft YaHei, SimHei, sans-serif" font-size="14" x="700" y="1010.0">2.1 存储系统</text><path d="M 590 1197.5 C 640.0 1197.5 640.0 1335.0 690 1335.0" fill="none" stroke="#bdc3c7" stroke-width="2" /><path d="M 910 1335.0 C 960.0 1335.0 960.0 1170.0 1010 1170.0" fill="none" stroke="#bdc3c7" stroke-width="2" /><rect fill="#ffffff" height="40" rx="5" stroke="#bdc3c7" stroke-width="1" width="220" x="1010" y="1150.0" /><text fill="#333333" font-family="Microsoft YaHei, SimHei, sans-serif" font-size="14" x="1020" y="1175.0">SSD/HDD</text><path d="M 910 1335.0 C 960.0 1335.0 960.0 1225.0 1010 1225.0" fill="none" stroke="#bdc3c7" stroke-width="2" /><rect fill="#ffffff" height="40" rx="5" stroke="#bdc3c7" stroke-width="1" width="220" x="1010" y="1205.0" /><text fill="#333333" font-family="Microsoft YaHei, SimHei, sans-serif" font-size="14" x="1020" y="1230.0">NVMe盘组</text><path d="M 910 1335.0 C 960.0 1335.0 960.0 1280.0 1010 1280.0" fill="none" stroke="#bdc3c7" stroke-width="2" /><rect fill="#ffffff" height="40" rx="5" stroke="#bdc3c7" stroke-width="1" width="220" x="1010" y="1260.0" /><text fill="#333333" font-family="Microsoft YaHei, SimHei, sans-serif" font-size="14" x="1020" y="1285.0">RAID控制器</text><path d="M 910 1335.0 C 960.0 1335.0 960.0 1335.0 1010 1335.0" fill="none" stroke="#bdc3c7" stroke-width="2" /><rect fill="#ffffff" height="40" rx="5" stroke="#bdc3c7" stroke-width="1" width="220" x="1010" y="1315.0" /><text fill="#333333" font-family="Microsoft YaHei, SimHei, sans-serif" font-size="14" x="1020" y="1340.0">缓存模块（Cache）</text><path d="M 910 1335.0 C 960.0 1335.0 960.0 1390.0 1010 1390.0" fill="none" stroke="#bdc3c7" stroke-width="2" /><rect fill="#ffffff" height="40" rx="5" stroke="#bdc3c7" stroke-width="1" width="220" x="1010" y="1370.0" /><text fill="#333333" font-family="Microsoft YaHei, SimHei, sans-serif" font-size="14" x="1020" y="1395.0">存储背板（Backplane）</text><path d="M 910 1335.0 C 960.0 1335.0 960.0 1445.0 1010 1445.0" fill="none" stroke="#bdc3c7" stroke-width="2" /><rect fill="#ffffff" height="40" rx="5" stroke="#bdc3c7" stroke-width="1" width="220" x="1010" y="1425.0" /><text fill="#333333" font-family="Microsoft YaHei, SimHei, sans-serif" font-size="14" x="1020" y="1450.0">电源模块</text><path d="M 910 1335.0 C 960.0 1335.0 960.0 1500.0 1010 1500.0" fill="none" stroke="#bdc3c7" stroke-width="2" /><rect fill="#ffffff" height="40" rx="5" stroke="#bdc3c7" stroke-width="1" width="220" x="1010" y="1480.0" /><text fill="#333333" font-family="Microsoft YaHei, SimHei, sans-serif" font-size="14" x="1020" y="1505.0">散热风扇</text><rect fill="#3498db" height="40" rx="5" stroke="#3498db" stroke-width="1" width="220" x="690" y="1315.0" /><text fill="#ffffff" font-family="Microsoft YaHei, SimHei, sans-serif" font-size="14" x="700" y="1340.0">2.2 存储部件</text><rect fill="#2980b9" height="40" rx="5" stroke="#2980b9" stroke-width="1" width="220" x="370" y="1177.5" /><text fill="#ffffff" font-family="Microsoft YaHei, SimHei, sans-serif" font-size="14" x="380" y="1202.5">二、存储设备 (Storage)</text><path d="M 270 2627.5 C 320.0 2627.5 320.0 1885.0 370 1885.0" fill="none" stroke="#bdc3c7" stroke-width="2" /><path d="M 590 1885.0 C 640.0 1885.0 640.0 1692.5 690 1692.5" fill="none" stroke="#bdc3c7" stroke-width="2" /><path d="M 910 1692.5 C 960.0 1692.5 960.0 1555.0 1010 1555.0" fill="none" stroke="#bdc3c7" stroke-width="2" /><rect fill="#ffffff" height="40" rx="5" stroke="#bdc3c7" stroke-width="1" width="220" x="1010" y="1535.0" /><text fill="#333333" font-family="Microsoft YaHei, SimHei, sans-serif" font-size="14" x="1020" y="1560.0">TOR交换机（Top-of-Rack）</text><path d="M 910 1692.5 C 960.0 1692.5 960.0 1610.0 1010 1610.0" fill="none" stroke="#bdc3c7" stroke-width="2" /><rect fill="#ffffff" height="40" rx="5" stroke="#bdc3c7" stroke-width="1" width="220" x="1010" y="1590.0" /><text fill="#333333" font-family="Microsoft YaHei, SimHei, sans-serif" font-size="14" x="1020" y="1615.0">汇聚交换机</text><path d="M 910 1692.5 C 960.0 1692.5 960.0 1665.0 1010 1665.0" fill="none" stroke="#bdc3c7" stroke-width="2" /><rect fill="#ffffff" height="40" rx="5" stroke="#bdc3c7" stroke-width="1" width="220" x="1010" y="1645.0" /><text fill="#333333" font-family="Microsoft YaHei, SimHei, sans-serif" font-size="14" x="1020" y="1670.0">核心交换机</text><path d="M 910 1692.5 C 960.0 1692.5 960.0 1720.0 1010 1720.0" fill="none" stroke="#bdc3c7" stroke-width="2" /><rect fill="#ffffff" height="40" rx="5" stroke="#bdc3c7" stroke-width="1" width="220" x="1010" y="1700.0" /><text fill="#333333" font-family="Microsoft YaHei, SimHei, sans-serif" font-size="14" x="1020" y="1725.0">路由器</text><path d="M 910 1692.5 C 960.0 1692.5 960.0 1775.0 1010 1775.0" fill="none" stroke="#bdc3c7" stroke-width="2" /><rect fill="#ffffff" height="40" rx="5" stroke="#bdc3c7" stroke-width="1" width="220" x="1010" y="1755.0" /><text fill="#333333" font-family="Microsoft YaHei, SimHei, sans-serif" font-size="14" x="1020" y="1780.0">防火墙</text><path d="M 910 1692.5 C 960.0 1692.5 960.0 1830.0 1010 1830.0" fill="none" stroke="#bdc3c7" stroke-width="2" /><rect fill="#ffffff" height="40" rx="5" stroke="#bdc3c7" stroke-width="1" width="220" x="1010" y="1810.0" /><text fill="#333333" font-family="Microsoft YaHei, SimHei, sans-serif" font-size="14" x="1020" y="1835.0">负载均衡器</text><rect fill="#3498db" height="40" rx="5" stroke="#3498db" stroke-width="1" width="220" x="690" y="1672.5" /><text fill="#ffffff" font-family="Microsoft YaHei, SimHei, sans-serif" font-size="14" x="700" y="1697.5">3.1 网络设备类型</text><path d="M 590 1885.0 C 640.0 1885.0 640.0 2050.0 690 2050.0" fill="none" stroke="#bdc3c7" stroke-width="2" /><path d="M 910 2050.0 C 960.0 2050.0 960.0 1885.0 1010 1885.0" fill="none" stroke="#bdc3c7" stroke-width="2" /><rect fill="#ffffff" height="40" rx="5" stroke="#bdc3c7" stroke-width="1" width="220" x="1010" y="1865.0" /><text fill="#333333" font-family="Microsoft YaHei, SimHei, sans-serif" font-size="14" x="1020" y="1890.0">光模块（SFP+/QSFP+/OSFP）</text><path d="M 910 2050.0 C 960.0 2050.0 960.0 1940.0 1010 1940.0" fill="none" stroke="#bdc3c7" stroke-width="2" /><rect fill="#ffffff" height="40" rx="5" stroke="#bdc3c7" stroke-width="1" width="220" x="1010" y="1920.0" /><text fill="#333333" font-family="Microsoft YaHei, SimHei, sans-serif" font-size="14" x="1020" y="1945.0">光纤跳线（LC/SC）</text><path d="M 910 2050.0 C 960.0 2050.0 960.0 1995.0 1010 1995.0" fill="none" stroke="#bdc3c7" stroke-width="2" /><rect fill="#ffffff" height="40" rx="5" stroke="#bdc3c7" stroke-width="1" width="220" x="1010" y="1975.0" /><text fill="#333333" font-family="Microsoft YaHei, SimHei, sans-serif" font-size="14" x="1020" y="2000.0">铜缆（Cat6/Cat6A）</text><path d="M 910 2050.0 C 960.0 2050.0 960.0 2050.0 1010 2050.0" fill="none" stroke="#bdc3c7" stroke-width="2" /><rect fill="#ffffff" height="40" rx="5" stroke="#bdc3c7" stroke-width="1" width="220" x="1010" y="2030.0" /><text fill="#333333" font-family="Microsoft YaHei, SimHei, sans-serif" font-size="14" x="1020" y="2055.0">端口面板</text><path d="M 910 2050.0 C 960.0 2050.0 960.0 2105.0 1010 2105.0" fill="none" stroke="#bdc3c7" stroke-width="2" /><rect fill="#ffffff" height="40" rx="5" stroke="#bdc3c7" stroke-width="1" width="220" x="1010" y="2085.0" /><text fill="#333333" font-family="Microsoft YaHei, SimHei, sans-serif" font-size="14" x="1020" y="2110.0">散热风扇</text><path d="M 910 2050.0 C 960.0 2050.0 960.0 2160.0 1010 2160.0" fill="none" stroke="#bdc3c7" stroke-width="2" /><rect fill="#ffffff" height="40" rx="5" stroke="#bdc3c7" stroke-width="1" width="220" x="1010" y="2140.0" /><text fill="#333333" font-family="Microsoft YaHei, SimHei, sans-serif" font-size="14" x="1020" y="2165.0">电源模块</text><path d="M 910 2050.0 C 960.0 2050.0 960.0 2215.0 1010 2215.0" fill="none" stroke="#bdc3c7" stroke-width="2" /><rect fill="#ffffff" height="40" rx="5" stroke="#bdc3c7" stroke-width="1" width="220" x="1010" y="2195.0" /><text fill="#333333" font-family="Microsoft YaHei, SimHei, sans-serif" font-size="14" x="1020" y="2220.0">主控板/交换芯片</text><rect fill="#3498db" height="40" rx="5" stroke="#3498db" stroke-width="1" width="220" x="690" y="2030.0" /><text fill="#ffffff" font-family="Microsoft YaHei, SimHei, sans-serif" font-size="14" x="700" y="2055.0">3.2 网络部件</text><rect fill="#2980b9" height="40" rx="5" stroke="#2980b9" stroke-width="1" width="220" x="370" y="1865.0" /><text fill="#ffffff" font-family="Microsoft YaHei, SimHei, sans-serif" font-size="14" x="380" y="1890.0">三、网络设备 (Networking)</text><path d="M 270 2627.5 C 320.0 2627.5 320.0 2600.0 370 2600.0" fill="none" stroke="#bdc3c7" stroke-width="2" /><path d="M 590 2600.0 C 640.0 2600.0 640.0 2490.0 690 2490.0" fill="none" stroke="#bdc3c7" stroke-width="2" /><path d="M 910 2490.0 C 960.0 2490.0 960.0 2270.0 1010 2270.0" fill="none" stroke="#bdc3c7" stroke-width="2" /><rect fill="#ffffff" height="40" rx="5" stroke="#bdc3c7" stroke-width="1" width="220" x="1010" y="2250.0" /><text fill="#333333" font-family="Microsoft YaHei, SimHei, sans-serif" font-size="14" x="1020" y="2275.0">标准机柜（42U/48U）</text><path d="M 910 2490.0 C 960.0 2490.0 960.0 2325.0 1010 2325.0" fill="none" stroke="#bdc3c7" stroke-width="2" /><rect fill="#ffffff" height="40" rx="5" stroke="#bdc3c7" stroke-width="1" width="220" x="1010" y="2305.0" /><text fill="#333333" font-family="Microsoft YaHei, SimHei, sans-serif" font-size="14" x="1020" y="2330.0">前门（玻璃/穿孔）</text><path d="M 910 2490.0 C 960.0 2490.0 960.0 2380.0 1010 2380.0" fill="none" stroke="#bdc3c7" stroke-width="2" /><rect fill="#ffffff" height="40" rx="5" stroke="#bdc3c7" stroke-width="1" width="220" x="1010" y="2360.0" /><text fill="#333333" font-family="Microsoft YaHei, SimHei, sans-serif" font-size="14" x="1020" y="2385.0">后门（穿孔）</text><path d="M 910 2490.0 C 960.0 2490.0 960.0 2435.0 1010 2435.0" fill="none" stroke="#bdc3c7" stroke-width="2" /><rect fill="#ffffff" height="40" rx="5" stroke="#bdc3c7" stroke-width="1" width="220" x="1010" y="2415.0" /><text fill="#333333" font-family="Microsoft YaHei, SimHei, sans-serif" font-size="14" x="1020" y="2440.0">侧板</text><path d="M 910 2490.0 C 960.0 2490.0 960.0 2490.0 1010 2490.0" fill="none" stroke="#bdc3c7" stroke-width="2" /><rect fill="#ffffff" height="40" rx="5" stroke="#bdc3c7" stroke-width="1" width="220" x="1010" y="2470.0" /><text fill="#333333" font-family="Microsoft YaHei, SimHei, sans-serif" font-size="14" x="1020" y="2495.0">立柱导轨（Rails）</text><path d="M 910 2490.0 C 960.0 2490.0 960.0 2545.0 1010 2545.0" fill="none" stroke="#bdc3c7" stroke-width="2" /><rect fill="#ffffff" height="40" rx="5" stroke="#bdc3c7" stroke-width="1" width="220" x="1010" y="2525.0" /><text fill="#333333" font-family="Microsoft YaHei, SimHei, sans-serif" font-size="14" x="1020" y="2550.0">U位标识条</text><path d="M 910 2490.0 C 960.0 2490.0 960.0 2600.0 1010 2600.0" fill="none" stroke="#bdc3c7" stroke-width="2" /><rect fill="#ffffff" height="40" rx="5" stroke="#bdc3c7" stroke-width="1" width="220" x="1010" y="2580.0" /><text fill="#333333" font-family="Microsoft YaHei, SimHei, sans-serif" font-size="14" x="1020" y="2605.0">滑轨（Rail Kit）</text><path d="M 910 2490.0 C 960.0 2490.0 960.0 2655.0 1010 2655.0" fill="none" stroke="#bdc3c7" stroke-width="2" /><rect fill="#ffffff" height="40" rx="5" stroke="#bdc3c7" stroke-width="1" width="220" x="1010" y="2635.0" /><text fill="#333333" font-family="Microsoft YaHei, SimHei, sans-serif" font-size="14" x="1020" y="2660.0">托盘（Shelf）</text><path d="M 910 2490.0 C 960.0 2490.0 960.0 2710.0 1010 2710.0" fill="none" stroke="#bdc3c7" stroke-width="2" /><rect fill="#ffffff" height="40" rx="5" stroke="#bdc3c7" stroke-width="1" width="220" x="1010" y="2690.0" /><text fill="#333333" font-family="Microsoft YaHei, SimHei, sans-serif" font-size="14" x="1020" y="2715.0">螺丝/笼式螺母</text><rect fill="#3498db" height="40" rx="5" stroke="#3498db" stroke-width="1" width="220" x="690" y="2470.0" /><text fill="#ffffff" font-family="Microsoft YaHei, SimHei, sans-serif" font-size="14" x="700" y="2495.0">4.1 机柜结构</text><path d="M 590 2600.0 C 640.0 2600.0 640.0 2847.5 690 2847.5" fill="none" stroke="#bdc3c7" stroke-width="2" /><path d="M 910 2847.5 C 960.0 2847.5 960.0 2765.0 1010 2765.0" fill="none" stroke="#bdc3c7" stroke-width="2" /><rect fill="#ffffff" height="40" rx="5" stroke="#bdc3c7" stroke-width="1" width="220" x="1010" y="2745.0" /><text fill="#333333" font-family="Microsoft YaHei, SimHei, sans-serif" font-size="14" x="1020" y="2770.0">机柜底座</text><path d="M 910 2847.5 C 960.0 2847.5 960.0 2820.0 1010 2820.0" fill="none" stroke="#bdc3c7" stroke-width="2" /><rect fill="#ffffff" height="40" rx="5" stroke="#bdc3c7" stroke-width="1" width="220" x="1010" y="2800.0" /><text fill="#333333" font-family="Microsoft YaHei, SimHei, sans-serif" font-size="14" x="1020" y="2825.0">脚轮/地脚螺栓</text><path d="M 910 2847.5 C 960.0 2847.5 960.0 2875.0 1010 2875.0" fill="none" stroke="#bdc3c7" stroke-width="2" /><rect fill="#ffffff" height="40" rx="5" stroke="#bdc3c7" stroke-width="1" width="220" x="1010" y="2855.0" /><text fill="#333333" font-family="Microsoft YaHei, SimHei, sans-serif" font-size="14" x="1020" y="2880.0">防震组件</text><path d="M 910 2847.5 C 960.0 2847.5 960.0 2930.0 1010 2930.0" fill="none" stroke="#bdc3c7" stroke-width="2" /><rect fill="#ffffff" height="40" rx="5" stroke="#bdc3c7" stroke-width="1" width="220" x="1010" y="2910.0" /><text fill="#333333" font-family="Microsoft YaHei, SimHei, sans-serif" font-size="14" x="1020" y="2935.0">线缆固定件</text><rect fill="#3498db" height="40" rx="5" stroke="#3498db" stroke-width="1" width="220" x="690" y="2827.5" /><text fill="#ffffff" font-family="Microsoft YaHei, SimHei, sans-serif" font-size="14" x="700" y="2852.5">4.2 机柜附件</text><rect fill="#2980b9" height="40" rx="5" stroke="#2980b9" stroke-width="1" width="220" x="370" y="2580.0" /><text fill="#ffffff" font-family="Microsoft YaHei, SimHei, sans-serif" font-size="14" x="380" y="2605.0">四、机柜与机架 (Rack)</text><path d="M 270 2627.5 C 320.0 2627.5 320.0 3205.0 370 3205.0" fill="none" stroke="#bdc3c7" stroke-width="2" /><path d="M 590 3205.0 C 640.0 3205.0 640.0 3095.0 690 3095.0" fill="none" stroke="#bdc3c7" stroke-width="2" /><path d="M 910 3095.0 C 960.0 3095.0 960.0 2985.0 1010 2985.0" fill="none" stroke="#bdc3c7" stroke-width="2" /><rect fill="#ffffff" height="40" rx="5" stroke="#bdc3c7" stroke-width="1" width="220" x="1010" y="2965.0" /><text fill="#333333" font-family="Microsoft YaHei, SimHei, sans-serif" font-size="14" x="1020" y="2990.0">UPS（不间断电源）</text><path d="M 910 3095.0 C 960.0 3095.0 960.0 3040.0 1010 3040.0" fill="none" stroke="#bdc3c7" stroke-width="2" /><rect fill="#ffffff" height="40" rx="5" stroke="#bdc3c7" stroke-width="1" width="220" x="1010" y="3020.0" /><text fill="#333333" font-family="Microsoft YaHei, SimHei, sans-serif" font-size="14" x="1020" y="3045.0">PDU（机架电源分配单元）</text><path d="M 910 3095.0 C 960.0 3095.0 960.0 3095.0 1010 3095.0" fill="none" stroke="#bdc3c7" stroke-width="2" /><rect fill="#ffffff" height="40" rx="5" stroke="#bdc3c7" stroke-width="1" width="220" x="1010" y="3075.0" /><text fill="#333333" font-family="Microsoft YaHei, SimHei, sans-serif" font-size="14" x="1020" y="3100.0">配电柜（PDC）</text><path d="M 910 3095.0 C 960.0 3095.0 960.0 3150.0 1010 3150.0" fill="none" stroke="#bdc3c7" stroke-width="2" /><rect fill="#ffffff" height="40" rx="5" stroke="#bdc3c7" stroke-width="1" width="220" x="1010" y="3130.0" /><text fill="#333333" font-family="Microsoft YaHei, SimHei, sans-serif" font-size="14" x="1020" y="3155.0">母线槽（Busway）</text><path d="M 910 3095.0 C 960.0 3095.0 960.0 3205.0 1010 3205.0" fill="none" stroke="#bdc3c7" stroke-width="2" /><rect fill="#ffffff" height="40" rx="5" stroke="#bdc3c7" stroke-width="1" width="220" x="1010" y="3185.0" /><text fill="#333333" font-family="Microsoft YaHei, SimHei, sans-serif" font-size="14" x="1020" y="3210.0">电池组（锂电/铅酸）</text><rect fill="#3498db" height="40" rx="5" stroke="#3498db" stroke-width="1" width="220" x="690" y="3075.0" /><text fill="#ffffff" font-family="Microsoft YaHei, SimHei, sans-serif" font-size="14" x="700" y="3100.0">5.1 供电设备</text><path d="M 590 3205.0 C 640.0 3205.0 640.0 3342.5 690 3342.5" fill="none" stroke="#bdc3c7" stroke-width="2" /><path d="M 910 3342.5 C 960.0 3342.5 960.0 3260.0 1010 3260.0" fill="none" stroke="#bdc3c7" stroke-width="2" /><rect fill="#ffffff" height="40" rx="5" stroke="#bdc3c7" stroke-width="1" width="220" x="1010" y="3240.0" /><text fill="#333333" font-family="Microsoft YaHei, SimHei, sans-serif" font-size="14" x="1020" y="3265.0">断路器</text><path d="M 910 3342.5 C 960.0 3342.5 960.0 3315.0 1010 3315.0" fill="none" stroke="#bdc3c7" stroke-width="2" /><rect fill="#ffffff" height="40" rx="5" stroke="#bdc3c7" stroke-width="1" width="220" x="1010" y="3295.0" /><text fill="#333333" font-family="Microsoft YaHei, SimHei, sans-serif" font-size="14" x="1020" y="3320.0">插座模块</text><path d="M 910 3342.5 C 960.0 3342.5 960.0 3370.0 1010 3370.0" fill="none" stroke="#bdc3c7" stroke-width="2" /><rect fill="#ffffff" height="40" rx="5" stroke="#bdc3c7" stroke-width="1" width="220" x="1010" y="3350.0" /><text fill="#333333" font-family="Microsoft YaHei, SimHei, sans-serif" font-size="14" x="1020" y="3375.0">电源线（C13/C19）</text><path d="M 910 3342.5 C 960.0 3342.5 960.0 3425.0 1010 3425.0" fill="none" stroke="#bdc3c7" stroke-width="2" /><rect fill="#ffffff" height="40" rx="5" stroke="#bdc3c7" stroke-width="1" width="220" x="1010" y="3405.0" /><text fill="#333333" font-family="Microsoft YaHei, SimHei, sans-serif" font-size="14" x="1020" y="3430.0">电源监控模块</text><rect fill="#3498db" height="40" rx="5" stroke="#3498db" stroke-width="1" width="220" x="690" y="3322.5" /><text fill="#ffffff" font-family="Microsoft YaHei, SimHei, sans-serif" font-size="14" x="700" y="3347.5">5.2 电力部件</text><rect fill="#2980b9" height="40" rx="5" stroke="#2980b9" stroke-width="1" width="220" x="370" y="3185.0" /><text fill="#ffffff" font-family="Microsoft YaHei, SimHei, sans-serif" font-size="14" x="380" y="3210.0">五、供配电系统 (Power)</text><path d="M 270 2627.5 C 320.0 2627.5 320.0 3727.5 370 3727.5" fill="none" stroke="#bdc3c7" stroke-width="2" /><path d="M 590 3727.5 C 640.0 3727.5 640.0 3590.0 690 3590.0" fill="none" stroke="#bdc3c7" stroke-width="2" /><path d="M 910 3590.0 C 960.0 3590.0 960.0 3480.0 1010 3480.0" fill="none" stroke="#bdc3c7" stroke-width="2" /><rect fill="#ffffff" height="40" rx="5" stroke="#bdc3c7" stroke-width="1" width="220" x="1010" y="3460.0" /><text fill="#333333" font-family="Microsoft YaHei, SimHei, sans-serif" font-size="14" x="1020" y="3485.0">机房空调（CRAC/CRAH）</text><path d="M 910 3590.0 C 960.0 3590.0 960.0 3535.0 1010 3535.0" fill="none" stroke="#bdc3c7" stroke-width="2" /><rect fill="#ffffff" height="40" rx="5" stroke="#bdc3c7" stroke-width="1" width="220" x="1010" y="3515.0" /><text fill="#333333" font-family="Microsoft YaHei, SimHei, sans-serif" font-size="14" x="1020" y="3540.0">行级空调（In-row Cooling）</text><path d="M 910 3590.0 C 960.0 3590.0 960.0 3590.0 1010 3590.0" fill="none" stroke="#bdc3c7" stroke-width="2" /><rect fill="#ffffff" height="40" rx="5" stroke="#bdc3c7" stroke-width="1" width="220" x="1010" y="3570.0" /><text fill="#333333" font-family="Microsoft YaHei, SimHei, sans-serif" font-size="14" x="1020" y="3595.0">液冷系统（冷板/浸没式）</text><path d="M 910 3590.0 C 960.0 3590.0 960.0 3645.0 1010 3645.0" fill="none" stroke="#bdc3c7" stroke-width="2" /><rect fill="#ffffff" height="40" rx="5" stroke="#bdc3c7" stroke-width="1" width="220" x="1010" y="3625.0" /><text fill="#333333" font-family="Microsoft YaHei, SimHei, sans-serif" font-size="14" x="1020" y="3650.0">风道管理（前进后出）</text><path d="M 910 3590.0 C 960.0 3590.0 960.0 3700.0 1010 3700.0" fill="none" stroke="#bdc3c7" stroke-width="2" /><rect fill="#ffffff" height="40" rx="5" stroke="#bdc3c7" stroke-width="1" width="220" x="1010" y="3680.0" /><text fill="#333333" font-family="Microsoft YaHei, SimHei, sans-serif" font-size="14" x="1020" y="3705.0">冷/热通道封闭系统</text><rect fill="#3498db" height="40" rx="5" stroke="#3498db" stroke-width="1" width="220" x="690" y="3570.0" /><text fill="#ffffff" font-family="Microsoft YaHei, SimHei, sans-serif" font-size="14" x="700" y="3595.0">6.1 散热系统</text><path d="M 590 3727.5 C 640.0 3727.5 640.0 3865.0 690 3865.0" fill="none" stroke="#bdc3c7" stroke-width="2" /><path d="M 910 3865.0 C 960.0 3865.0 960.0 3755.0 1010 3755.0" fill="none" stroke="#bdc3c7" stroke-width="2" /><rect fill="#ffffff" height="40" rx="5" stroke="#bdc3c7" stroke-width="1" width="220" x="1010" y="3735.0" /><text fill="#333333" font-family="Microsoft YaHei, SimHei, sans-serif" font-size="14" x="1020" y="3760.0">风扇模块</text><path d="M 910 3865.0 C 960.0 3865.0 960.0 3810.0 1010 3810.0" fill="none" stroke="#bdc3c7" stroke-width="2" /><rect fill="#ffffff" height="40" rx="5" stroke="#bdc3c7" stroke-width="1" width="220" x="1010" y="3790.0" /><text fill="#333333" font-family="Microsoft YaHei, SimHei, sans-serif" font-size="14" x="1020" y="3815.0">冷板</text><path d="M 910 3865.0 C 960.0 3865.0 960.0 3865.0 1010 3865.0" fill="none" stroke="#bdc3c7" stroke-width="2" /><rect fill="#ffffff" height="40" rx="5" stroke="#bdc3c7" stroke-width="1" width="220" x="1010" y="3845.0" /><text fill="#333333" font-family="Microsoft YaHei, SimHei, sans-serif" font-size="14" x="1020" y="3870.0">散热片</text><path d="M 910 3865.0 C 960.0 3865.0 960.0 3920.0 1010 3920.0" fill="none" stroke="#bdc3c7" stroke-width="2" /><rect fill="#ffffff" height="40" rx="5" stroke="#bdc3c7" stroke-width="1" width="220" x="1010" y="3900.0" /><text fill="#333333" font-family="Microsoft YaHei, SimHei, sans-serif" font-size="14" x="1020" y="3925.0">风道隔板</text><path d="M 910 3865.0 C 960.0 3865.0 960.0 3975.0 1010 3975.0" fill="none" stroke="#bdc3c7" stroke-width="2" /><rect fill="#ffffff" height="40" rx="5" stroke="#bdc3c7" stroke-width="1" width="220" x="1010" y="3955.0" /><text fill="#333333" font-family="Microsoft YaHei, SimHei, sans-serif" font-size="14" x="1020" y="3980.0">穿孔门</text><rect fill="#3498db" height="40" rx="5" stroke="#3498db" stroke-width="1" width="220" x="690" y="3845.0" /><text fill="#ffffff" font-family="Microsoft YaHei, SimHei, sans-serif" font-size="14" x="700" y="3870.0">6.2 散热部件</text><rect fill="#2980b9" height="40" rx="5" stroke="#2980b9" stroke-width="1" width="220" x="370" y="3707.5" /><text fill="#ffffff" font-family="Microsoft YaHei, SimHei, sans-serif" font-size="14" x="380" y="3732.5">六、散热与环境 (Cooling)</text><path d="M 270 2627.5 C 320.0 2627.5 320.0 4222.5 370 4222.5" fill="none" stroke="#bdc3c7" stroke-width="2" /><path d="M 590 4222.5 C 640.0 4222.5 640.0 4112.5 690 4112.5" fill="none" stroke="#bdc3c7" stroke-width="2" /><path d="M 910 4112.5 C 960.0 4112.5 960.0 4030.0 1010 4030.0" fill="none" stroke="#bdc3c7" stroke-width="2" /><rect fill="#ffffff" height="40" rx="5" stroke="#bdc3c7" stroke-width="1" width="220" x="1010" y="4010.0" /><text fill="#333333" font-family="Microsoft YaHei, SimHei, sans-serif" font-size="14" x="1020" y="4035.0">配线架（Patch Panel）</text><path d="M 910 4112.5 C 960.0 4112.5 960.0 4085.0 1010 4085.0" fill="none" stroke="#bdc3c7" stroke-width="2" /><rect fill="#ffffff" height="40" rx="5" stroke="#bdc3c7" stroke-width="1" width="220" x="1010" y="4065.0" /><text fill="#333333" font-family="Microsoft YaHei, SimHei, sans-serif" font-size="14" x="1020" y="4090.0">理线器（Cable Manager）</text><path d="M 910 4112.5 C 960.0 4112.5 960.0 4140.0 1010 4140.0" fill="none" stroke="#bdc3c7" stroke-width="2" /><rect fill="#ffffff" height="40" rx="5" stroke="#bdc3c7" stroke-width="1" width="220" x="1010" y="4120.0" /><text fill="#333333" font-family="Microsoft YaHei, SimHei, sans-serif" font-size="14" x="1020" y="4145.0">光纤配线箱（ODF）</text><path d="M 910 4112.5 C 960.0 4112.5 960.0 4195.0 1010 4195.0" fill="none" stroke="#bdc3c7" stroke-width="2" /><rect fill="#ffffff" height="40" rx="5" stroke="#bdc3c7" stroke-width="1" width="220" x="1010" y="4175.0" /><text fill="#333333" font-family="Microsoft YaHei, SimHei, sans-serif" font-size="14" x="1020" y="4200.0">机柜侧边布线槽</text><rect fill="#3498db" height="40" rx="5" stroke="#3498db" stroke-width="1" width="220" x="690" y="4092.5" /><text fill="#ffffff" font-family="Microsoft YaHei, SimHei, sans-serif" font-size="14" x="700" y="4117.5">7.1 布线设备</text><path d="M 590 4222.5 C 640.0 4222.5 640.0 4332.5 690 4332.5" fill="none" stroke="#bdc3c7" stroke-width="2" /><path d="M 910 4332.5 C 960.0 4332.5 960.0 4250.0 1010 4250.0" fill="none" stroke="#bdc3c7" stroke-width="2" /><rect fill="#ffffff" height="40" rx="5" stroke="#bdc3c7" stroke-width="1" width="220" x="1010" y="4230.0" /><text fill="#333333" font-family="Microsoft YaHei, SimHei, sans-serif" font-size="14" x="1020" y="4255.0">光纤跳线（LC/SC）</text><path d="M 910 4332.5 C 960.0 4332.5 960.0 4305.0 1010 4305.0" fill="none" stroke="#bdc3c7" stroke-width="2" /><rect fill="#ffffff" height="40" rx="5" stroke="#bdc3c7" stroke-width="1" width="220" x="1010" y="4285.0" /><text fill="#333333" font-family="Microsoft YaHei, SimHei, sans-serif" font-size="14" x="1020" y="4310.0">铜缆（Cat6/Cat6A）</text><path d="M 910 4332.5 C 960.0 4332.5 960.0 4360.0 1010 4360.0" fill="none" stroke="#bdc3c7" stroke-width="2" /><rect fill="#ffffff" height="40" rx="5" stroke="#bdc3c7" stroke-width="1" width="220" x="1010" y="4340.0" /><text fill="#333333" font-family="Microsoft YaHei, SimHei, sans-serif" font-size="14" x="1020" y="4365.0">光模块</text><path d="M 910 4332.5 C 960.0 4332.5 960.0 4415.0 1010 4415.0" fill="none" stroke="#bdc3c7" stroke-width="2" /><rect fill="#ffffff" height="40" rx="5" stroke="#bdc3c7" stroke-width="1" width="220" x="1010" y="4395.0" /><text fill="#333333" font-family="Microsoft YaHei, SimHei, sans-serif" font-size="14" x="1020" y="4420.0">标签系统</text><rect fill="#3498db" height="40" rx="5" stroke="#3498db" stroke-width="1" width="220" x="690" y="4312.5" /><text fill="#ffffff" font-family="Microsoft YaHei, SimHei, sans-serif" font-size="14" x="700" y="4337.5">7.2 布线部件</text><rect fill="#2980b9" height="40" rx="5" stroke="#2980b9" stroke-width="1" width="220" x="370" y="4202.5" /><text fill="#ffffff" font-family="Microsoft YaHei, SimHei, sans-serif" font-size="14" x="380" y="4227.5">七、布线系统 (Cabling)</text><path d="M 270 2627.5 C 320.0 2627.5 320.0 4662.5 370 4662.5" fill="none" stroke="#bdc3c7" stroke-width="2" /><path d="M 590 4662.5 C 640.0 4662.5 640.0 4552.5 690 4552.5" fill="none" stroke="#bdc3c7" stroke-width="2" /><path d="M 910 4552.5 C 960.0 4552.5 960.0 4470.0 1010 4470.0" fill="none" stroke="#bdc3c7" stroke-width="2" /><rect fill="#ffffff" height="40" rx="5" stroke="#bdc3c7" stroke-width="1" width="220" x="1010" y="4450.0" /><text fill="#333333" font-family="Microsoft YaHei, SimHei, sans-serif" font-size="14" x="1020" y="4475.0">机柜门禁</text><path d="M 910 4552.5 C 960.0 4552.5 960.0 4525.0 1010 4525.0" fill="none" stroke="#bdc3c7" stroke-width="2" /><rect fill="#ffffff" height="40" rx="5" stroke="#bdc3c7" stroke-width="1" width="220" x="1010" y="4505.0" /><text fill="#333333" font-family="Microsoft YaHei, SimHei, sans-serif" font-size="14" x="1020" y="4530.0">机房门禁</text><path d="M 910 4552.5 C 960.0 4552.5 960.0 4580.0 1010 4580.0" fill="none" stroke="#bdc3c7" stroke-width="2" /><rect fill="#ffffff" height="40" rx="5" stroke="#bdc3c7" stroke-width="1" width="220" x="1010" y="4560.0" /><text fill="#333333" font-family="Microsoft YaHei, SimHei, sans-serif" font-size="14" x="1020" y="4585.0">视频监控</text><path d="M 910 4552.5 C 960.0 4552.5 960.0 4635.0 1010 4635.0" fill="none" stroke="#bdc3c7" stroke-width="2" /><rect fill="#ffffff" height="40" rx="5" stroke="#bdc3c7" stroke-width="1" width="220" x="1010" y="4615.0" /><text fill="#333333" font-family="Microsoft YaHei, SimHei, sans-serif" font-size="14" x="1020" y="4640.0">入侵检测</text><rect fill="#3498db" height="40" rx="5" stroke="#3498db" stroke-width="1" width="220" x="690" y="4532.5" /><text fill="#ffffff" font-family="Microsoft YaHei, SimHei, sans-serif" font-size="14" x="700" y="4557.5">8.1 安全设备</text><path d="M 590 4662.5 C 640.0 4662.5 640.0 4772.5 690 4772.5" fill="none" stroke="#bdc3c7" stroke-width="2" /><path d="M 910 4772.5 C 960.0 4772.5 960.0 4690.0 1010 4690.0" fill="none" stroke="#bdc3c7" stroke-width="2" /><rect fill="#ffffff" height="40" rx="5" stroke="#bdc3c7" stroke-width="1" width="220" x="1010" y="4670.0" /><text fill="#333333" font-family="Microsoft YaHei, SimHei, sans-serif" font-size="14" x="1020" y="4695.0">温湿度传感器</text><path d="M 910 4772.5 C 960.0 4772.5 960.0 4745.0 1010 4745.0" fill="none" stroke="#bdc3c7" stroke-width="2" /><rect fill="#ffffff" height="40" rx="5" stroke="#bdc3c7" stroke-width="1" width="220" x="1010" y="4725.0" /><text fill="#333333" font-family="Microsoft YaHei, SimHei, sans-serif" font-size="14" x="1020" y="4750.0">烟感</text><path d="M 910 4772.5 C 960.0 4772.5 960.0 4800.0 1010 4800.0" fill="none" stroke="#bdc3c7" stroke-width="2" /><rect fill="#ffffff" height="40" rx="5" stroke="#bdc3c7" stroke-width="1" width="220" x="1010" y="4780.0" /><text fill="#333333" font-family="Microsoft YaHei, SimHei, sans-serif" font-size="14" x="1020" y="4805.0">水浸传感器</text><path d="M 910 4772.5 C 960.0 4772.5 960.0 4855.0 1010 4855.0" fill="none" stroke="#bdc3c7" stroke-width="2" /><rect fill="#ffffff" height="40" rx="5" stroke="#bdc3c7" stroke-width="1" width="220" x="1010" y="4835.0" /><text fill="#333333" font-family="Microsoft YaHei, SimHei, sans-serif" font-size="14" x="1020" y="4860.0">震动传感器</text><rect fill="#3498db" height="40" rx="5" stroke="#3498db" stroke-width="1" width="220" x="690" y="4752.5" /><text fill="#ffffff" font-family="Microsoft YaHei, SimHei, sans-serif" font-size="14" x="700" y="4777.5">8.2 监控部件</text><rect fill="#2980b9" height="40" rx="5" stroke="#2980b9" stroke-width="1" width="220" x="370" y="4642.5" /><text fill="#ffffff" font-family="Microsoft YaHei, SimHei, sans-serif" font-size="14" x="380" y="4667.5">八、安全与监控 (Security)</text><path d="M 270 2627.5 C 320.0 2627.5 320.0 5047.5 370 5047.5" fill="none" stroke="#bdc3c7" stroke-width="2" /><path d="M 590 5047.5 C 640.0 5047.5 640.0 4992.5 690 4992.5" fill="none" stroke="#bdc3c7" stroke-width="2" /><path d="M 910 4992.5 C 960.0 4992.5 960.0 4910.0 1010 4910.0" fill="none" stroke="#bdc3c7" stroke-width="2" /><rect fill="#ffffff" height="40" rx="5" stroke="#bdc3c7" stroke-width="1" width="220" x="1010" y="4890.0" /><text fill="#333333" font-family="Microsoft YaHei, SimHei, sans-serif" font-size="14" x="1020" y="4915.0">DCIM基础设施管理</text><path d="M 910 4992.5 C 960.0 4992.5 960.0 4965.0 1010 4965.0" fill="none" stroke="#bdc3c7" stroke-width="2" /><rect fill="#ffffff" height="40" rx="5" stroke="#bdc3c7" stroke-width="1" width="220" x="1010" y="4945.0" /><text fill="#333333" font-family="Microsoft YaHei, SimHei, sans-serif" font-size="14" x="1020" y="4970.0">BMC/IPMI服务器管理</text><path d="M 910 4992.5 C 960.0 4992.5 960.0 5020.0 1010 5020.0" fill="none" stroke="#bdc3c7" stroke-width="2" /><rect fill="#ffffff" height="40" rx="5" stroke="#bdc3c7" stroke-width="1" width="220" x="1010" y="5000.0" /><text fill="#333333" font-family="Microsoft YaHei, SimHei, sans-serif" font-size="14" x="1020" y="5025.0">资产管理系统</text><path d="M 910 4992.5 C 960.0 4992.5 960.0 5075.0 1010 5075.0" fill="none" stroke="#bdc3c7" stroke-width="2" /><rect fill="#ffffff" height="40" rx="5" stroke="#bdc3c7" stroke-width="1" width="220" x="1010" y="5055.0" /><text fill="#333333" font-family="Microsoft YaHei, SimHei, sans-serif" font-size="14" x="1020" y="5080.0">监控告警系统</text><rect fill="#3498db" height="40" rx="5" stroke="#3498db" stroke-width="1" width="220" x="690" y="4972.5" /><text fill="#ffffff" font-family="Microsoft YaHei, SimHei, sans-serif" font-size="14" x="700" y="4997.5">9.1 管理系统</text><path d="M 590 5047.5 C 640.0 5047.5 640.0 5157.5 690 5157.5" fill="none" stroke="#bdc3c7" stroke-width="2" /><path d="M 910 5157.5 C 960.0 5157.5 960.0 5130.0 1010 5130.0" fill="none" stroke="#bdc3c7" stroke-width="2" /><rect fill="#ffffff" height="40" rx="5" stroke="#bdc3c7" stroke-width="1" width="220" x="1010" y="5110.0" /><text fill="#333333" font-family="Microsoft YaHei, SimHei, sans-serif" font-size="14" x="1020" y="5135.0">KVM切换器</text><path d="M 910 5157.5 C 960.0 5157.5 960.0 5185.0 1010 5185.0" fill="none" stroke="#bdc3c7" stroke-width="2" /><rect fill="#ffffff" height="40" rx="5" stroke="#bdc3c7" stroke-width="1" width="220" x="1010" y="5165.0" /><text fill="#333333" font-family="Microsoft YaHei, SimHei, sans-serif" font-size="14" x="1020" y="5190.0">控制台抽屉</text><rect fill="#3498db" height="40" rx="5" stroke="#3498db" stroke-width="1" width="220" x="690" y="5137.5" /><text fill="#ffffff" font-family="Microsoft YaHei, SimHei, sans-serif" font-size="14" x="700" y="5162.5">9.2 运维部件</text><rect fill="#2980b9" height="40" rx="5" stroke="#2980b9" stroke-width="1" width="220" x="370" y="5027.5" /><text fill="#ffffff" font-family="Microsoft YaHei, SimHei, sans-serif" font-size="14" x="380" y="5052.5">九、运维与管理 (O&amp;M)</text><rect fill="#2c3e50" height="40" rx="5" stroke="#2c3e50" stroke-width="1" width="220" x="50" y="2607.5" /><text fill="#ffffff" font-family="Microsoft YaHei, SimHei, sans-serif" font-size="14" x="60" y="2632.5">数据中心基础设施全景</text></svg>