<?xml version="1.0" encoding="utf-8" ?>
<svg baseProfile="tiny" height="1600" version="1.2" width="2400" xmlns="http://www.w3.org/2000/svg" xmlns:ev="http://www.w3.org/2001/xml-events" xmlns:xlink="http://www.w3.org/1999/xlink"><defs /><rect fill="#f8f9fa" height="1600" width="2400" x="0" y="0" /><rect fill="#2c3e50" height="80" width="2400" x="0" y="0" /><text fill="#ffffff" font-family="Microsoft YaHei, SimHei, sans-serif" font-size="40" font-weight="bold" text-anchor="middle" x="1200.0" y="55">算力产业现状及招商图谱 (Wangzhuang Investment Map)</text><rect fill="#3498db" height="40" rx="5" width="600" x="40" y="100" /><text fill="#ffffff" font-family="Microsoft YaHei, SimHei, sans-serif" font-size="24" font-weight="bold" x="60" y="128">一、产业概况 (Overview)</text><rect fill="#ffffff" height="200" rx="5" stroke="#ddd" width="600" x="40" y="150" /><rect fill="#ecf0f1" height="35" rx="5" width="600" x="40" y="150" /><text fill="#2c3e50" font-family="Microsoft YaHei, SimHei, sans-serif" font-size="20" font-weight="bold" x="50" y="174">产业定义与规模</text><text fill="#333333" font-family="Microsoft YaHei, SimHei, sans-serif" font-size="16" x="55" y="210">算力定义：集信息计算力、网络运载力、数据存储力于一体的新型生产力。</text><text fill="#333333" font-family="Microsoft YaHei, SimHei, sans-serif" font-size="16" x="55" y="234">核心分类：通用算力(CPU, 70%)、智能算力(GPU, &gt;30%且增速快)、超算算力。</text><text fill="#333333" font-family="Microsoft YaHei, SimHei, sans-serif" font-size="16" x="55" y="258">市场规模：2025年预计达8351亿元，AI基础设施占比约33%。</text><text fill="#333333" font-family="Microsoft YaHei, SimHei, sans-serif" font-size="16" x="55" y="282">巨头动向：阿里/腾讯/字节等投入4500亿，70%用于基础设施。</text><rect fill="#3498db" height="40" rx="5" width="600" x="40" y="370" /><text fill="#ffffff" font-family="Microsoft YaHei, SimHei, sans-serif" font-size="24" font-weight="bold" x="60" y="398">二、关键发展趋势 (Key Trends)</text><rect fill="#ffffff" height="200" rx="5" stroke="#ddd" width="600" x="40" y="420" /><rect fill="#ecf0f1" height="35" rx="5" width="600" x="40" y="420" /><text fill="#2c3e50" font-family="Microsoft YaHei, SimHei, sans-serif" font-size="20" font-weight="bold" x="50" y="444">趋势1：推理算力爆发</text><text fill="#333333" font-family="Microsoft YaHei, SimHei, sans-serif" font-size="16" x="55" y="480">观点来源：沙利文/IDC</text><text fill="#333333" font-family="Microsoft YaHei, SimHei, sans-serif" font-size="16" x="55" y="504">趋势：2026年推理端占比将破60%。</text><text fill="#333333" font-family="Microsoft YaHei, SimHei, sans-serif" font-size="16" x="55" y="528">驱动：AI应用泛在化(自动驾驶/工业质检)。</text><text fill="#333333" font-family="Microsoft YaHei, SimHei, sans-serif" font-size="16" x="55" y="552">旺庄机会：边缘计算设备制造。</text><rect fill="#ffffff" height="200" rx="5" stroke="#ddd" width="600" x="40" y="640" /><rect fill="#ecf0f1" height="35" rx="5" width="600" x="40" y="640" /><text fill="#2c3e50" font-family="Microsoft YaHei, SimHei, sans-serif" font-size="20" font-weight="bold" x="50" y="664">趋势2：液冷成为标配</text><text fill="#333333" font-family="Microsoft YaHei, SimHei, sans-serif" font-size="16" x="55" y="700">观点来源：中国信通院</text><text fill="#333333" font-family="Microsoft YaHei, SimHei, sans-serif" font-size="16" x="55" y="724">趋势：单机柜功率&gt;10kW，液冷渗透率2025年达20%。</text><text fill="#333333" font-family="Microsoft YaHei, SimHei, sans-serif" font-size="16" x="55" y="748">驱动：高功耗芯片散热需求+PUE&lt;1.25红线。</text><text fill="#333333" font-family="Microsoft YaHei, SimHei, sans-serif" font-size="16" x="55" y="772">旺庄机会：液冷板、管路等精密结构件。</text><rect fill="#ffffff" height="200" rx="5" stroke="#ddd" width="600" x="40" y="860" /><rect fill="#ecf0f1" height="35" rx="5" width="600" x="40" y="860" /><text fill="#2c3e50" font-family="Microsoft YaHei, SimHei, sans-serif" font-size="20" font-weight="bold" x="50" y="884">趋势3：国产替代加速</text><text fill="#333333" font-family="Microsoft YaHei, SimHei, sans-serif" font-size="16" x="55" y="920">观点来源：发改委/信通院</text><text fill="#333333" font-family="Microsoft YaHei, SimHei, sans-serif" font-size="16" x="55" y="944">趋势：智算中心国产芯片采购占比预计破50%。</text><text fill="#333333" font-family="Microsoft YaHei, SimHei, sans-serif" font-size="16" x="55" y="968">驱动：供应链安全+信创政策下沉。</text><text fill="#333333" font-family="Microsoft YaHei, SimHei, sans-serif" font-size="16" x="55" y="992">旺庄机会：信创服务器生产及适配中心。</text><rect fill="#ffffff" height="200" rx="5" stroke="#ddd" width="600" x="40" y="1080" /><rect fill="#ecf0f1" height="35" rx="5" width="600" x="40" y="1080" /><text fill="#2c3e50" font-family="Microsoft YaHei, SimHei, sans-serif" font-size="20" font-weight="bold" x="50" y="1104">趋势4：应用场景纵深</text><text fill="#333333" font-family="Microsoft YaHei, SimHei, sans-serif" font-size="16" x="55" y="1140">观点来源：艾媒咨询</text><text fill="#333333" font-family="Microsoft YaHei, SimHei, sans-serif" font-size="16" x="55" y="1164">趋势：从通用技术向垂直行业(AI+制造/金融)渗透。</text><text fill="#333333" font-family="Microsoft YaHei, SimHei, sans-serif" font-size="16" x="55" y="1188">驱动：企业降本增效需求，MaaS模式普及。</text><text fill="#333333" font-family="Microsoft YaHei, SimHei, sans-serif" font-size="16" x="55" y="1212">旺庄机会：引入AI应用层企业建立交付中心。</text><rect fill="#3498db" height="40" rx="5" width="1100" x="660" y="100" /><text fill="#ffffff" font-family="Microsoft YaHei, SimHei, sans-serif" font-size="24" font-weight="bold" x="680" y="128">二、产业链核心环节与重点企业 (Core Value Chain)</text><rect fill="#34495e" height="600" rx="10" stroke="#2c3e50" stroke-width="5" width="400" x="1010" y="210" /><text fill="#2c3e50" font-family="Microsoft YaHei, SimHei, sans-serif" font-size="24" font-weight="bold" text-anchor="middle" x="1210.0" y="195">AI 智算服务器机柜</text><rect fill="#95a5a6" height="50" rx="3" width="360" x="1030" y="250" /><circle cx="1050" cy="275.0" fill="#2ecc71" r="5" /><circle cx="1070" cy="275.0" fill="#f1c40f" r="5" /><line stroke="#e74c3c" stroke-width="2" x1="1010" x2="1010" y1="275.0" y2="275.0" /><rect fill="#fff" height="100" rx="5" stroke="#e74c3c" stroke-width="2" width="300" x="680" y="235.0" /><text fill="#e74c3c" font-family="Microsoft YaHei, SimHei, sans-serif" font-size="18" font-weight="bold" x="690" y="260.0">AI 芯片 (GPU/ASIC)</text><text fill="#333" font-family="Microsoft YaHei, SimHei, sans-serif" font-size="14" x="690" y="285.0">目标: 华为昇腾, 寒武纪, 海光信息</text><text fill="#27ae60" font-family="Microsoft YaHei, SimHei, sans-serif" font-size="14" font-weight="bold" x="690" y="310.0">旺庄: 难度大，关注封装测试</text><rect fill="#95a5a6" height="50" rx="3" width="360" x="1030" y="310" /><circle cx="1050" cy="335.0" fill="#2ecc71" r="5" /><circle cx="1070" cy="335.0" fill="#f1c40f" r="5" /><line stroke="#e74c3c" stroke-width="2" x1="1410" x2="1410" y1="335.0" y2="335.0" /><rect fill="#fff" height="100" rx="5" stroke="#e74c3c" stroke-width="2" width="300" x="1440" y="295.0" /><text fill="#e74c3c" font-family="Microsoft YaHei, SimHei, sans-serif" font-size="18" font-weight="bold" x="1450" y="320.0">液冷温控系统</text><text fill="#333" font-family="Microsoft YaHei, SimHei, sans-serif" font-size="14" x="1450" y="345.0">目标: 英维克, 曙光数创, 申菱环境</text><text fill="#27ae60" font-family="Microsoft YaHei, SimHei, sans-serif" font-size="14" font-weight="bold" x="1450" y="370.0">旺庄: 精密制造(阀件/管路)完美匹配</text><rect fill="#95a5a6" height="50" rx="3" width="360" x="1030" y="370" /><circle cx="1050" cy="395.0" fill="#2ecc71" r="5" /><circle cx="1070" cy="395.0" fill="#f1c40f" r="5" /><line stroke="#e74c3c" stroke-width="2" x1="1010" x2="1010" y1="395.0" y2="395.0" /><rect fill="#fff" height="100" rx="5" stroke="#e74c3c" stroke-width="2" width="300" x="680" y="355.0" /><text fill="#e74c3c" font-family="Microsoft YaHei, SimHei, sans-serif" font-size="18" font-weight="bold" x="690" y="380.0">高速光模块 (CPO)</text><text fill="#333" font-family="Microsoft YaHei, SimHei, sans-serif" font-size="14" x="690" y="405.0">目标: 中际旭创, 新易盛, 天孚通信</text><text fill="#27ae60" font-family="Microsoft YaHei, SimHei, sans-serif" font-size="14" font-weight="bold" x="690" y="430.0">旺庄: 高端电子制造，人力素质匹配</text><rect fill="#95a5a6" height="50" rx="3" width="360" x="1030" y="430" /><circle cx="1050" cy="455.0" fill="#2ecc71" r="5" /><circle cx="1070" cy="455.0" fill="#f1c40f" r="5" /><line stroke="#e74c3c" stroke-width="2" x1="1410" x2="1410" y1="455.0" y2="455.0" /><rect fill="#fff" height="100" rx="5" stroke="#e74c3c" stroke-width="2" width="300" x="1440" y="415.0" /><text fill="#e74c3c" font-family="Microsoft YaHei, SimHei, sans-serif" font-size="18" font-weight="bold" x="1450" y="440.0">AI 服务器整机</text><text fill="#333" font-family="Microsoft YaHei, SimHei, sans-serif" font-size="14" x="1450" y="465.0">目标: 浪潮信息, 中科曙光, 工业富联</text><text fill="#27ae60" font-family="Microsoft YaHei, SimHei, sans-serif" font-size="14" font-weight="bold" x="1450" y="490.0">旺庄: 整机组装产值大，带动配套</text><rect fill="#95a5a6" height="50" rx="3" width="360" x="1030" y="490" /><circle cx="1050" cy="515.0" fill="#2ecc71" r="5" /><circle cx="1070" cy="515.0" fill="#f1c40f" r="5" /><line stroke="#e74c3c" stroke-width="2" x1="1010" x2="1010" y1="515.0" y2="515.0" /><rect fill="#fff" height="100" rx="5" stroke="#e74c3c" stroke-width="2" width="300" x="680" y="475.0" /><text fill="#e74c3c" font-family="Microsoft YaHei, SimHei, sans-serif" font-size="18" font-weight="bold" x="690" y="500.0">电源与供配电</text><text fill="#333" font-family="Microsoft YaHei, SimHei, sans-serif" font-size="14" x="690" y="525.0">目标: 台达电子, 科华数据</text><text fill="#27ae60" font-family="Microsoft YaHei, SimHei, sans-serif" font-size="14" font-weight="bold" x="690" y="550.0">旺庄: 电力设备制造基础</text><rect fill="#95a5a6" height="50" rx="3" width="360" x="1030" y="550" /><circle cx="1050" cy="575.0" fill="#2ecc71" r="5" /><circle cx="1070" cy="575.0" fill="#f1c40f" r="5" /><line stroke="#e74c3c" stroke-width="2" x1="1410" x2="1410" y1="575.0" y2="575.0" /><rect fill="#fff" height="100" rx="5" stroke="#e74c3c" stroke-width="2" width="300" x="1440" y="535.0" /><text fill="#e74c3c" font-family="Microsoft YaHei, SimHei, sans-serif" font-size="18" font-weight="bold" x="1450" y="560.0">网络交换设备</text><text fill="#333" font-family="Microsoft YaHei, SimHei, sans-serif" font-size="14" x="1450" y="585.0">目标: 新华三, 锐捷网络</text><text fill="#27ae60" font-family="Microsoft YaHei, SimHei, sans-serif" font-size="14" font-weight="bold" x="1450" y="610.0">旺庄: 网络设备组装</text><rect fill="#95a5a6" height="50" rx="3" width="360" x="1030" y="610" /><circle cx="1050" cy="635.0" fill="#2ecc71" r="5" /><circle cx="1070" cy="635.0" fill="#f1c40f" r="5" /><rect fill="#95a5a6" height="50" rx="3" width="360" x="1030" y="670" /><circle cx="1050" cy="695.0" fill="#2ecc71" r="5" /><circle cx="1070" cy="695.0" fill="#f1c40f" r="5" /><rect fill="#3498db" height="40" rx="5" width="1100" x="660" y="840" /><text fill="#ffffff" font-family="Microsoft YaHei, SimHei, sans-serif" font-size="24" font-weight="bold" x="680" y="868">全球及国内领军企业名录 (Leading Enterprises)</text><rect fill="#ecf0f1" height="250" rx="5" width="353.3333" x="680.0" y="900" /><text fill="#2980b9" font-family="Microsoft YaHei, SimHei, sans-serif" font-size="18" font-weight="bold" x="700.0" y="930">上游：核心硬件</text><text fill="#333" font-family="Microsoft YaHei, SimHei, sans-serif" font-size="16" x="700.0" y="960">• 英伟达 (NVIDIA)</text><text fill="#333" font-family="Microsoft YaHei, SimHei, sans-serif" font-size="16" x="700.0" y="985">• AMD</text><text fill="#333" font-family="Microsoft YaHei, SimHei, sans-serif" font-size="16" x="700.0" y="1010">• 海光信息</text><text fill="#333" font-family="Microsoft YaHei, SimHei, sans-serif" font-size="16" x="700.0" y="1035">• 寒武纪</text><text fill="#333" font-family="Microsoft YaHei, SimHei, sans-serif" font-size="16" x="700.0" y="1060">• 中际旭创</text><text fill="#333" font-family="Microsoft YaHei, SimHei, sans-serif" font-size="16" x="700.0" y="1085">• 英维克</text><text fill="#333" font-family="Microsoft YaHei, SimHei, sans-serif" font-size="16" x="700.0" y="1110">• 台达电子</text><rect fill="#ecf0f1" height="250" rx="5" width="353.3333" x="1043.3333" y="900" /><text fill="#2980b9" font-family="Microsoft YaHei, SimHei, sans-serif" font-size="18" font-weight="bold" x="1063.3333333333333" y="930">中游：整机与平台</text><text fill="#333" font-family="Microsoft YaHei, SimHei, sans-serif" font-size="16" x="1063.3333333333333" y="960">• 浪潮信息</text><text fill="#333" font-family="Microsoft YaHei, SimHei, sans-serif" font-size="16" x="1063.3333333333333" y="985">• 中科曙光</text><text fill="#333" font-family="Microsoft YaHei, SimHei, sans-serif" font-size="16" x="1063.3333333333333" y="1010">• 工业富联</text><text fill="#333" font-family="Microsoft YaHei, SimHei, sans-serif" font-size="16" x="1063.3333333333333" y="1035">• 新华三</text><text fill="#333" font-family="Microsoft YaHei, SimHei, sans-serif" font-size="16" x="1063.3333333333333" y="1060">• 华为数字能源</text><text fill="#333" font-family="Microsoft YaHei, SimHei, sans-serif" font-size="16" x="1063.3333333333333" y="1085">• 润泽科技</text><text fill="#333" font-family="Microsoft YaHei, SimHei, sans-serif" font-size="16" x="1063.3333333333333" y="1110">• 万国数据</text><rect fill="#ecf0f1" height="250" rx="5" width="353.3333" x="1406.6667" y="900" /><text fill="#2980b9" font-family="Microsoft YaHei, SimHei, sans-serif" font-size="18" font-weight="bold" x="1426.6666666666665" y="930">下游：应用与服务</text><text fill="#333" font-family="Microsoft YaHei, SimHei, sans-serif" font-size="16" x="1426.6666666666665" y="960">• 百度智能云</text><text fill="#333" font-family="Microsoft YaHei, SimHei, sans-serif" font-size="16" x="1426.6666666666665" y="985">• 阿里云</text><text fill="#333" font-family="Microsoft YaHei, SimHei, sans-serif" font-size="16" x="1426.6666666666665" y="1010">• 腾讯云</text><text fill="#333" font-family="Microsoft YaHei, SimHei, sans-serif" font-size="16" x="1426.6666666666665" y="1035">• 科大讯飞</text><text fill="#333" font-family="Microsoft YaHei, SimHei, sans-serif" font-size="16" x="1426.6666666666665" y="1060">• 金山办公</text><text fill="#333" font-family="Microsoft YaHei, SimHei, sans-serif" font-size="16" x="1426.6666666666665" y="1085">• 中科创达</text><text fill="#333" font-family="Microsoft YaHei, SimHei, sans-serif" font-size="16" x="1426.6666666666665" y="1110">• 软通动力</text><rect fill="#3498db" height="40" rx="5" width="600" x="1780" y="100" /><text fill="#ffffff" font-family="Microsoft YaHei, SimHei, sans-serif" font-size="24" font-weight="bold" x="1800" y="128">三、旺庄区域优势与招商策略</text><rect fill="#ffffff" height="200" rx="5" stroke="#ddd" width="600" x="1780" y="150" /><rect fill="#ecf0f1" height="35" rx="5" width="600" x="1780" y="150" /><text fill="#2c3e50" font-family="Microsoft YaHei, SimHei, sans-serif" font-size="20" font-weight="bold" x="1790" y="174">旺庄街道概况 (Profile)</text><text fill="#333333" font-family="Microsoft YaHei, SimHei, sans-serif" font-size="16" x="1795" y="210">核心区位：无锡高新区核心，距机场10分钟。</text><text fill="#333333" font-family="Microsoft YaHei, SimHei, sans-serif" font-size="16" x="1795" y="234">经济底座：规上工业产值411亿，国家级孵化器。</text><text fill="#333333" font-family="Microsoft YaHei, SimHei, sans-serif" font-size="16" x="1795" y="258">产业基因：物联网、集成电路、智能装备。</text><text fill="#333333" font-family="Microsoft YaHei, SimHei, sans-serif" font-size="16" x="1795" y="282">龙头企业：奥特维、日联科技、隆盛科技。</text><text fill="#333333" font-family="Microsoft YaHei, SimHei, sans-serif" font-size="16" x="1795" y="306">匹配度：极强的“精密制造”基因，适合承接硬件制造。</text><rect fill="#ffffff" height="180" rx="5" stroke="#ddd" width="600" x="1780" y="370" /><rect fill="#ecf0f1" height="35" rx="5" width="600" x="1780" y="370" /><text fill="#2c3e50" font-family="Microsoft YaHei, SimHei, sans-serif" font-size="20" font-weight="bold" x="1790" y="394">策略1：“精密制造+” (以商招商)</text><text fill="#333333" font-family="Microsoft YaHei, SimHei, sans-serif" font-size="16" x="1795" y="430">依托：奥特维、日联科技供应链。</text><text fill="#333333" font-family="Microsoft YaHei, SimHei, sans-serif" font-size="16" x="1795" y="454">路径：排查龙头企业上下游，挖掘光模块/服务器配套。</text><text fill="#333333" font-family="Microsoft YaHei, SimHei, sans-serif" font-size="16" x="1795" y="478">重点：邀请下游客户考察旺庄精密加工能力。</text><rect fill="#ffffff" height="180" rx="5" stroke="#ddd" width="600" x="1780" y="570" /><rect fill="#ecf0f1" height="35" rx="5" width="600" x="1780" y="570" /><text fill="#2c3e50" font-family="Microsoft YaHei, SimHei, sans-serif" font-size="20" font-weight="bold" x="1790" y="594">策略2：“总部经济” (楼宇招商)</text><text fill="#333333" font-family="Microsoft YaHei, SimHei, sans-serif" font-size="16" x="1795" y="630">依托：旺庄科创中心、无锡新加坡科创城品牌。</text><text fill="#333333" font-family="Microsoft YaHei, SimHei, sans-serif" font-size="16" x="1795" y="654">路径：承接上海/苏州溢出的AI算法/应用企业。</text><text fill="#333333" font-family="Microsoft YaHei, SimHei, sans-serif" font-size="16" x="1795" y="678">重点：提供“拎包入住”孵化空间，聚焦AI+金融/制造。</text><rect fill="#ffffff" height="180" rx="5" stroke="#ddd" width="600" x="1780" y="770" /><rect fill="#ecf0f1" height="35" rx="5" width="600" x="1780" y="770" /><text fill="#2c3e50" font-family="Microsoft YaHei, SimHei, sans-serif" font-size="20" font-weight="bold" x="1790" y="794">策略3：“补链强链” (精准突破)</text><text fill="#333333" font-family="Microsoft YaHei, SimHei, sans-serif" font-size="16" x="1795" y="830">避开：核心芯片制造(难度大)。</text><text fill="#333333" font-family="Microsoft YaHei, SimHei, sans-serif" font-size="16" x="1795" y="854">突破口：液冷结构件(散热板)、光模块封装。</text><text fill="#333333" font-family="Microsoft YaHei, SimHei, sans-serif" font-size="16" x="1795" y="878">逻辑：符合精密制造基因，落地成功率高。</text><text fill="#7f8c8d" font-family="Microsoft YaHei, SimHei, sans-serif" font-size="16" text-anchor="middle" x="1200.0" y="1580">数据来源：沙利文、IDC、信通院、旺庄街道2024年数据 | 编制日期：2026-01-29</text></svg>